<svg width="95" height="60" viewBox="0 0 95 60" fill="none" xmlns="http://www.w3.org/2000/svg">
<path d="M72.6006 23.1634C72.6006 31.7327 72.6006 40.3029 72.6006 48.8723C72.6006 48.9364 72.6038 49.0014 72.5974 49.0647C72.5667 49.3589 72.3434 49.5673 72.0458 49.5817C71.9813 49.585 71.9168 49.5833 71.8523 49.5833C56.2586 49.5833 40.6642 49.5833 25.0705 49.5833C24.9931 49.5833 24.9157 49.5858 24.8383 49.5785C24.5738 49.5545 24.3593 49.3364 24.3408 49.0735C24.3367 49.0158 24.3392 48.9581 24.3392 48.9004C24.3392 38.7349 24.3392 28.5695 24.3392 18.4033C24.3392 18.3336 24.3392 18.2646 24.3392 18.1901C24.4803 18.2438 34.0802 25.6436 34.3164 25.8785C31.4933 27.9771 28.6726 30.0742 25.8576 32.1672C25.8648 32.1913 25.8664 32.1969 25.8689 32.2025C25.8721 32.2081 25.8761 32.2169 25.8801 32.2169C34.3309 32.2201 42.7817 32.2233 51.2333 32.2257C51.264 32.2257 51.2946 32.2145 51.3333 32.2065C51.3333 32.1448 51.339 32.0879 51.3325 32.0326C51.172 30.6321 51.0084 29.2325 50.8487 27.8328C50.7003 26.5342 50.556 25.2356 50.4076 23.9369C50.2463 22.5301 50.0826 21.124 49.9206 19.718C49.8044 18.7127 49.6915 17.7067 49.5738 16.7015C49.5633 16.6125 49.5722 16.5467 49.652 16.4858C50.7648 15.6329 51.8752 14.7768 52.9864 13.9222C53.0009 13.911 53.0194 13.9038 53.0485 13.8878C53.0904 13.9182 53.138 13.9487 53.1807 13.9848C54.6225 15.1976 56.0683 16.4065 57.5029 17.6273C58.0512 18.0939 58.585 18.5781 59.1051 19.0759C59.4519 19.4069 59.6962 19.8134 59.8502 20.2727C59.9704 20.6294 60.026 20.9966 60.0397 21.3669C60.0526 21.7269 59.9962 22.0884 59.8583 22.4203C59.6946 22.8155 59.5083 23.2067 59.2874 23.573C58.8503 24.2977 58.3875 25.0079 57.9262 25.7181C56.5739 27.8016 55.2184 29.8826 53.8637 31.9644C53.8161 32.0374 53.771 32.1119 53.7057 32.2161C53.8113 32.2209 53.879 32.2273 53.9468 32.2273C54.9136 32.2273 55.8805 32.2249 56.8473 32.2314C56.9924 32.2322 57.0803 32.1897 57.161 32.0662C58.1286 30.5904 59.1027 29.1178 60.0752 27.6453C60.6977 26.7025 61.3332 25.7695 62.0008 24.8564C62.5242 24.1413 63.0024 23.3918 63.3894 22.595C63.7749 21.8006 64.0345 20.9629 64.0579 20.0675C64.0692 19.633 63.9434 19.2346 63.7466 18.853C63.6184 18.6045 63.4362 18.4025 63.2322 18.2117C62.7943 17.8013 62.3129 17.447 61.8347 17.0886C58.9423 14.9194 56.0942 12.6957 53.2541 10.4592C53.1888 10.4079 53.1227 10.3582 53.0461 10.2997C51.7244 11.2576 50.4092 12.2116 49.0908 13.1663C49.0303 13.0268 47.9062 4.24179 47.9183 4.01573H61.2824C60.9985 4.25141 60.7372 4.45182 60.48 4.65704C60.2139 4.86947 59.9462 5.08029 59.6785 5.29272C59.4164 5.50035 59.1543 5.70877 58.8923 5.91639C58.6254 6.12802 58.3576 6.33965 58.0907 6.55128C57.8295 6.7589 57.5682 6.96652 57.2844 7.19178C57.3545 7.24869 57.411 7.29679 57.4698 7.34168C59.5478 8.92249 61.6267 10.5033 63.7047 12.0841C65.307 13.3026 66.9149 14.5146 68.5091 15.7427C69.0542 16.162 69.5848 16.6037 70.0896 17.0694C70.5024 17.451 70.7605 17.9368 70.8653 18.4995C70.9492 18.95 70.9411 19.3989 70.8089 19.8302C70.7161 20.1332 70.5645 20.4218 70.4129 20.7024C69.846 21.7549 69.1534 22.7289 68.4946 23.7237C66.6584 26.4957 64.8183 29.2645 62.9806 32.035C62.9491 32.0823 62.9225 32.132 62.883 32.1977C62.9403 32.2089 62.9814 32.2249 63.0225 32.2249C64.0668 32.2265 65.111 32.2233 66.1553 32.229C66.2835 32.229 66.3367 32.1632 66.3956 32.0742C67.2439 30.8037 68.0938 29.5347 68.9429 28.2649C70.0952 26.5414 71.2475 24.8179 72.4014 23.096C72.4434 23.0335 72.4627 22.9357 72.6006 22.9373V23.1634ZM31.5877 42.2501C31.5957 42.3006 31.6054 42.331 31.6046 42.3615C31.5901 42.8417 31.5925 43.3227 31.553 43.8004C31.5199 44.2028 31.4167 44.5948 31.2304 44.9604C30.974 45.463 30.5748 45.7596 29.9991 45.7901C29.4951 45.8165 29.0637 45.6618 28.7863 45.2225C28.6573 45.0189 28.5573 44.792 28.4815 44.5628C28.3017 44.0241 28.238 43.4613 28.2154 42.8978C28.1864 42.1619 28.1743 41.4244 28.1735 40.6877C28.1735 39.9246 28.217 39.163 28.3662 38.4119C28.438 38.0528 28.5404 37.7025 28.7371 37.3866C28.9024 37.1213 29.121 36.9129 29.4274 36.8311C30.1321 36.6419 30.8845 36.8086 31.2627 37.5726C31.378 37.8059 31.4401 38.0648 31.528 38.3117C31.5417 38.3518 31.5586 38.3902 31.5788 38.4424C32.0191 38.2155 32.4456 37.995 32.8762 37.773C32.7811 37.304 32.6214 36.8808 32.3714 36.4944C32.0295 35.9661 31.5538 35.6102 30.9474 35.4379C30.316 35.2583 29.6749 35.2447 29.0363 35.393C28.442 35.5308 27.9574 35.8507 27.6203 36.3581C27.4542 36.6074 27.3139 36.8784 27.1994 37.1549C26.9542 37.7457 26.847 38.3718 26.7728 39.0027C26.676 39.8252 26.647 40.6508 26.6551 41.4781C26.6647 42.4978 26.7131 43.515 26.926 44.5171C27.0437 45.071 27.2147 45.6073 27.5163 46.0939C27.8469 46.627 28.3017 47.0093 28.9153 47.1769C29.1371 47.2378 29.3693 47.2763 29.5991 47.2931C30.1862 47.3356 30.7571 47.2586 31.2877 46.9853C31.8957 46.671 32.2771 46.1588 32.5376 45.5464C32.823 44.8778 32.9407 44.1708 33.002 43.4533C33.073 42.6276 33.0609 41.8012 33.0077 40.9755C33.0053 40.9394 32.9932 40.9041 32.9851 40.8633H30.0354C30.0338 41.3258 30.0289 41.7763 30.0402 42.2477H31.5885L31.5877 42.2501ZM55.7748 47.144C54.9185 43.2385 54.0661 39.3506 53.2138 35.4619H51.818C51.6397 36.0703 49.269 46.9797 49.2795 47.1456H50.7543C50.9253 46.3793 51.0946 45.6201 51.2616 44.8706H53.7444C53.9331 45.6361 54.0831 46.3993 54.2734 47.144H55.7748ZM37.2645 35.4595C36.4098 39.3562 35.5574 43.2441 34.7011 47.1472H36.2098C36.3799 46.3849 36.5485 45.6257 36.717 44.869H39.2006C39.3764 45.6337 39.5506 46.3921 39.7223 47.1408C40.0626 47.1777 41.0738 47.1648 41.2262 47.1199C40.3739 43.2337 39.5216 39.3458 38.6692 35.4595H37.2645ZM57.823 35.4571C57.8617 35.5806 57.8907 35.6775 57.923 35.7737C58.5068 37.5309 59.0898 39.2881 59.6753 41.0436C59.7091 41.1454 59.7148 41.2384 59.6753 41.3402C59.6132 41.5014 59.5616 41.6673 59.5067 41.8308C58.9326 43.5303 58.3584 45.2297 57.7851 46.9292C57.7617 46.9973 57.7448 47.0678 57.719 47.1568H57.9432C58.3173 47.1568 58.6907 47.1568 59.0648 47.1568C59.3196 47.1568 59.2785 47.1616 59.3414 46.9548C59.7051 45.7596 60.0647 44.5636 60.4268 43.3683C60.4445 43.3098 60.4663 43.2521 60.4865 43.1936C60.4986 43.1928 60.5107 43.192 60.5219 43.1912C60.9163 44.5107 61.3106 45.8309 61.7073 47.1568C62.2347 47.1552 62.7395 47.1608 63.2701 47.1528C63.2386 47.0502 63.2185 46.9773 63.1943 46.9059C62.5774 45.079 61.9621 43.2513 61.3404 41.426C61.2856 41.2657 61.2832 41.1246 61.3372 40.9635C61.925 39.2079 62.5072 37.4499 63.0902 35.6928C63.1136 35.6214 63.133 35.5485 63.1596 35.4595H61.6726C61.2832 36.7052 60.9114 37.9453 60.5211 39.1807C60.5066 39.1799 60.4921 39.1782 60.4776 39.1774C60.0905 37.9389 59.7027 36.7012 59.314 35.4579L57.823 35.4571ZM65.5505 35.4563C65.5771 35.5549 65.5956 35.6278 65.6174 35.7C66.2617 37.8059 66.9068 39.9117 67.5487 42.0192C67.5834 42.133 67.6027 42.2573 67.6027 42.3759C67.6059 43.8878 67.6051 45.3997 67.6051 46.9123V47.156C68.1301 47.152 68.6276 47.1689 69.138 47.1448C69.138 47.0446 69.138 46.9684 69.138 46.8915C69.138 45.386 69.1364 43.8806 69.1405 42.3743C69.1405 42.2549 69.1606 42.1314 69.1961 42.0176C69.8501 39.9005 70.5081 37.785 71.1645 35.6695C71.1846 35.6046 71.2007 35.5389 71.2233 35.4595H69.6767C69.6557 35.5308 69.6364 35.5918 69.6195 35.6535C69.3856 36.4856 69.155 37.3185 68.9171 38.1498C68.7324 38.7967 68.5518 39.4436 68.4421 40.1081C68.4341 40.1586 68.4292 40.2099 68.4196 40.2604C68.4099 40.3085 68.3954 40.3566 68.3825 40.4047C68.0962 38.7133 67.5132 37.1076 67.0915 35.4571L65.5505 35.4563ZM42.9874 47.1432H47.6224V45.681H44.4791V35.4731C44.2437 35.4298 43.1349 35.4387 42.9874 35.4819V47.1432Z" fill="url(#paint0_linear_542_2980)"/>
<path d="M38.4531 3.00569C38.4144 3.07302 38.3975 3.10669 38.3773 3.13795C37.4556 4.52878 36.5339 5.9204 35.6123 7.31042C35.5695 7.37455 35.526 7.43788 35.4784 7.4988C34.9728 8.15613 34.5132 8.84393 34.0769 9.54775C33.5391 10.4159 33.119 11.3322 32.9424 12.3446C32.8625 12.8016 32.8246 13.2633 32.9657 13.7154C33.1069 14.1675 33.327 14.5691 33.6955 14.8922C34.0826 15.2321 34.4817 15.5543 34.8938 15.863C37.8572 18.0859 40.7803 20.3617 43.6889 22.6543C43.7494 22.7016 43.8099 22.7481 43.8857 22.8066C45.2089 21.8471 46.5281 20.8916 47.8748 19.9152C48.2643 22.9918 48.6481 26.0316 49.0327 29.0681C48.8731 29.1138 35.9259 29.1243 35.6558 29.081C36.9936 28.0204 38.3144 26.9727 39.6498 25.9137C39.5756 25.8544 39.5216 25.8095 39.4667 25.767C35.7864 22.9678 32.1037 20.1725 28.4283 17.3676C27.8816 16.9508 27.3534 16.5067 26.8478 16.0417C26.4019 15.6313 26.1382 15.1054 26.0503 14.4994C25.968 13.9343 26.0245 13.3915 26.2793 12.8729C26.6502 12.1178 27.0937 11.4043 27.559 10.7037C29.2282 8.1914 30.8966 5.67831 32.5609 3.1628C32.6367 3.04817 32.715 3.00248 32.8545 3.00248C34.6527 3.00729 36.4509 3.00569 38.2499 3.00569C38.3072 3.00569 38.3636 3.00569 38.4547 3.00569H38.4531Z" fill="url(#paint1_linear_542_2980)"/>
<path d="M45.8226 3.00569C45.8685 3.39928 45.9113 3.76803 45.954 4.13598C46.0395 4.88069 46.125 5.6254 46.2104 6.36931C46.2935 7.09478 46.3757 7.82025 46.4588 8.54572C46.5435 9.28402 46.6289 10.0223 46.7128 10.7606C46.7967 11.4925 46.8789 12.2244 46.9628 12.9563C47.0458 13.6817 47.1289 14.4072 47.2111 15.1327C47.2579 15.5463 47.2998 15.9608 47.3555 16.3736C47.3732 16.5051 47.3361 16.582 47.2313 16.6622C46.2604 17.4037 45.2936 18.1508 44.3251 18.8963C44.1824 19.0061 44.0405 19.116 43.8929 19.2298C43.8421 19.1905 43.7961 19.1568 43.7526 19.12C42.3156 17.9111 40.8755 16.7071 39.4458 15.4902C38.8926 15.0196 38.3531 14.5315 37.8282 14.0296C37.4814 13.6986 37.2395 13.2905 37.0823 12.8328C36.9581 12.4705 36.9017 12.0945 36.892 11.7202C36.8831 11.3642 36.9404 10.9995 37.0823 10.6676C37.2427 10.2917 37.4177 9.9165 37.6282 9.56699C38.0515 8.86397 38.4991 8.17457 38.9458 7.48517C39.8739 6.05186 40.8085 4.62417 41.7351 3.19006C41.8213 3.05699 41.9076 3.00007 42.0721 3.00168C43.2454 3.00969 44.4187 3.00569 45.5919 3.00569C45.6621 3.00569 45.7322 3.00569 45.825 3.00569H45.8226Z" fill="url(#paint2_linear_542_2980)"/>
<path d="M62.6024 7.23907C62.8177 7.07875 63.0024 6.94087 63.1878 6.80299C64.8441 5.57169 66.5012 4.34119 68.1551 3.10749C68.2534 3.03374 68.3518 3.00328 68.4736 3.00328C69.6267 3.00649 70.7806 3.01531 71.9337 3.00007C72.3748 2.99446 72.6054 3.30469 72.6046 3.66462C72.5974 7.36172 72.6006 11.0588 72.6006 14.7551V14.9667C69.2509 12.3775 65.9384 9.8179 62.6024 7.23907Z" fill="url(#paint3_linear_542_2980)"/>
<path d="M24.3392 10.2596C24.3392 10.1578 24.3392 10.0945 24.3392 10.0311C24.3392 7.91083 24.3392 5.78973 24.3392 3.66943C24.3392 3.6053 24.3359 3.54037 24.3448 3.47784C24.3771 3.23736 24.5916 3.03615 24.8399 3.0105C24.8843 3.00569 24.9302 3.00649 24.9754 3.00649C26.3285 3.00649 27.6816 3.00649 29.0347 3.00649C29.079 3.00649 29.1242 3.0105 29.1701 3.0121C29.129 3.15078 24.5762 9.98785 24.3392 10.2596Z" fill="url(#paint4_linear_542_2980)"/>
<path d="M65.9263 54.7664C65.9263 54.2093 65.9271 53.6522 65.9263 53.095C65.9263 52.8417 65.9642 52.598 66.0762 52.368C66.427 51.6473 67.3173 51.3347 68.0906 51.6657C68.6574 51.9078 68.9308 52.3559 68.9848 52.9515C68.9913 53.0213 68.9889 53.0926 68.9889 53.1632C68.9889 54.239 68.9921 55.3155 68.9864 56.3913C68.9856 56.5749 68.9727 56.7665 68.9219 56.9412C68.755 57.5112 68.3526 57.8487 67.7785 57.9641C66.9762 58.126 66.3423 57.7068 66.073 57.1665C65.9617 56.9428 65.9279 56.7039 65.9279 56.4579C65.9279 55.8943 65.9279 55.3308 65.9279 54.7672L65.9263 54.7664ZM68.0777 54.772C68.0777 54.3744 68.0777 53.9776 68.0777 53.58C68.0777 53.3812 68.0825 53.1824 68.0712 52.9844C68.0559 52.7199 67.9091 52.5443 67.6543 52.4682C67.3455 52.376 66.8834 52.4938 66.8342 52.986C66.8294 53.0373 66.8254 53.0886 66.8254 53.1391C66.8254 54.2221 66.8246 55.3051 66.8262 56.3881C66.8262 56.4771 66.8391 56.5669 66.8552 56.6543C66.885 56.8154 66.981 56.93 67.1229 57.0118C67.4995 57.2274 68.0889 57.0334 68.0769 56.4827C68.076 56.4378 68.0769 56.3929 68.0769 56.348C68.0769 55.823 68.0777 55.2971 68.0777 54.772Z" fill="url(#paint5_linear_542_2980)"/>
<path d="M53.4783 43.5207H51.5422C51.8607 41.8765 52.1768 40.2484 52.4929 38.6195C52.505 38.6195 52.5171 38.6211 52.5284 38.6219C52.8437 40.246 53.1581 41.8709 53.4783 43.5207Z" fill="url(#paint6_linear_542_2980)"/>
<path d="M37 43.5198C37.3194 41.8733 37.6338 40.25 37.9491 38.6259C37.9612 38.6259 37.9741 38.6259 37.9862 38.6259C38.3015 40.2516 38.6168 41.8773 38.9353 43.5207L37 43.5198Z" fill="url(#paint7_linear_542_2980)"/>
<path d="M57.433 55.3525V51.6346C57.583 51.5809 58.0798 51.5704 58.316 51.6137V57.9346H57.4798C57.0129 56.6944 56.567 55.4327 56.0953 54.1805C56.08 54.1837 56.0638 54.187 56.0485 54.1902V57.9346H55.1559V51.6129C55.2083 51.6041 55.2566 51.5905 55.305 51.5897C55.4921 51.5873 55.6792 51.5937 55.8655 51.5865C55.9824 51.5817 56.0356 51.629 56.0735 51.7364C56.2904 52.3528 56.5146 52.9661 56.7363 53.5809C56.9299 54.1172 57.1234 54.6535 57.3177 55.1898C57.3387 55.2475 57.3637 55.3044 57.3863 55.3621C57.4016 55.3589 57.4169 55.3557 57.433 55.3525Z" fill="url(#paint8_linear_542_2980)"/>
<path d="M64.459 55.0567C64.7848 56.0147 65.1073 56.9654 65.4363 57.933H64.4775C64.1969 57.0432 63.9123 56.1421 63.626 55.2347H63.0744C63.0583 55.6884 63.0696 56.1349 63.0672 56.5814C63.0656 57.0287 63.0672 57.4752 63.0672 57.9338H62.1745V51.6169C62.2116 51.6081 62.2471 51.5913 62.2818 51.5913C62.7777 51.5921 63.2752 51.5769 63.7695 51.6025C64.5969 51.6458 65.0396 52.0426 65.1928 52.8506C65.2702 53.2571 65.2686 53.6651 65.1799 54.0723C65.0936 54.4675 64.892 54.781 64.5404 54.9926C64.5186 55.0054 64.5009 55.0238 64.459 55.0567ZM63.0801 52.4562V54.4218C63.3155 54.4218 63.5397 54.4331 63.7623 54.4186C64.055 54.4002 64.2348 54.2359 64.2921 53.9473C64.3574 53.617 64.3582 53.2843 64.2969 52.9541C64.2413 52.6559 64.0872 52.4955 63.784 52.4619C63.5558 52.4362 63.3228 52.4562 63.0801 52.4562Z" fill="url(#paint9_linear_542_2980)"/>
<path d="M51.2974 54.7593C51.2974 54.1894 51.2941 53.6194 51.2974 53.0494C51.3038 52.1628 51.9787 51.5055 52.8722 51.5384C53.706 51.5688 54.2858 52.1236 54.3495 52.9052C54.3575 53.007 54.3624 53.1096 54.3632 53.2122C54.364 54.2559 54.3656 55.3004 54.3624 56.3441C54.3624 56.5101 54.3559 56.6792 54.3221 56.8403C54.1834 57.5121 53.5955 57.9706 52.8738 57.9971C52.0771 58.0267 51.2885 57.4303 51.2965 56.4884C51.3014 55.9121 51.2974 55.3357 51.2974 54.7593ZM53.4584 54.7665C53.4584 54.235 53.4584 53.7028 53.4584 53.1713C53.4584 53.0943 53.4568 53.0166 53.4431 52.942C53.3834 52.6069 53.1359 52.425 52.7746 52.445C52.4489 52.4635 52.2158 52.6807 52.2134 53.0134C52.2053 54.1862 52.2053 55.3581 52.2134 56.5309C52.2158 56.8652 52.4577 57.0808 52.7988 57.1017C53.1238 57.1209 53.3883 56.9141 53.4439 56.5926C53.4568 56.5173 53.4584 56.4395 53.4584 56.3634C53.4592 55.8319 53.4584 55.2996 53.4584 54.7681V54.7665Z" fill="url(#paint10_linear_542_2980)"/>
<path d="M45.2939 53.3998C45.2528 53.403 45.2092 53.4102 45.1657 53.4102C44.9222 53.411 44.6786 53.4102 44.4182 53.4102C44.4141 53.326 44.4198 53.2563 44.4069 53.1897C44.3762 53.0406 44.3545 52.8859 44.2956 52.7472C44.1868 52.4931 43.961 52.4314 43.7045 52.4434C43.4667 52.4538 43.2949 52.5717 43.2118 52.7849C43.0925 53.0919 43.0933 53.4126 43.1804 53.7292C43.2215 53.8807 43.3393 53.9777 43.4796 54.0378C43.7215 54.1421 43.9666 54.2391 44.2101 54.3393C44.3174 54.3833 44.4254 54.4234 44.5303 54.4723C44.9383 54.6615 45.1947 54.9669 45.2608 55.4183C45.3366 55.9361 45.3487 56.4523 45.2108 56.9622C45.0431 57.5866 44.5762 57.961 43.9239 57.9875C43.7199 57.9955 43.5086 57.9891 43.311 57.9434C42.6554 57.7919 42.1918 57.2059 42.1757 56.5373C42.1732 56.4227 42.1757 56.3081 42.1757 56.1982C42.3216 56.1477 42.8627 56.1397 43.0828 56.1854C43.0828 56.2624 43.0723 56.3457 43.0852 56.4251C43.1054 56.5501 43.1272 56.6776 43.1748 56.7938C43.2393 56.951 43.3675 57.0544 43.54 57.0736C43.6723 57.088 43.8094 57.0912 43.9408 57.0752C44.1795 57.0455 44.3246 56.894 44.3682 56.6656C44.4335 56.3169 44.4287 55.9642 44.3658 55.6147C44.3375 55.4583 44.2376 55.3493 44.0956 55.2852C43.8674 55.1818 43.636 55.0856 43.4054 54.987C43.3046 54.9437 43.203 54.9044 43.103 54.8611C42.6288 54.6551 42.3458 54.3032 42.2652 53.791C42.195 53.3477 42.1998 52.91 42.3595 52.4843C42.595 51.8574 43.1441 51.5119 43.8626 51.5368C44.5069 51.5592 45.0859 51.9969 45.26 52.5949C45.3245 52.8154 45.3399 53.1681 45.2939 53.3998Z" fill="url(#paint11_linear_542_2980)"/>
<path d="M41.6725 53.4014H40.783C40.7798 53.326 40.7855 53.2555 40.7718 53.1897C40.7411 53.0406 40.7193 52.8859 40.6597 52.7472C40.5548 52.5019 40.3379 52.437 40.0871 52.4434C39.8493 52.4498 39.6719 52.5581 39.584 52.7697C39.4541 53.0815 39.4574 53.4078 39.5453 53.7308C39.5864 53.8823 39.7049 53.9785 39.8452 54.0387C40.0807 54.1413 40.3202 54.2359 40.5573 54.3337C40.6581 54.3753 40.7613 54.413 40.8613 54.4563C41.2943 54.6463 41.5644 54.9629 41.6297 55.4383C41.6991 55.9433 41.712 56.4467 41.5806 56.9445C41.4112 57.5826 40.9484 57.9546 40.2879 57.9907C40.0613 58.0035 39.8372 57.9995 39.6178 57.9346C38.9864 57.7478 38.551 57.1738 38.5405 56.5165C38.5389 56.4083 38.5405 56.3 38.5405 56.1974C38.6913 56.1469 39.2364 56.1405 39.4477 56.1862C39.4477 56.2632 39.4372 56.3465 39.4501 56.4259C39.4703 56.551 39.4929 56.6784 39.5404 56.7946C39.6049 56.9518 39.734 57.0544 39.9065 57.0728C40.0388 57.0872 40.1759 57.0904 40.3073 57.0736C40.546 57.0432 40.6911 56.8908 40.7331 56.6624C40.7984 56.3137 40.7935 55.961 40.7298 55.6114C40.7016 55.4559 40.6008 55.3469 40.4589 55.2828C40.2307 55.1802 39.9993 55.0832 39.7686 54.9846C39.6445 54.9309 39.5187 54.8812 39.3969 54.8242C38.9768 54.6262 38.7252 54.3 38.6405 53.8447C38.555 53.3829 38.5575 52.9268 38.7236 52.4819C38.959 51.855 39.509 51.5103 40.2267 51.5352C40.8709 51.5576 41.4507 51.9961 41.6225 52.5949C41.6975 52.8563 41.691 53.1232 41.6701 53.4006L41.6725 53.4014Z" fill="url(#paint12_linear_542_2980)"/>
<path d="M27.6069 57.9378H26.703C26.6118 57.4864 26.5207 57.0383 26.4288 56.5854H25.1757C25.0854 57.0335 24.9959 57.4776 24.9039 57.933H24C24.4741 55.8215 24.9467 53.7188 25.4208 51.6041H26.1829C26.6562 53.7108 27.1303 55.8175 27.6069 57.9378ZM25.8264 53.4911C25.8079 53.4911 25.7901 53.4895 25.7716 53.4895C25.6281 54.2278 25.4845 54.9653 25.3378 55.7173H26.2595C26.1135 54.9661 25.97 54.2278 25.8264 53.4911Z" fill="url(#paint13_linear_542_2980)"/>
<path d="M36.3149 57.0399H38.0954C38.1365 57.3454 38.118 57.6347 38.1083 57.9346H35.4303C35.3892 57.8055 35.3731 51.9392 35.4142 51.6266C35.5545 51.5801 37.8688 51.5696 38.1091 51.6193C38.1277 51.8839 38.1188 52.1532 38.114 52.4402H36.3391C36.294 52.5981 36.2827 54.0427 36.3238 54.3144C36.5746 54.316 36.8294 54.3176 37.085 54.3184C37.3414 54.3184 37.5979 54.3184 37.8761 54.3184C37.8954 54.6078 37.8882 54.8732 37.8809 55.1649C37.6108 55.1665 37.356 55.1689 37.1003 55.1697C36.8431 55.1697 36.5867 55.1697 36.3157 55.1697V57.0383L36.3149 57.0399Z" fill="url(#paint14_linear_542_2980)"/>
<path d="M30.9396 56.1533C31.1517 57.2572 30.2937 58.0652 29.4471 57.9931C29.2503 57.9762 29.0439 57.9554 28.8624 57.8849C28.3197 57.674 28.0649 57.2452 28.0141 56.6824C28.0117 56.6568 28.0109 56.6311 28.0109 56.6055C28.0109 55.3814 27.9964 54.1565 28.0157 52.9332C28.0303 51.9993 28.8165 51.4398 29.7123 51.5488C30.5187 51.6466 30.9388 52.3112 30.9671 52.9821C30.9727 53.1152 30.9671 53.2491 30.9671 53.3958H30.0655C30.0639 53.318 30.068 53.2362 30.0591 53.1569C30.0462 53.043 30.0438 52.9228 30.0026 52.8186C29.8696 52.4835 29.6204 52.3921 29.2858 52.4659C29.1527 52.4955 29.0495 52.5765 29.0068 52.708C28.9697 52.8226 28.9342 52.942 28.9269 53.0615C28.9132 53.2915 28.9181 53.5224 28.9181 53.7533C28.9181 54.6182 28.9165 55.484 28.9197 56.3489C28.9197 56.4756 28.9294 56.6063 28.9616 56.7281C29.0269 56.9726 29.1656 57.076 29.418 57.1001C29.6503 57.1225 29.8962 57.0055 29.9793 56.8051C30.0293 56.684 30.0405 56.5461 30.0583 56.4147C30.0696 56.3345 30.0607 56.2511 30.0607 56.1533H30.9396Z" fill="url(#paint15_linear_542_2980)"/>
<path d="M34.6183 53.399H33.7313C33.7273 53.3132 33.7224 53.2322 33.72 53.1521C33.7144 52.9765 33.687 52.8082 33.5781 52.6615C33.408 52.433 33.0523 52.3609 32.8185 52.5228C32.7492 52.5709 32.6814 52.651 32.658 52.7288C32.6121 52.8867 32.5734 53.0535 32.5726 53.217C32.5653 54.2743 32.5677 55.3317 32.5701 56.389C32.5701 56.4844 32.5814 56.5814 32.6024 56.6744C32.675 56.9838 32.8346 57.0945 33.1354 57.0985C33.4201 57.1025 33.6394 56.9245 33.6926 56.6592C33.7128 56.5598 33.712 56.4556 33.72 56.3537C33.7249 56.2912 33.7273 56.2287 33.7313 56.1558H34.5869C34.8135 57.2115 34.0152 57.9658 33.2838 57.9891C33.0927 57.9955 32.8959 57.981 32.7088 57.9426C32.1565 57.8295 31.7452 57.363 31.6855 56.8027C31.6751 56.7009 31.6702 56.5982 31.6702 56.4956C31.6694 55.3421 31.667 54.1886 31.6726 53.035C31.6735 52.8643 31.6912 52.6871 31.7396 52.5236C31.9081 51.9496 32.4266 51.5672 33.0532 51.536C33.9506 51.4911 34.6111 52.114 34.6175 53.0118C34.6183 53.1328 34.6183 53.2555 34.6183 53.399Z" fill="url(#paint16_linear_542_2980)"/>
<path d="M50.5926 53.3982H49.6943C49.6943 53.3076 49.6959 53.2266 49.6943 53.1448C49.6894 52.9693 49.6588 52.8009 49.5491 52.6558C49.3782 52.4306 49.0169 52.3633 48.7871 52.526C48.7226 52.5717 48.6597 52.6446 48.6371 52.7176C48.5912 52.8691 48.5484 53.0286 48.5476 53.1857C48.5404 54.2623 48.5428 55.3389 48.5452 56.4155C48.5452 56.498 48.5573 56.5822 48.575 56.6632C48.6444 56.9806 48.8097 57.0993 49.1177 57.0993C49.4121 57.0993 49.6282 56.9141 49.6717 56.6343C49.6951 56.4836 49.6967 56.3289 49.7096 56.1509C49.8548 56.1485 50.0007 56.1453 50.1459 56.1445C50.2862 56.1437 50.4273 56.1445 50.5636 56.1445C50.7514 57.1185 50.1491 57.8119 49.4806 57.957C48.8589 58.0917 48.1436 57.9225 47.805 57.2716C47.6921 57.0552 47.6469 56.8251 47.6469 56.5854C47.6453 55.3742 47.6413 54.1629 47.6469 52.9516C47.6517 52.0498 48.4041 51.4278 49.3435 51.5496C50.0773 51.645 50.5773 52.2254 50.5926 52.9613C50.5958 53.1015 50.5926 53.2418 50.5926 53.3982Z" fill="url(#paint17_linear_542_2980)"/>
<path d="M60.6924 57.9354H59.7885V52.4562C59.4312 52.4274 59.0926 52.4571 58.7402 52.4362V51.621C58.8958 51.5801 61.5383 51.5737 61.7447 51.6153V52.4426H60.6924V57.9354Z" fill="url(#paint18_linear_542_2980)"/>
<path d="M70.7261 57.0407H72.5227C72.5614 57.3462 72.5453 57.6356 72.534 57.9354H69.856C69.8157 57.8047 69.8004 51.928 69.8431 51.6049C70.1238 51.5769 70.4084 51.5857 70.7116 51.6017C70.7172 51.7011 70.7261 51.7885 70.7261 51.8759C70.7269 53.5096 70.7261 55.1441 70.7261 56.7778V57.0407Z" fill="url(#paint19_linear_542_2980)"/>
<defs>
<linearGradient id="paint0_linear_542_2980" x1="46.215" y1="5.475" x2="18.3901" y2="48.8542" gradientUnits="userSpaceOnUse">
<stop stop-color="#FCFCFC"/>
<stop offset="0.135417" stop-color="#E9E9E9"/>
<stop offset="0.296875" stop-color="#F5F5F5"/>
<stop offset="0.427083" stop-color="#EBE6E8"/>
<stop offset="0.552083" stop-color="#F4C7CC"/>
<stop offset="0.739583" stop-color="#E8F39E"/>
<stop offset="0.864583" stop-color="#C4BFBC"/>
<stop offset="0.973958" stop-color="#E1DCDC"/>
</linearGradient>
<linearGradient id="paint1_linear_542_2980" x1="46.215" y1="5.475" x2="18.3901" y2="48.8542" gradientUnits="userSpaceOnUse">
<stop stop-color="#FCFCFC"/>
<stop offset="0.135417" stop-color="#E9E9E9"/>
<stop offset="0.296875" stop-color="#F5F5F5"/>
<stop offset="0.427083" stop-color="#EBE6E8"/>
<stop offset="0.552083" stop-color="#F4C7CC"/>
<stop offset="0.739583" stop-color="#E8F39E"/>
<stop offset="0.864583" stop-color="#C4BFBC"/>
<stop offset="0.973958" stop-color="#E1DCDC"/>
</linearGradient>
<linearGradient id="paint2_linear_542_2980" x1="46.215" y1="5.475" x2="18.3901" y2="48.8542" gradientUnits="userSpaceOnUse">
<stop stop-color="#FCFCFC"/>
<stop offset="0.135417" stop-color="#E9E9E9"/>
<stop offset="0.296875" stop-color="#F5F5F5"/>
<stop offset="0.427083" stop-color="#EBE6E8"/>
<stop offset="0.552083" stop-color="#F4C7CC"/>
<stop offset="0.739583" stop-color="#E8F39E"/>
<stop offset="0.864583" stop-color="#C4BFBC"/>
<stop offset="0.973958" stop-color="#E1DCDC"/>
</linearGradient>
<linearGradient id="paint3_linear_542_2980" x1="46.215" y1="5.475" x2="18.3901" y2="48.8542" gradientUnits="userSpaceOnUse">
<stop stop-color="#FCFCFC"/>
<stop offset="0.135417" stop-color="#E9E9E9"/>
<stop offset="0.296875" stop-color="#F5F5F5"/>
<stop offset="0.427083" stop-color="#EBE6E8"/>
<stop offset="0.552083" stop-color="#F4C7CC"/>
<stop offset="0.739583" stop-color="#E8F39E"/>
<stop offset="0.864583" stop-color="#C4BFBC"/>
<stop offset="0.973958" stop-color="#E1DCDC"/>
</linearGradient>
<linearGradient id="paint4_linear_542_2980" x1="46.215" y1="5.475" x2="18.3901" y2="48.8542" gradientUnits="userSpaceOnUse">
<stop stop-color="#FCFCFC"/>
<stop offset="0.135417" stop-color="#E9E9E9"/>
<stop offset="0.296875" stop-color="#F5F5F5"/>
<stop offset="0.427083" stop-color="#EBE6E8"/>
<stop offset="0.552083" stop-color="#F4C7CC"/>
<stop offset="0.739583" stop-color="#E8F39E"/>
<stop offset="0.864583" stop-color="#C4BFBC"/>
<stop offset="0.973958" stop-color="#E1DCDC"/>
</linearGradient>
<linearGradient id="paint5_linear_542_2980" x1="46.215" y1="5.475" x2="18.3901" y2="48.8542" gradientUnits="userSpaceOnUse">
<stop stop-color="#FCFCFC"/>
<stop offset="0.135417" stop-color="#E9E9E9"/>
<stop offset="0.296875" stop-color="#F5F5F5"/>
<stop offset="0.427083" stop-color="#EBE6E8"/>
<stop offset="0.552083" stop-color="#F4C7CC"/>
<stop offset="0.739583" stop-color="#E8F39E"/>
<stop offset="0.864583" stop-color="#C4BFBC"/>
<stop offset="0.973958" stop-color="#E1DCDC"/>
</linearGradient>
<linearGradient id="paint6_linear_542_2980" x1="46.215" y1="5.475" x2="18.3901" y2="48.8542" gradientUnits="userSpaceOnUse">
<stop stop-color="#FCFCFC"/>
<stop offset="0.135417" stop-color="#E9E9E9"/>
<stop offset="0.296875" stop-color="#F5F5F5"/>
<stop offset="0.427083" stop-color="#EBE6E8"/>
<stop offset="0.552083" stop-color="#F4C7CC"/>
<stop offset="0.739583" stop-color="#E8F39E"/>
<stop offset="0.864583" stop-color="#C4BFBC"/>
<stop offset="0.973958" stop-color="#E1DCDC"/>
</linearGradient>
<linearGradient id="paint7_linear_542_2980" x1="46.215" y1="5.475" x2="18.3901" y2="48.8542" gradientUnits="userSpaceOnUse">
<stop stop-color="#FCFCFC"/>
<stop offset="0.135417" stop-color="#E9E9E9"/>
<stop offset="0.296875" stop-color="#F5F5F5"/>
<stop offset="0.427083" stop-color="#EBE6E8"/>
<stop offset="0.552083" stop-color="#F4C7CC"/>
<stop offset="0.739583" stop-color="#E8F39E"/>
<stop offset="0.864583" stop-color="#C4BFBC"/>
<stop offset="0.973958" stop-color="#E1DCDC"/>
</linearGradient>
<linearGradient id="paint8_linear_542_2980" x1="46.215" y1="5.475" x2="18.3901" y2="48.8542" gradientUnits="userSpaceOnUse">
<stop stop-color="#FCFCFC"/>
<stop offset="0.135417" stop-color="#E9E9E9"/>
<stop offset="0.296875" stop-color="#F5F5F5"/>
<stop offset="0.427083" stop-color="#EBE6E8"/>
<stop offset="0.552083" stop-color="#F4C7CC"/>
<stop offset="0.739583" stop-color="#E8F39E"/>
<stop offset="0.864583" stop-color="#C4BFBC"/>
<stop offset="0.973958" stop-color="#E1DCDC"/>
</linearGradient>
<linearGradient id="paint9_linear_542_2980" x1="46.215" y1="5.475" x2="18.3901" y2="48.8542" gradientUnits="userSpaceOnUse">
<stop stop-color="#FCFCFC"/>
<stop offset="0.135417" stop-color="#E9E9E9"/>
<stop offset="0.296875" stop-color="#F5F5F5"/>
<stop offset="0.427083" stop-color="#EBE6E8"/>
<stop offset="0.552083" stop-color="#F4C7CC"/>
<stop offset="0.739583" stop-color="#E8F39E"/>
<stop offset="0.864583" stop-color="#C4BFBC"/>
<stop offset="0.973958" stop-color="#E1DCDC"/>
</linearGradient>
<linearGradient id="paint10_linear_542_2980" x1="46.215" y1="5.475" x2="18.3901" y2="48.8542" gradientUnits="userSpaceOnUse">
<stop stop-color="#FCFCFC"/>
<stop offset="0.135417" stop-color="#E9E9E9"/>
<stop offset="0.296875" stop-color="#F5F5F5"/>
<stop offset="0.427083" stop-color="#EBE6E8"/>
<stop offset="0.552083" stop-color="#F4C7CC"/>
<stop offset="0.739583" stop-color="#E8F39E"/>
<stop offset="0.864583" stop-color="#C4BFBC"/>
<stop offset="0.973958" stop-color="#E1DCDC"/>
</linearGradient>
<linearGradient id="paint11_linear_542_2980" x1="46.215" y1="5.475" x2="18.3901" y2="48.8542" gradientUnits="userSpaceOnUse">
<stop stop-color="#FCFCFC"/>
<stop offset="0.135417" stop-color="#E9E9E9"/>
<stop offset="0.296875" stop-color="#F5F5F5"/>
<stop offset="0.427083" stop-color="#EBE6E8"/>
<stop offset="0.552083" stop-color="#F4C7CC"/>
<stop offset="0.739583" stop-color="#E8F39E"/>
<stop offset="0.864583" stop-color="#C4BFBC"/>
<stop offset="0.973958" stop-color="#E1DCDC"/>
</linearGradient>
<linearGradient id="paint12_linear_542_2980" x1="46.215" y1="5.475" x2="18.3901" y2="48.8542" gradientUnits="userSpaceOnUse">
<stop stop-color="#FCFCFC"/>
<stop offset="0.135417" stop-color="#E9E9E9"/>
<stop offset="0.296875" stop-color="#F5F5F5"/>
<stop offset="0.427083" stop-color="#EBE6E8"/>
<stop offset="0.552083" stop-color="#F4C7CC"/>
<stop offset="0.739583" stop-color="#E8F39E"/>
<stop offset="0.864583" stop-color="#C4BFBC"/>
<stop offset="0.973958" stop-color="#E1DCDC"/>
</linearGradient>
<linearGradient id="paint13_linear_542_2980" x1="46.215" y1="5.475" x2="18.3901" y2="48.8542" gradientUnits="userSpaceOnUse">
<stop stop-color="#FCFCFC"/>
<stop offset="0.135417" stop-color="#E9E9E9"/>
<stop offset="0.296875" stop-color="#F5F5F5"/>
<stop offset="0.427083" stop-color="#EBE6E8"/>
<stop offset="0.552083" stop-color="#F4C7CC"/>
<stop offset="0.739583" stop-color="#E8F39E"/>
<stop offset="0.864583" stop-color="#C4BFBC"/>
<stop offset="0.973958" stop-color="#E1DCDC"/>
</linearGradient>
<linearGradient id="paint14_linear_542_2980" x1="46.215" y1="5.475" x2="18.3901" y2="48.8542" gradientUnits="userSpaceOnUse">
<stop stop-color="#FCFCFC"/>
<stop offset="0.135417" stop-color="#E9E9E9"/>
<stop offset="0.296875" stop-color="#F5F5F5"/>
<stop offset="0.427083" stop-color="#EBE6E8"/>
<stop offset="0.552083" stop-color="#F4C7CC"/>
<stop offset="0.739583" stop-color="#E8F39E"/>
<stop offset="0.864583" stop-color="#C4BFBC"/>
<stop offset="0.973958" stop-color="#E1DCDC"/>
</linearGradient>
<linearGradient id="paint15_linear_542_2980" x1="46.215" y1="5.475" x2="18.3901" y2="48.8542" gradientUnits="userSpaceOnUse">
<stop stop-color="#FCFCFC"/>
<stop offset="0.135417" stop-color="#E9E9E9"/>
<stop offset="0.296875" stop-color="#F5F5F5"/>
<stop offset="0.427083" stop-color="#EBE6E8"/>
<stop offset="0.552083" stop-color="#F4C7CC"/>
<stop offset="0.739583" stop-color="#E8F39E"/>
<stop offset="0.864583" stop-color="#C4BFBC"/>
<stop offset="0.973958" stop-color="#E1DCDC"/>
</linearGradient>
<linearGradient id="paint16_linear_542_2980" x1="46.215" y1="5.475" x2="18.3901" y2="48.8542" gradientUnits="userSpaceOnUse">
<stop stop-color="#FCFCFC"/>
<stop offset="0.135417" stop-color="#E9E9E9"/>
<stop offset="0.296875" stop-color="#F5F5F5"/>
<stop offset="0.427083" stop-color="#EBE6E8"/>
<stop offset="0.552083" stop-color="#F4C7CC"/>
<stop offset="0.739583" stop-color="#E8F39E"/>
<stop offset="0.864583" stop-color="#C4BFBC"/>
<stop offset="0.973958" stop-color="#E1DCDC"/>
</linearGradient>
<linearGradient id="paint17_linear_542_2980" x1="46.215" y1="5.475" x2="18.3901" y2="48.8542" gradientUnits="userSpaceOnUse">
<stop stop-color="#FCFCFC"/>
<stop offset="0.135417" stop-color="#E9E9E9"/>
<stop offset="0.296875" stop-color="#F5F5F5"/>
<stop offset="0.427083" stop-color="#EBE6E8"/>
<stop offset="0.552083" stop-color="#F4C7CC"/>
<stop offset="0.739583" stop-color="#E8F39E"/>
<stop offset="0.864583" stop-color="#C4BFBC"/>
<stop offset="0.973958" stop-color="#E1DCDC"/>
</linearGradient>
<linearGradient id="paint18_linear_542_2980" x1="46.215" y1="5.475" x2="18.3901" y2="48.8542" gradientUnits="userSpaceOnUse">
<stop stop-color="#FCFCFC"/>
<stop offset="0.135417" stop-color="#E9E9E9"/>
<stop offset="0.296875" stop-color="#F5F5F5"/>
<stop offset="0.427083" stop-color="#EBE6E8"/>
<stop offset="0.552083" stop-color="#F4C7CC"/>
<stop offset="0.739583" stop-color="#E8F39E"/>
<stop offset="0.864583" stop-color="#C4BFBC"/>
<stop offset="0.973958" stop-color="#E1DCDC"/>
</linearGradient>
<linearGradient id="paint19_linear_542_2980" x1="46.215" y1="5.475" x2="18.3901" y2="48.8542" gradientUnits="userSpaceOnUse">
<stop stop-color="#FCFCFC"/>
<stop offset="0.135417" stop-color="#E9E9E9"/>
<stop offset="0.296875" stop-color="#F5F5F5"/>
<stop offset="0.427083" stop-color="#EBE6E8"/>
<stop offset="0.552083" stop-color="#F4C7CC"/>
<stop offset="0.739583" stop-color="#E8F39E"/>
<stop offset="0.864583" stop-color="#C4BFBC"/>
<stop offset="0.973958" stop-color="#E1DCDC"/>
</linearGradient>
</defs>
</svg>
