<svg width="225" height="60" viewBox="0 0 225 60" fill="none" xmlns="http://www.w3.org/2000/svg">
<path d="M176.1 34.7464C175.79 37.0109 174.394 38.9653 172.005 39.865C168.19 41.323 164.467 39.1825 162.947 35.3978C162.42 34.0949 162.234 32.7609 162.389 31.4891L148.398 37.0109C147.684 38.2518 146.568 39.2755 144.985 39.865C141.976 41.0128 139.029 39.958 137.199 37.6314L166.453 26.1223C167.383 25.75 168.221 25.6569 168.934 25.6569C171.54 25.6569 173.898 27.2391 175.201 29.7518L181.746 27.177C179.513 22.5547 174.766 19.3595 169.307 19.3595C162.668 19.3595 157.115 24.0438 155.812 30.3102C154.478 24.0748 148.956 19.3905 142.318 19.3905C137.819 19.3905 133.818 21.531 131.305 24.8814V20.135H125.286V13L117.531 16.1022V30.2792C116.383 24.2609 110.799 19.3595 104.036 19.3595C97.2737 19.3595 91.2245 24.6022 90.3558 31.396V29.7828C90.3558 23.5785 86.7883 19.1734 80.7391 19.1734C76.1168 19.1734 74.4726 21.5 73.604 22.927V20.042H66.3139V30.1861C64.9489 23.9818 59.427 19.3285 52.8193 19.3285C46.2117 19.3285 40.3796 24.2609 39.2318 30.7445C39.2007 28.4179 38.7044 26.2153 37.8047 24.2609L22.8212 30.1241L24.6515 34.8084L31.8796 31.9544C31.7865 35.2737 29.9252 38.2518 26.4197 39.5858C21.5182 41.4471 16.7409 38.8102 14.8175 34.0328C12.9252 29.2555 14.6004 24.1369 19.5018 22.2755C22.7591 21.0347 25.9544 21.7792 28.281 23.7956L35.6953 20.8796C32.7482 17.1569 28.188 14.7993 23.1004 14.7993C14.1971 14.7993 7 21.9963 7 30.8996C7 39.8029 14.1971 47 23.1004 47C31.104 47 37.7737 41.1369 38.9836 33.4745C39.1387 40.9818 45.25 47 52.7883 47C59.396 47 64.9179 42.3467 66.2829 36.1423V46.0073H74.0693C74.0693 46.0073 74.0383 31.3029 74.0693 30.9307L58.9617 36.8869C58.2792 38.1898 57.1314 39.2445 55.5182 39.865C52.4781 41.0128 49.5 39.958 47.6697 37.5693C47.6697 37.5693 76.396 26.2774 76.4891 26.2464C77.2336 25.9361 77.9471 25.8431 78.5675 25.8431C82.6314 25.8431 82.6314 30.062 82.6314 31.8613V46.0073H90.3869V34.9325C91.2555 41.7263 97.0566 46.969 104.068 46.969C110.675 46.969 116.197 42.3157 117.562 36.1423V46.0073H125.286V31.0237L110.148 36.9799C109.434 38.2518 108.318 39.2755 106.735 39.865C103.726 41.0128 100.748 39.958 98.9179 37.6314L131.212 24.9434C129.505 27.2391 128.482 30.0931 128.482 33.1953C128.482 40.8266 134.655 47 142.286 47C148.925 47 154.478 42.3157 155.781 36.0493C157.115 42.2847 162.637 46.969 169.276 46.969C175.914 46.969 181.56 42.1916 182.801 35.8631L176.1 34.7464ZM45.9325 32.823C45.8394 30.031 47.2664 27.5182 50.1515 26.4015C52.9745 25.3157 55.7664 26.1843 57.5967 28.2318L45.9325 32.823ZM97.1496 32.9161C97.0256 30.1241 98.4526 27.5493 101.369 26.4325C104.223 25.3467 107.015 26.2153 108.876 28.2938L97.1496 32.9161ZM139.588 26.4325C142.442 25.3467 145.265 26.2464 147.095 28.3248L135.369 32.9471C135.245 30.1241 136.703 27.5182 139.588 26.4325Z" fill="url(#paint0_linear_542_2973)"/>
<path d="M183.949 14.427H182.119V13.6825H186.524V14.427H184.693V19.3595H183.949V14.427Z" fill="url(#paint1_linear_542_2973)"/>
<path d="M187.299 13.6825H188.416L190.215 17.9945H190.246L192.046 13.6825H193.193V19.3595H192.418V14.7062L190.495 19.3595H189.967L188.075 14.7062H188.044V19.3595H187.299V13.6825Z" fill="url(#paint2_linear_542_2973)"/>
<defs>
<linearGradient id="paint0_linear_542_2973" x1="92.1006" y1="14.53" x2="88.2244" y2="51.9782" gradientUnits="userSpaceOnUse">
<stop stop-color="#FCFCFC"/>
<stop offset="0.135417" stop-color="#E9E9E9"/>
<stop offset="0.296875" stop-color="#F5F5F5"/>
<stop offset="0.427083" stop-color="#EBE6E8"/>
<stop offset="0.552083" stop-color="#F4C7CC"/>
<stop offset="0.739583" stop-color="#E8F39E"/>
<stop offset="0.864583" stop-color="#C4BFBC"/>
<stop offset="0.973958" stop-color="#E1DCDC"/>
</linearGradient>
<linearGradient id="paint1_linear_542_2973" x1="92.1006" y1="14.53" x2="88.2244" y2="51.9782" gradientUnits="userSpaceOnUse">
<stop stop-color="#FCFCFC"/>
<stop offset="0.135417" stop-color="#E9E9E9"/>
<stop offset="0.296875" stop-color="#F5F5F5"/>
<stop offset="0.427083" stop-color="#EBE6E8"/>
<stop offset="0.552083" stop-color="#F4C7CC"/>
<stop offset="0.739583" stop-color="#E8F39E"/>
<stop offset="0.864583" stop-color="#C4BFBC"/>
<stop offset="0.973958" stop-color="#E1DCDC"/>
</linearGradient>
<linearGradient id="paint2_linear_542_2973" x1="92.1006" y1="14.53" x2="88.2244" y2="51.9782" gradientUnits="userSpaceOnUse">
<stop stop-color="#FCFCFC"/>
<stop offset="0.135417" stop-color="#E9E9E9"/>
<stop offset="0.296875" stop-color="#F5F5F5"/>
<stop offset="0.427083" stop-color="#EBE6E8"/>
<stop offset="0.552083" stop-color="#F4C7CC"/>
<stop offset="0.739583" stop-color="#E8F39E"/>
<stop offset="0.864583" stop-color="#C4BFBC"/>
<stop offset="0.973958" stop-color="#E1DCDC"/>
</linearGradient>
</defs>
</svg>
