<svg width="250" height="60" viewBox="0 0 250 60" fill="none" xmlns="http://www.w3.org/2000/svg">
<path d="M24 48H41.1888V24.3654H36.5554V43.3959H28.6334V16.5895H49.0816V48H53.7442V12H24V48Z" fill="url(#paint0_linear_542_2983)"/>
<path d="M123.903 21.1352C121.155 18.1242 117.618 16.5895 113.466 16.5895C109.315 16.5895 105.954 18.0365 103.03 20.989C100.195 23.81 98.7332 27.2302 98.7332 31.2789C98.7332 35.3277 100.195 38.821 103.03 41.6419C105.866 44.5067 109.389 45.9683 113.466 45.9683C117.544 45.9683 121.125 44.2436 124.736 40.8234L121.842 37.8124C119.094 40.4141 116.302 41.7296 113.466 41.7296C110.631 41.7296 108.482 40.8234 106.553 39.1279C104.536 37.3447 103.381 35.2107 103.118 32.6675H128.127C128.127 27.9903 126.753 24.2192 123.917 21.1206L123.903 21.1352ZM103.381 28.4141C104.624 23.8685 108.643 20.8721 113.466 20.8721C118.29 20.8721 122.309 23.8831 123.552 28.4141H103.381Z" fill="url(#paint1_linear_542_2983)"/>
<path d="M146.178 16.5895C142.1 16.5895 138.665 18.0365 135.742 20.989C132.906 23.81 131.445 27.2302 131.445 31.2789V45.9683H135.742V31.2789C135.742 28.458 136.706 26.0024 138.709 23.9562C140.77 21.9099 143.284 20.8721 146.178 20.8721C149.072 20.8721 151.498 21.9099 153.501 23.9562C155.561 26.0024 156.614 28.5018 156.614 31.2789V45.9683H160.823V31.2789C160.823 27.2302 159.362 23.8685 156.526 20.989C153.632 18.0365 150.241 16.5895 146.178 16.5895Z" fill="url(#paint2_linear_542_2983)"/>
<path d="M189.603 21.1352C186.855 18.1242 183.318 16.5895 179.167 16.5895C175.016 16.5895 171.654 18.0365 168.731 20.989C165.895 23.81 164.434 27.2302 164.434 31.2789C164.434 35.3277 165.895 38.821 168.731 41.6419C171.566 44.5067 175.089 45.9683 179.167 45.9683C183.245 45.9683 186.826 44.2436 190.436 40.8234L187.542 37.8124C184.794 40.4141 182.002 41.7296 179.167 41.7296C176.331 41.7296 174.183 40.8234 172.253 39.1279C170.236 37.3447 169.082 35.2107 168.819 32.6675H193.827C193.827 27.9903 192.453 24.2192 189.618 21.1206L189.603 21.1352ZM169.082 28.4141C170.324 23.8685 174.343 20.8721 179.167 20.8721C183.99 20.8721 188.01 23.8831 189.252 28.4141H169.082Z" fill="url(#paint3_linear_542_2983)"/>
<path d="M222.241 21.0037C219.347 18.0512 215.956 16.6041 211.893 16.6041C207.829 16.6041 204.38 18.0512 201.457 21.0037C198.621 23.8246 197.16 27.2448 197.16 31.2935C197.16 35.3423 198.621 38.8356 201.457 41.6565C204.292 44.5213 207.815 45.9829 211.893 45.9829C215.971 45.9829 219.406 44.5359 222.329 41.6565V45.9829H226.538V31.2935C226.538 27.2448 225.077 23.8831 222.241 21.0037ZM219.216 38.704C217.199 40.7503 214.728 41.715 211.893 41.715C209.057 41.715 206.499 40.7649 204.424 38.704C202.407 36.6577 201.457 34.1583 201.457 31.2935C201.457 28.4287 202.421 26.0171 204.424 23.9708C206.485 21.9245 208.999 20.8867 211.893 20.8867C214.787 20.8867 217.213 21.9245 219.216 23.9708C221.276 26.0171 222.329 28.5164 222.329 31.2935C222.329 34.0706 221.276 36.57 219.216 38.704Z" fill="url(#paint4_linear_542_2983)"/>
<path d="M77.2619 28.3849V32.6529H91.0597C91.0597 32.7552 91.0304 32.8721 91.0012 32.9744C90.6504 35.2692 89.6273 37.1839 87.8587 38.821C85.827 40.7357 83.3715 41.6858 80.6382 41.6858C77.6857 41.6858 75.2741 40.6772 73.1985 38.6163C71.123 36.5554 70.1145 34.1291 70.1145 31.2351C70.1145 28.341 71.1376 25.9001 73.1985 23.8538C75.2594 21.8076 77.715 20.7844 80.6382 20.7844C83.3861 20.7844 85.9293 21.8806 88.3703 24.1462L89.1742 24.8624L92.0682 21.7199L91.2935 21.0037C88.1803 18.0512 84.57 16.5457 80.6382 16.5457C76.7065 16.5457 73.067 17.9927 70.1437 20.8721C67.3082 23.6931 65.8465 27.1571 65.8173 31.2058C65.7588 35.0061 67.3666 38.7771 70.2022 41.5981C72.9793 44.3605 76.7357 45.9537 80.4775 45.9537H80.6675C84.7454 45.9245 88.2387 44.4775 91.0743 41.6565C93.9391 38.7917 95.4007 35.2838 95.4007 31.2351V30.8551C95.3715 29.6857 95.1522 28.5311 95.123 28.3703H77.2473L77.2619 28.3849Z" fill="url(#paint5_linear_542_2983)"/>
<defs>
<linearGradient id="paint0_linear_542_2983" x1="116.571" y1="13.62" x2="112.574" y2="53.2931" gradientUnits="userSpaceOnUse">
<stop stop-color="#FCFCFC"/>
<stop offset="0.135417" stop-color="#E9E9E9"/>
<stop offset="0.296875" stop-color="#F5F5F5"/>
<stop offset="0.427083" stop-color="#EBE6E8"/>
<stop offset="0.552083" stop-color="#F4C7CC"/>
<stop offset="0.739583" stop-color="#E8F39E"/>
<stop offset="0.864583" stop-color="#C4BFBC"/>
<stop offset="0.973958" stop-color="#E1DCDC"/>
</linearGradient>
<linearGradient id="paint1_linear_542_2983" x1="116.571" y1="13.62" x2="112.574" y2="53.2931" gradientUnits="userSpaceOnUse">
<stop stop-color="#FCFCFC"/>
<stop offset="0.135417" stop-color="#E9E9E9"/>
<stop offset="0.296875" stop-color="#F5F5F5"/>
<stop offset="0.427083" stop-color="#EBE6E8"/>
<stop offset="0.552083" stop-color="#F4C7CC"/>
<stop offset="0.739583" stop-color="#E8F39E"/>
<stop offset="0.864583" stop-color="#C4BFBC"/>
<stop offset="0.973958" stop-color="#E1DCDC"/>
</linearGradient>
<linearGradient id="paint2_linear_542_2983" x1="116.571" y1="13.62" x2="112.574" y2="53.2931" gradientUnits="userSpaceOnUse">
<stop stop-color="#FCFCFC"/>
<stop offset="0.135417" stop-color="#E9E9E9"/>
<stop offset="0.296875" stop-color="#F5F5F5"/>
<stop offset="0.427083" stop-color="#EBE6E8"/>
<stop offset="0.552083" stop-color="#F4C7CC"/>
<stop offset="0.739583" stop-color="#E8F39E"/>
<stop offset="0.864583" stop-color="#C4BFBC"/>
<stop offset="0.973958" stop-color="#E1DCDC"/>
</linearGradient>
<linearGradient id="paint3_linear_542_2983" x1="116.571" y1="13.62" x2="112.574" y2="53.2931" gradientUnits="userSpaceOnUse">
<stop stop-color="#FCFCFC"/>
<stop offset="0.135417" stop-color="#E9E9E9"/>
<stop offset="0.296875" stop-color="#F5F5F5"/>
<stop offset="0.427083" stop-color="#EBE6E8"/>
<stop offset="0.552083" stop-color="#F4C7CC"/>
<stop offset="0.739583" stop-color="#E8F39E"/>
<stop offset="0.864583" stop-color="#C4BFBC"/>
<stop offset="0.973958" stop-color="#E1DCDC"/>
</linearGradient>
<linearGradient id="paint4_linear_542_2983" x1="116.571" y1="13.62" x2="112.574" y2="53.2931" gradientUnits="userSpaceOnUse">
<stop stop-color="#FCFCFC"/>
<stop offset="0.135417" stop-color="#E9E9E9"/>
<stop offset="0.296875" stop-color="#F5F5F5"/>
<stop offset="0.427083" stop-color="#EBE6E8"/>
<stop offset="0.552083" stop-color="#F4C7CC"/>
<stop offset="0.739583" stop-color="#E8F39E"/>
<stop offset="0.864583" stop-color="#C4BFBC"/>
<stop offset="0.973958" stop-color="#E1DCDC"/>
</linearGradient>
<linearGradient id="paint5_linear_542_2983" x1="116.571" y1="13.62" x2="112.574" y2="53.2931" gradientUnits="userSpaceOnUse">
<stop stop-color="#FCFCFC"/>
<stop offset="0.135417" stop-color="#E9E9E9"/>
<stop offset="0.296875" stop-color="#F5F5F5"/>
<stop offset="0.427083" stop-color="#EBE6E8"/>
<stop offset="0.552083" stop-color="#F4C7CC"/>
<stop offset="0.739583" stop-color="#E8F39E"/>
<stop offset="0.864583" stop-color="#C4BFBC"/>
<stop offset="0.973958" stop-color="#E1DCDC"/>
</linearGradient>
</defs>
</svg>
