<svg width="160" height="60" viewBox="0 0 160 60" fill="none" xmlns="http://www.w3.org/2000/svg">
<path d="M85.5411 35.7253C85.2765 36.3069 84.916 36.8396 84.4747 37.3008C84.0286 37.7589 83.493 38.1195 82.9014 38.3599C82.2882 38.6142 81.6312 38.7448 80.9677 38.7442C80.2912 38.7473 79.6206 38.6167 78.9942 38.3599C78.4053 38.1146 77.8706 37.7546 77.4209 37.3008C76.9762 36.8479 76.6229 36.3129 76.3807 35.7253C76.1224 35.1046 75.991 34.4381 75.9942 33.7655C75.9904 33.1171 76.1269 32.4757 76.3944 31.8855C76.6663 31.3198 77.0268 30.8014 77.4619 30.3499C77.9082 29.892 78.4438 29.5315 79.0352 29.2908C80.274 28.7792 81.6639 28.7792 82.9026 29.2908C83.4915 29.5363 84.0263 29.8963 84.476 30.3499C84.9212 30.8027 85.2823 31.3316 85.5423 31.9118C85.8112 32.5063 85.9478 33.1525 85.9425 33.8054C85.9449 34.4664 85.8073 35.1206 85.5411 35.7253ZM92.5191 22.3536H85.9425V25.4112C85.1504 24.4086 84.1337 23.6079 82.9751 23.0742C81.8165 22.5405 80.5488 22.2889 79.2751 22.3399L65.7291 22.3536V6.66542H54.6475V22.3536H38.0816V6.66542H27V45.337H38.0816V31.3167H54.6301L54.6438 45.337H65.7254V31.3167H68.5079C68.3368 32.1661 68.2535 33.0311 68.2594 33.8977C68.2514 35.4198 68.5319 36.9294 69.0858 38.3462C69.6088 39.6974 70.3879 40.9341 71.3799 41.9876C72.3611 43.0281 73.5401 43.8607 74.8471 44.4364C76.2127 45.0369 77.6898 45.3392 79.1806 45.3233C80.4383 45.3594 81.6897 45.1308 82.854 44.6521C84.0184 44.1734 85.07 43.4553 85.9412 42.5439V55H93.6885V23.5163C93.6877 23.3628 93.6568 23.211 93.5975 23.0695C93.5382 22.928 93.4518 22.7996 93.3431 22.6916C93.2344 22.5836 93.1056 22.4982 92.964 22.4402C92.8224 22.3822 92.6707 22.3528 92.5178 22.3536" fill="url(#paint0_linear_542_2981)"/>
<path d="M110.969 36.2468C108.955 36.2253 106.992 35.6063 105.328 34.4675C103.664 33.3287 102.372 31.7211 101.617 29.8471C100.861 27.9732 100.674 25.9166 101.08 23.9363C101.486 21.9561 102.467 20.1407 103.898 18.7187C105.33 17.2968 107.149 16.3317 109.126 15.9453C111.103 15.5588 113.15 15.7681 115.008 16.5468C116.867 17.3256 118.455 18.6389 119.571 20.3215C120.688 22.0041 121.284 23.9808 121.284 26.0025C121.269 28.7339 120.174 31.3473 118.239 33.2683C116.305 35.1894 113.69 36.2607 110.969 36.2468ZM110.969 5.00011C106.462 4.98528 102.068 6.41699 98.4294 9.0863C94.7905 11.7556 92.097 15.5227 90.742 19.8375H93.5581C94.2606 19.8342 94.9357 20.1108 95.4352 20.6066C95.9348 21.1024 96.2178 21.777 96.2224 22.4822V41.0545C98.6728 43.5126 101.69 45.3251 105.006 46.3311C108.322 47.3372 111.835 47.5056 115.231 46.8213C118.628 46.1371 121.803 44.6215 124.476 42.409C127.149 40.1966 129.236 37.3558 130.552 34.139C131.867 30.9222 132.371 27.4291 132.019 23.9697C131.667 20.5103 130.468 17.1919 128.531 14.3091C126.594 11.4263 123.977 9.06842 120.913 7.44488C117.85 5.82135 114.434 4.9824 110.97 5.00255" fill="url(#paint1_linear_542_2981)"/>
<defs>
<linearGradient id="paint0_linear_542_2981" x1="75.0494" y1="7.25" x2="61.0601" y2="59.1394" gradientUnits="userSpaceOnUse">
<stop stop-color="#FCFCFC"/>
<stop offset="0.135417" stop-color="#E9E9E9"/>
<stop offset="0.296875" stop-color="#F5F5F5"/>
<stop offset="0.427083" stop-color="#EBE6E8"/>
<stop offset="0.552083" stop-color="#F4C7CC"/>
<stop offset="0.739583" stop-color="#E8F39E"/>
<stop offset="0.864583" stop-color="#C4BFBC"/>
<stop offset="0.973958" stop-color="#E1DCDC"/>
</linearGradient>
<linearGradient id="paint1_linear_542_2981" x1="75.0494" y1="7.25" x2="61.0601" y2="59.1394" gradientUnits="userSpaceOnUse">
<stop stop-color="#FCFCFC"/>
<stop offset="0.135417" stop-color="#E9E9E9"/>
<stop offset="0.296875" stop-color="#F5F5F5"/>
<stop offset="0.427083" stop-color="#EBE6E8"/>
<stop offset="0.552083" stop-color="#F4C7CC"/>
<stop offset="0.739583" stop-color="#E8F39E"/>
<stop offset="0.864583" stop-color="#C4BFBC"/>
<stop offset="0.973958" stop-color="#E1DCDC"/>
</linearGradient>
</defs>
</svg>
