<svg width="225" height="60" viewBox="0 0 225 60" fill="none" xmlns="http://www.w3.org/2000/svg">
<path d="M57.0905 51V41.904H192.715V51H57.0905ZM188.344 49.4497C188.039 47.5501 188.134 45.7127 188.268 43.8466H186.63V47.775C186.63 47.775 186.582 47.7798 186.558 47.7606C184.882 46.507 183.206 45.2534 181.53 43.9997C181.445 43.9328 181.349 43.8275 181.259 43.8227C180.573 43.8083 179.883 43.8131 179.197 43.8131C179.43 44.0524 179.697 44.1672 179.911 44.3443C180.083 44.4878 180.302 44.7079 180.297 44.8945C180.297 46.3922 180.24 47.8898 180.207 49.4162H181.878C181.802 48.1865 181.73 46.9759 181.654 45.7654C181.716 45.7414 181.778 45.7175 181.84 45.6984C183.378 46.8754 184.916 48.0573 186.454 49.2296C186.577 49.3253 186.735 49.4306 186.882 49.4353C187.373 49.4593 187.868 49.4449 188.349 49.4449L188.344 49.4497ZM78.3597 43.7174C77.0075 43.7796 75.6695 43.9232 74.4649 44.617C73.7031 45.0524 72.9841 45.5835 72.9651 46.5549C72.946 47.5645 73.6078 48.2152 74.4363 48.6363C76.8694 49.8708 79.3311 49.8277 81.7642 48.6458C82.5831 48.2487 83.1783 47.5884 83.164 46.5884C83.1497 45.5787 82.526 44.9567 81.7118 44.4926C80.6738 43.8993 79.5215 43.7844 78.3645 43.7174H78.3597ZM114.013 43.593C114.004 43.6313 113.994 43.6696 113.985 43.7079C113.551 43.7461 113.113 43.7701 112.68 43.8275C111.556 43.9806 110.48 44.2821 109.58 45.0094C108.352 45.9998 108.328 47.1338 109.499 48.1913C109.628 48.3061 109.761 48.4114 109.904 48.5023C110.933 49.1961 112.099 49.4401 113.304 49.4928C114.88 49.5598 116.423 49.3731 117.77 48.4592C119.227 47.4736 119.241 45.7989 117.822 44.7605C117.565 44.5691 117.28 44.373 116.98 44.2916C115.999 44.0285 114.999 43.8227 114.009 43.593H114.013ZM170.008 49.5167C171.465 49.5215 172.941 49.1578 173.879 48.5597C175.469 47.5453 175.54 45.7989 174.031 44.7223C173.817 44.5691 173.583 44.4208 173.341 44.3251C171.027 43.4351 168.732 43.5021 166.503 44.5787C165.675 44.9806 164.899 45.5548 164.922 46.6266C164.946 47.6937 165.703 48.2726 166.541 48.7368C167.617 49.3301 168.803 49.4784 170.003 49.5167H170.008ZM123.731 43.7222C123.731 44.8036 123.741 45.7127 123.731 46.6218C123.717 47.5501 123.679 48.4736 123.65 49.4162H125.384C125.345 48.6124 125.307 47.842 125.269 47.0142C126.412 47.7654 127.45 48.4305 128.474 49.1243C129.074 49.531 129.712 49.4593 130.445 49.4162C129.369 48.5836 128.369 47.8133 127.341 47.0142C127.807 46.7654 128.212 46.5979 128.564 46.3539C129.345 45.8132 129.34 45.0333 128.545 44.5022C128.25 44.306 127.907 44.1002 127.569 44.0619C126.255 43.9088 124.936 43.8227 123.736 43.7174L123.731 43.7222ZM87.8731 49.4114H89.6824C89.63 48.598 89.5777 47.8228 89.5158 46.9137C89.8253 47.1338 89.9919 47.2582 90.1633 47.3683C91.0966 47.9903 92.0298 48.6124 92.963 49.2296C93.5106 49.5885 94.101 49.421 94.7629 49.4353C93.6725 48.5884 92.6773 47.8181 91.606 46.9903C91.9203 46.8515 92.0965 46.7797 92.2631 46.6984C92.8154 46.4257 93.4297 46.1481 93.4201 45.4256C93.4058 44.6792 92.7773 44.4112 92.1917 44.1529C92.1393 44.1289 92.0869 44.1098 92.0298 44.0907C90.6633 43.6361 89.2634 43.8562 87.9016 43.8131C88.1492 45.7032 88.1588 47.5166 87.8731 49.4019V49.4114ZM135.511 49.4401C136.044 48.1626 136.249 47.5501 137.773 47.7176C138.149 47.7606 138.544 47.7894 138.911 47.7128C139.92 47.5071 140.339 48.1674 140.725 48.8899C140.811 49.0526 140.849 49.2392 140.906 49.421H143.053C141.511 47.5501 139.954 45.6649 138.363 43.7366C136.663 45.6553 134.992 47.5453 133.311 49.4449H135.511V49.4401ZM68.6845 44.861C68.8559 43.9854 68.794 43.8418 67.9894 43.8323C66.8181 43.8179 65.6372 43.8179 64.4754 43.9615C63.4136 44.0907 62.4185 44.5213 61.6281 45.2917C60.6853 46.2104 60.6711 47.3683 61.6567 48.2391C62.0757 48.6076 62.5947 48.909 63.1184 49.0908C64.7945 49.6746 66.5133 49.6315 68.2322 49.2487C68.975 49.0861 69.0274 48.9856 68.8845 48.1769C67.5894 48.7176 66.2467 48.9377 64.8754 48.6171C64.2802 48.4784 63.666 48.2343 63.1851 47.8707C62.2757 47.1817 62.3376 46.0285 63.2613 45.3491C64.3516 44.5452 65.6134 44.4304 66.9085 44.5596C67.5085 44.617 68.0941 44.7605 68.6893 44.861H68.6845ZM101.362 49.421C101.248 48.6076 101.143 47.8181 101.029 46.9951C101.353 46.9951 101.529 47.0238 101.691 46.9903C102.462 46.818 103.281 46.751 103.981 46.4209C104.924 45.9807 104.89 44.9328 104.005 44.373C103.8 44.2438 103.567 44.1385 103.333 44.0619C102.005 43.6361 100.643 43.8753 99.3481 43.8179C99.7005 45.7366 99.7766 47.574 99.2005 49.4258H101.353L101.362 49.421ZM148.976 49.4162H150.724V44.3921C151.267 44.4543 151.814 44.483 152.352 44.5787C153.238 44.7414 153.243 44.7558 153.757 43.8179H153.181C151.2 43.8179 149.224 43.8179 147.243 43.8179C146.396 43.8179 146.377 43.8323 146.096 44.7558C147.072 44.6266 148.038 44.5022 148.981 44.3778V49.421L148.976 49.4162ZM160.294 49.4353C159.904 47.9999 159.894 45.2342 160.266 43.8418H158.233C158.595 45.7175 158.59 47.5693 158.204 49.4353H160.294Z" fill="url(#paint0_linear_542_2977)"/>
<path d="M69.5321 11.1373H70.2177C73.584 11.1373 76.9551 11.1469 80.3215 11.1277C80.7547 11.1277 81.0214 11.2522 81.2499 11.611C83.3926 14.9269 85.5495 18.2333 87.7017 21.5444C87.8255 21.7358 87.9445 21.9272 88.1016 22.1712C88.2587 21.9367 88.3825 21.7549 88.5016 21.5731C90.5633 18.5012 92.6393 15.4389 94.6724 12.3479C95.2866 11.4148 96.0103 11.0368 97.1578 11.0943C99.1862 11.2043 101.229 11.123 103.267 11.123C103.471 11.123 103.676 11.123 103.948 11.123C103.948 11.4053 103.948 11.6302 103.948 11.8503C103.948 18.2524 103.971 24.6546 103.948 31.0519C103.938 34.296 104.376 36.2626 106.362 38.7364H93.3201C93.382 38.6359 93.4249 38.5259 93.5011 38.435C94.8628 36.7842 95.558 34.8559 95.5913 32.7362C95.6485 29.0279 95.6151 25.3244 95.6199 21.6162C95.6199 21.5683 95.5961 21.5157 95.5532 21.3578C93.0583 25.2287 90.6109 29.0327 88.1159 32.8989C85.5638 29.0518 83.0498 25.267 80.4405 21.3339C80.4214 21.7023 80.4024 21.9033 80.4024 22.0994C80.4024 25.5015 80.4214 28.9035 80.3929 32.3055C80.3738 34.6118 81.0547 36.6598 82.4641 38.4732C82.5212 38.545 82.5688 38.6216 82.6593 38.7555H70.8843C72.0604 37.0426 72.0747 35.1143 72.0842 33.2099C72.1175 26.9609 72.1032 20.7118 72.089 14.4628C72.089 14.2092 71.9652 13.903 71.7985 13.7068C71.0938 12.8647 70.351 12.0608 69.5273 11.1325L69.5321 11.1373Z" fill="url(#paint1_linear_542_2977)"/>
<path d="M172.784 38.7603H161.289C161.299 38.6838 161.289 38.6024 161.323 38.545C162.556 36.2291 162.999 33.7362 162.999 31.1428C162.999 25.8699 163.008 20.597 162.985 15.3241C162.985 14.9413 162.832 14.4915 162.604 14.1853C162.08 13.4867 161.466 12.8551 160.89 12.1948C160.613 11.8838 160.337 11.5727 159.999 11.1947C160.223 11.1708 160.361 11.1421 160.499 11.1421C163.751 11.1421 167.008 11.1373 170.26 11.1517C170.469 11.1517 170.765 11.2426 170.879 11.3957C173.85 15.5059 176.793 19.6352 179.759 23.755C180.816 25.2239 181.911 26.669 182.987 28.1284C183.083 28.2576 183.197 28.3772 183.368 28.5829C183.387 28.382 183.402 28.2958 183.402 28.2097C183.373 24.3531 183.363 20.4917 183.306 16.6351C183.278 14.8025 182.944 13.0273 181.997 11.4196C181.959 11.3574 181.949 11.2856 181.911 11.1756H192.405C192.377 11.2713 192.363 11.367 192.32 11.4435C191.377 13.2235 191.058 15.1422 191.063 17.1375C191.077 22.0659 191.063 26.9943 191.067 31.9275C191.067 33.4204 191.148 34.9181 191.644 36.3344C191.934 37.167 192.372 37.9517 192.767 38.8034C192.591 38.8034 192.41 38.8034 192.224 38.8034C189.239 38.8034 186.249 38.7938 183.263 38.813C182.821 38.813 182.554 38.679 182.283 38.3153C178.526 33.2195 174.745 28.1379 170.974 23.0564C170.931 22.999 170.874 22.9464 170.779 22.8411C170.746 22.9894 170.708 23.0899 170.708 23.1904C170.712 26.0182 170.669 28.8461 170.746 31.6739C170.817 34.1286 171.365 36.4779 172.731 38.5737C172.76 38.6168 172.76 38.6742 172.784 38.7699V38.7603Z" fill="url(#paint2_linear_542_2977)"/>
<path d="M161.48 26.3293H150.552C150.133 24.822 149.462 23.444 148.443 22.2525C146.181 19.6065 143.244 18.1328 139.901 17.4485C134.278 16.2906 129.321 17.8505 124.955 21.4296C123.622 22.5205 122.479 23.8507 121.255 25.0708C121.098 25.2287 120.96 25.4058 120.713 25.5206C120.77 25.3531 120.817 25.1761 120.894 25.0134C124.427 17.1327 130.426 12.4866 138.963 11.2569C144.405 10.477 149.529 11.4531 154.195 14.4532C157.185 16.372 159.494 18.8984 160.756 22.2908C161.232 23.5684 161.451 24.8986 161.48 26.334V26.3293Z" fill="url(#paint3_linear_542_2977)"/>
<path d="M57.1286 38.7508C57.1809 38.6311 57.2047 38.5594 57.2428 38.5019C58.6808 36.4062 59.1617 34.0329 59.176 31.5495C59.1998 26.7551 59.1998 21.9607 59.1807 17.1662C59.1712 15.0848 58.5808 13.1757 57.2571 11.5392C57.1762 11.4435 57.1143 11.3335 57 11.1708H69.313C69.2845 11.2569 69.2797 11.3144 69.2511 11.3574C67.8084 13.4436 67.4561 15.8073 67.4656 18.2763C67.4799 22.6306 67.4894 26.9848 67.4656 31.3438C67.4513 33.6836 67.9322 35.8846 69.0654 37.9373C69.194 38.1718 69.3083 38.411 69.4273 38.6503C69.4321 38.6646 69.4273 38.6885 69.4178 38.7508H57.1286Z" fill="url(#paint4_linear_542_2977)"/>
<path d="M106.89 26.0565C108.081 25.6163 109.252 25.3005 110.309 24.7598C111.242 24.2861 112.185 23.6928 112.89 22.932C115.08 20.5731 114.328 17.2476 111.399 16.0466C110.79 15.7978 110.137 15.6112 109.485 15.5107C108.476 15.3576 107.447 15.3001 106.371 15.1997V11.2139C106.4 11.1947 106.428 11.1565 106.462 11.1565C109.504 11.1038 112.552 10.9842 115.485 12.0656C117.184 12.6924 118.679 13.6111 119.941 14.9556C122.222 17.3816 122.089 23.1712 118.441 25.0708C117.703 25.4584 116.994 25.9082 116.213 26.3627C118.86 30.9419 122.57 34.6501 125.941 38.7316C125.745 38.7603 125.612 38.7938 125.474 38.7938C123.117 38.7938 120.755 38.8082 118.399 38.7795C118.113 38.7795 117.78 38.6168 117.556 38.4254C114.547 35.8942 112.08 32.8606 109.704 29.7504C108.771 28.5255 107.842 27.2958 106.895 26.0517L106.89 26.0565Z" fill="url(#paint5_linear_542_2977)"/>
<path d="M155.961 27.535C156.271 31.0806 155.347 34.1142 152.462 36.3153C148.372 39.4398 142.334 39.7221 137.639 36.6454C137.597 36.6167 137.573 36.5689 137.473 36.4492C138.216 36.6071 138.868 36.7746 139.53 36.8799C142.439 37.3488 145.177 36.9516 147.596 35.1382C149.376 33.8032 150.2 31.9084 150.529 29.7648C150.638 29.0518 150.633 28.3245 150.686 27.535H155.961Z" fill="url(#paint6_linear_542_2977)"/>
<path d="M132.05 24.511C132.221 25.1091 132.354 25.7168 132.564 26.3005C134.083 30.5591 138.078 33.0281 142.544 32.5209C144.32 32.3199 145.962 31.8271 147.338 30.6261C148.238 29.8413 148.795 28.8413 149.191 27.7121C149.419 28.7935 149.314 29.8509 148.953 30.8749C147.981 33.6357 145.915 35.1525 143.172 35.7746C137.935 36.9708 133.154 33.7554 132.169 28.3724C131.94 27.114 131.931 25.8125 131.821 24.5349C131.892 24.5254 131.969 24.5206 132.04 24.511H132.05Z" fill="url(#paint7_linear_542_2977)"/>
<path d="M133.211 24.3483H137.144C137.42 26.4967 138.182 28.3532 140.12 29.5016C141.953 30.5878 143.967 30.6452 146.062 30.4394C144.505 31.5495 141.282 31.9658 138.854 31.071C136.035 30.0327 133.664 27.2527 133.211 24.3531V24.3483Z" fill="url(#paint8_linear_542_2977)"/>
<path d="M78.4312 48.8229C77.4217 48.775 76.4218 48.598 75.5505 47.9712C74.303 47.0668 74.3697 45.6936 75.6981 44.9184C77.2265 44.0237 79.7406 44.3251 80.969 45.5405C81.8499 46.4113 81.7737 47.4305 80.7738 48.1626C80.0834 48.6698 79.2787 48.7846 78.4264 48.8229H78.4312Z" fill="url(#paint9_linear_542_2977)"/>
<path d="M113.156 44.3682C114.599 44.4639 115.613 44.6648 116.47 45.3539C117.618 46.2773 117.542 47.531 116.289 48.2965C114.875 49.1578 112.247 48.909 111.023 47.7941C110.066 46.9233 110.109 45.7175 111.228 45.0668C111.913 44.6696 112.732 44.5165 113.161 44.3682H113.156Z" fill="url(#paint10_linear_542_2977)"/>
<path d="M170.812 48.8468C169.303 48.7655 168.222 48.5884 167.336 47.8324C166.289 46.9377 166.389 45.7271 167.551 44.9854C169.036 44.0428 171.603 44.2868 172.879 45.4974C173.826 46.397 173.764 47.5645 172.626 48.2104C171.974 48.5836 171.188 48.7224 170.808 48.8516L170.812 48.8468Z" fill="url(#paint11_linear_542_2977)"/>
<path d="M125.331 44.2629C125.964 44.4543 126.564 44.5596 127.088 44.818C127.783 45.1625 127.764 45.8706 127.055 46.2056C126.536 46.4496 125.95 46.5644 125.331 46.7558V44.2629Z" fill="url(#paint12_linear_542_2977)"/>
<path d="M89.5919 44.2486C90.249 44.4495 90.849 44.55 91.3727 44.8132C92.0726 45.1625 92.0536 45.8706 91.3442 46.2008C90.8109 46.4496 90.2157 46.5692 89.5872 46.7606V44.2486H89.5919Z" fill="url(#paint13_linear_542_2977)"/>
<path d="M138.306 45.5931C138.668 46.0764 138.968 46.4831 139.32 46.9616H137.187C137.573 46.4879 137.916 46.0716 138.301 45.5931L138.306 45.5931Z" fill="url(#paint14_linear_542_2977)"/>
<path d="M101.105 46.6601C101.105 45.8898 101.086 45.2438 101.124 44.6074C101.129 44.4878 101.391 44.2773 101.505 44.2964C101.848 44.349 102.248 44.4112 102.5 44.6218C102.757 44.8323 103.024 45.239 103 45.5309C102.972 45.8228 102.629 46.1577 102.338 46.3252C102.014 46.5166 101.595 46.5405 101.11 46.6601H101.105Z" fill="url(#paint15_linear_542_2977)"/>
<defs>
<linearGradient id="paint0_linear_542_2977" x1="119.053" y1="12.8" x2="111.818" y2="56.1205" gradientUnits="userSpaceOnUse">
<stop stop-color="#FCFCFC"/>
<stop offset="0.135417" stop-color="#E9E9E9"/>
<stop offset="0.296875" stop-color="#F5F5F5"/>
<stop offset="0.427083" stop-color="#EBE6E8"/>
<stop offset="0.552083" stop-color="#F4C7CC"/>
<stop offset="0.739583" stop-color="#E8F39E"/>
<stop offset="0.864583" stop-color="#C4BFBC"/>
<stop offset="0.973958" stop-color="#E1DCDC"/>
</linearGradient>
<linearGradient id="paint1_linear_542_2977" x1="119.053" y1="12.8" x2="111.818" y2="56.1205" gradientUnits="userSpaceOnUse">
<stop stop-color="#FCFCFC"/>
<stop offset="0.135417" stop-color="#E9E9E9"/>
<stop offset="0.296875" stop-color="#F5F5F5"/>
<stop offset="0.427083" stop-color="#EBE6E8"/>
<stop offset="0.552083" stop-color="#F4C7CC"/>
<stop offset="0.739583" stop-color="#E8F39E"/>
<stop offset="0.864583" stop-color="#C4BFBC"/>
<stop offset="0.973958" stop-color="#E1DCDC"/>
</linearGradient>
<linearGradient id="paint2_linear_542_2977" x1="119.053" y1="12.8" x2="111.818" y2="56.1205" gradientUnits="userSpaceOnUse">
<stop stop-color="#FCFCFC"/>
<stop offset="0.135417" stop-color="#E9E9E9"/>
<stop offset="0.296875" stop-color="#F5F5F5"/>
<stop offset="0.427083" stop-color="#EBE6E8"/>
<stop offset="0.552083" stop-color="#F4C7CC"/>
<stop offset="0.739583" stop-color="#E8F39E"/>
<stop offset="0.864583" stop-color="#C4BFBC"/>
<stop offset="0.973958" stop-color="#E1DCDC"/>
</linearGradient>
<linearGradient id="paint3_linear_542_2977" x1="119.053" y1="12.8" x2="111.818" y2="56.1205" gradientUnits="userSpaceOnUse">
<stop stop-color="#FCFCFC"/>
<stop offset="0.135417" stop-color="#E9E9E9"/>
<stop offset="0.296875" stop-color="#F5F5F5"/>
<stop offset="0.427083" stop-color="#EBE6E8"/>
<stop offset="0.552083" stop-color="#F4C7CC"/>
<stop offset="0.739583" stop-color="#E8F39E"/>
<stop offset="0.864583" stop-color="#C4BFBC"/>
<stop offset="0.973958" stop-color="#E1DCDC"/>
</linearGradient>
<linearGradient id="paint4_linear_542_2977" x1="119.053" y1="12.8" x2="111.818" y2="56.1205" gradientUnits="userSpaceOnUse">
<stop stop-color="#FCFCFC"/>
<stop offset="0.135417" stop-color="#E9E9E9"/>
<stop offset="0.296875" stop-color="#F5F5F5"/>
<stop offset="0.427083" stop-color="#EBE6E8"/>
<stop offset="0.552083" stop-color="#F4C7CC"/>
<stop offset="0.739583" stop-color="#E8F39E"/>
<stop offset="0.864583" stop-color="#C4BFBC"/>
<stop offset="0.973958" stop-color="#E1DCDC"/>
</linearGradient>
<linearGradient id="paint5_linear_542_2977" x1="119.053" y1="12.8" x2="111.818" y2="56.1205" gradientUnits="userSpaceOnUse">
<stop stop-color="#FCFCFC"/>
<stop offset="0.135417" stop-color="#E9E9E9"/>
<stop offset="0.296875" stop-color="#F5F5F5"/>
<stop offset="0.427083" stop-color="#EBE6E8"/>
<stop offset="0.552083" stop-color="#F4C7CC"/>
<stop offset="0.739583" stop-color="#E8F39E"/>
<stop offset="0.864583" stop-color="#C4BFBC"/>
<stop offset="0.973958" stop-color="#E1DCDC"/>
</linearGradient>
<linearGradient id="paint6_linear_542_2977" x1="119.053" y1="12.8" x2="111.818" y2="56.1205" gradientUnits="userSpaceOnUse">
<stop stop-color="#FCFCFC"/>
<stop offset="0.135417" stop-color="#E9E9E9"/>
<stop offset="0.296875" stop-color="#F5F5F5"/>
<stop offset="0.427083" stop-color="#EBE6E8"/>
<stop offset="0.552083" stop-color="#F4C7CC"/>
<stop offset="0.739583" stop-color="#E8F39E"/>
<stop offset="0.864583" stop-color="#C4BFBC"/>
<stop offset="0.973958" stop-color="#E1DCDC"/>
</linearGradient>
<linearGradient id="paint7_linear_542_2977" x1="119.053" y1="12.8" x2="111.818" y2="56.1205" gradientUnits="userSpaceOnUse">
<stop stop-color="#FCFCFC"/>
<stop offset="0.135417" stop-color="#E9E9E9"/>
<stop offset="0.296875" stop-color="#F5F5F5"/>
<stop offset="0.427083" stop-color="#EBE6E8"/>
<stop offset="0.552083" stop-color="#F4C7CC"/>
<stop offset="0.739583" stop-color="#E8F39E"/>
<stop offset="0.864583" stop-color="#C4BFBC"/>
<stop offset="0.973958" stop-color="#E1DCDC"/>
</linearGradient>
<linearGradient id="paint8_linear_542_2977" x1="119.053" y1="12.8" x2="111.818" y2="56.1205" gradientUnits="userSpaceOnUse">
<stop stop-color="#FCFCFC"/>
<stop offset="0.135417" stop-color="#E9E9E9"/>
<stop offset="0.296875" stop-color="#F5F5F5"/>
<stop offset="0.427083" stop-color="#EBE6E8"/>
<stop offset="0.552083" stop-color="#F4C7CC"/>
<stop offset="0.739583" stop-color="#E8F39E"/>
<stop offset="0.864583" stop-color="#C4BFBC"/>
<stop offset="0.973958" stop-color="#E1DCDC"/>
</linearGradient>
<linearGradient id="paint9_linear_542_2977" x1="119.053" y1="12.8" x2="111.818" y2="56.1205" gradientUnits="userSpaceOnUse">
<stop stop-color="#FCFCFC"/>
<stop offset="0.135417" stop-color="#E9E9E9"/>
<stop offset="0.296875" stop-color="#F5F5F5"/>
<stop offset="0.427083" stop-color="#EBE6E8"/>
<stop offset="0.552083" stop-color="#F4C7CC"/>
<stop offset="0.739583" stop-color="#E8F39E"/>
<stop offset="0.864583" stop-color="#C4BFBC"/>
<stop offset="0.973958" stop-color="#E1DCDC"/>
</linearGradient>
<linearGradient id="paint10_linear_542_2977" x1="119.053" y1="12.8" x2="111.818" y2="56.1205" gradientUnits="userSpaceOnUse">
<stop stop-color="#FCFCFC"/>
<stop offset="0.135417" stop-color="#E9E9E9"/>
<stop offset="0.296875" stop-color="#F5F5F5"/>
<stop offset="0.427083" stop-color="#EBE6E8"/>
<stop offset="0.552083" stop-color="#F4C7CC"/>
<stop offset="0.739583" stop-color="#E8F39E"/>
<stop offset="0.864583" stop-color="#C4BFBC"/>
<stop offset="0.973958" stop-color="#E1DCDC"/>
</linearGradient>
<linearGradient id="paint11_linear_542_2977" x1="119.053" y1="12.8" x2="111.818" y2="56.1205" gradientUnits="userSpaceOnUse">
<stop stop-color="#FCFCFC"/>
<stop offset="0.135417" stop-color="#E9E9E9"/>
<stop offset="0.296875" stop-color="#F5F5F5"/>
<stop offset="0.427083" stop-color="#EBE6E8"/>
<stop offset="0.552083" stop-color="#F4C7CC"/>
<stop offset="0.739583" stop-color="#E8F39E"/>
<stop offset="0.864583" stop-color="#C4BFBC"/>
<stop offset="0.973958" stop-color="#E1DCDC"/>
</linearGradient>
<linearGradient id="paint12_linear_542_2977" x1="119.053" y1="12.8" x2="111.818" y2="56.1205" gradientUnits="userSpaceOnUse">
<stop stop-color="#FCFCFC"/>
<stop offset="0.135417" stop-color="#E9E9E9"/>
<stop offset="0.296875" stop-color="#F5F5F5"/>
<stop offset="0.427083" stop-color="#EBE6E8"/>
<stop offset="0.552083" stop-color="#F4C7CC"/>
<stop offset="0.739583" stop-color="#E8F39E"/>
<stop offset="0.864583" stop-color="#C4BFBC"/>
<stop offset="0.973958" stop-color="#E1DCDC"/>
</linearGradient>
<linearGradient id="paint13_linear_542_2977" x1="119.053" y1="12.8" x2="111.818" y2="56.1205" gradientUnits="userSpaceOnUse">
<stop stop-color="#FCFCFC"/>
<stop offset="0.135417" stop-color="#E9E9E9"/>
<stop offset="0.296875" stop-color="#F5F5F5"/>
<stop offset="0.427083" stop-color="#EBE6E8"/>
<stop offset="0.552083" stop-color="#F4C7CC"/>
<stop offset="0.739583" stop-color="#E8F39E"/>
<stop offset="0.864583" stop-color="#C4BFBC"/>
<stop offset="0.973958" stop-color="#E1DCDC"/>
</linearGradient>
<linearGradient id="paint14_linear_542_2977" x1="119.053" y1="12.8" x2="111.818" y2="56.1205" gradientUnits="userSpaceOnUse">
<stop stop-color="#FCFCFC"/>
<stop offset="0.135417" stop-color="#E9E9E9"/>
<stop offset="0.296875" stop-color="#F5F5F5"/>
<stop offset="0.427083" stop-color="#EBE6E8"/>
<stop offset="0.552083" stop-color="#F4C7CC"/>
<stop offset="0.739583" stop-color="#E8F39E"/>
<stop offset="0.864583" stop-color="#C4BFBC"/>
<stop offset="0.973958" stop-color="#E1DCDC"/>
</linearGradient>
<linearGradient id="paint15_linear_542_2977" x1="119.053" y1="12.8" x2="111.818" y2="56.1205" gradientUnits="userSpaceOnUse">
<stop stop-color="#FCFCFC"/>
<stop offset="0.135417" stop-color="#E9E9E9"/>
<stop offset="0.296875" stop-color="#F5F5F5"/>
<stop offset="0.427083" stop-color="#EBE6E8"/>
<stop offset="0.552083" stop-color="#F4C7CC"/>
<stop offset="0.739583" stop-color="#E8F39E"/>
<stop offset="0.864583" stop-color="#C4BFBC"/>
<stop offset="0.973958" stop-color="#E1DCDC"/>
</linearGradient>
</defs>
</svg>
