<svg width="190" height="60" viewBox="0 0 190 60" fill="none" xmlns="http://www.w3.org/2000/svg">
<path d="M24.9397 15.5946C27.4949 15.5794 29.9971 16.2999 32.1505 17.6649V21.8664C30.7099 19.7429 28.3897 18.3854 25.842 18.1655C24.8259 18.1124 23.8326 18.4916 23.0971 19.2045C22.4375 19.8567 22.0659 20.744 22.0659 21.6692C22.2403 23.2694 23.2185 24.6648 24.6591 25.3701L29.1327 28.4036C31.8472 29.9128 33.5988 32.7112 33.7656 35.813C33.9248 38.1943 32.9315 40.5074 31.0966 42.0317C29.0418 43.6774 26.4561 44.5116 23.8251 44.3675C21.103 44.4509 18.4036 43.8139 16 42.5171V38.2019C17.8349 40.3178 20.413 41.6449 23.1957 41.9028C24.4316 41.9331 25.6221 41.4857 26.5244 40.6439C27.3812 39.8703 27.8589 38.7631 27.8513 37.6103C27.8513 35.8509 26.676 34.2431 24.3027 32.8174L20.6253 30.5953C17.797 29.1165 16.0076 26.1816 16.0076 22.9812C15.9393 20.9487 16.7962 18.9921 18.3505 17.6649C20.2082 16.1785 22.5588 15.4353 24.9397 15.5946Z" fill="url(#paint0_linear_542_2982)"/>
<path d="M44.98 55H38.0952V16.1103H44.9951V18.1276C46.7012 16.535 48.9532 15.6401 51.2886 15.6249C54.4125 15.6552 57.3242 17.2175 59.0757 19.8112C61.1836 22.7764 62.2679 26.3408 62.1693 29.981C62.2755 33.6744 61.0699 37.2918 58.7648 40.1813C56.9223 42.7673 53.9576 44.3296 50.7805 44.3903C48.6726 44.3903 46.6254 43.6698 44.98 42.3351V55ZM48.6575 42.0393C50.3104 42.0393 51.7283 40.8714 52.8884 38.5735C54.1623 35.813 54.7689 32.7946 54.6551 29.7611C54.7765 26.8869 54.2609 24.0202 53.1462 21.3734C52.5548 19.5533 50.9018 18.2792 48.9835 18.1882C47.4594 18.2413 46.0188 18.9087 44.9876 20.0387V39.3167C45.6017 40.8335 47.0197 41.8876 48.6499 42.0393H48.6575Z" fill="url(#paint1_linear_542_2982)"/>
<path d="M66.4761 5H73.3989V43.8897H66.4761V5Z" fill="url(#paint2_linear_542_2982)"/>
<path d="M89.7314 15.6325C93.8562 15.6325 96.8361 16.444 98.6407 18.0593C100.445 19.6747 101.363 22.4276 101.363 26.3332V37.2387C101.363 41.1823 101.985 43.556 103.205 44.3827L94.4477 43.8821V42.3806C91.8696 43.776 88.9732 44.4964 86.0388 44.4737C80.3216 44.4737 77.4555 41.9028 77.4479 36.7534C77.2583 33.7123 78.8279 30.8228 81.4969 29.344C84.7346 27.5997 88.3817 26.7579 92.0592 26.9172C92.8554 26.902 93.6591 26.9324 94.4477 27.0082V25.3625C94.6827 23.4135 94.2278 21.4493 93.1586 19.8112C92.1881 18.8404 90.846 18.3399 89.4812 18.4233C86.797 18.4157 84.1886 19.341 82.1186 21.0549V16.8535C84.5754 16.0496 87.1458 15.6401 89.7314 15.6325ZM92.1426 28.8359C90.1636 28.7449 88.2377 29.5033 86.8577 30.929C85.5232 32.4003 84.8256 34.3341 84.909 36.3211C84.7877 37.8379 85.2957 39.3319 86.3117 40.4694C87.2595 41.4098 88.5561 41.9104 89.8906 41.8573C91.6422 41.9559 93.3406 41.2126 94.4552 39.8551V29.0786C93.697 28.9496 92.9236 28.8662 92.1578 28.8359H92.1426Z" fill="url(#paint3_linear_542_2982)"/>
<path d="M122.571 15.6325C124.694 15.5794 126.749 16.3833 128.273 17.8545C129.858 19.4244 130.699 21.5934 130.593 23.8154V43.8897H123.784V24.1491C123.814 22.9509 123.306 21.8057 122.404 21.017C120.501 19.3106 117.627 19.3106 115.724 21.017C114.822 21.8057 114.298 22.9433 114.306 24.1491V43.8897H107.535V16.1103H114.306V20.0159C116.194 17.3085 119.272 15.6704 122.571 15.6249V15.6325Z" fill="url(#paint4_linear_542_2982)"/>
<path d="M168.058 31.02C167.982 31.0049 167.898 31.0049 167.815 31.02C167.641 31.02 167.466 31.0883 167.353 31.2248L166.079 32.5216C165.973 32.6354 165.912 32.787 165.912 32.9463V38.0957C165.935 38.9223 165.631 39.7186 165.063 40.3178C164.479 40.932 163.667 41.2733 162.818 41.2582H146.258C145.409 41.2657 144.598 40.9245 144.014 40.3178C143.415 39.7111 143.081 38.892 143.096 38.0426V21.2066C143.089 20.3572 143.415 19.5381 144.014 18.9314C144.59 18.3247 145.386 17.9759 146.22 17.9683H162.78C163.084 17.9759 163.387 18.0214 163.683 18.0972H163.849C163.994 18.0972 164.138 18.0593 164.251 17.9683L165.229 16.9824C165.389 16.8307 165.457 16.6032 165.411 16.3909C165.381 16.1785 165.237 16.0041 165.04 15.9283C164.312 15.5946 163.523 15.4201 162.72 15.4277H146.152C144.628 15.4126 143.172 16.0344 142.118 17.1341C141.011 18.211 140.405 19.705 140.443 21.2445V38.0805C140.405 39.6201 141.011 41.1141 142.118 42.191C143.172 43.2906 144.628 43.9049 146.152 43.8973H162.72C164.244 43.9125 165.715 43.2982 166.769 42.191C167.861 41.1065 168.467 39.6201 168.444 38.0805V31.6116C168.467 31.3461 168.293 31.0959 168.043 31.02H168.058Z" fill="url(#paint5_linear_542_2982)"/>
<path d="M173.047 19.4092L170.856 17.1872C170.249 16.5653 169.248 16.5501 168.626 17.1492C168.611 17.1568 168.604 17.172 168.588 17.1872L155.706 30.2768L150.535 24.9454C150.247 24.6345 149.837 24.46 149.413 24.46C148.988 24.46 148.571 24.6345 148.275 24.9454L146.107 27.2205C145.47 27.8576 145.47 28.8966 146.107 29.5336L154.622 38.2398C154.917 38.5432 155.334 38.7176 155.759 38.7176C156.184 38.7176 156.586 38.5432 156.881 38.2398L173.039 21.6692C173.654 21.0246 173.654 20.0159 173.039 19.3713V19.4092H173.047Z" fill="url(#paint6_linear_542_2982)"/>
<defs>
<linearGradient id="paint0_linear_542_2982" x1="87.9862" y1="7.25" x2="78.2841" y2="61.165" gradientUnits="userSpaceOnUse">
<stop stop-color="#FCFCFC"/>
<stop offset="0.135417" stop-color="#E9E9E9"/>
<stop offset="0.296875" stop-color="#F5F5F5"/>
<stop offset="0.427083" stop-color="#EBE6E8"/>
<stop offset="0.552083" stop-color="#F4C7CC"/>
<stop offset="0.739583" stop-color="#E8F39E"/>
<stop offset="0.864583" stop-color="#C4BFBC"/>
<stop offset="0.973958" stop-color="#E1DCDC"/>
</linearGradient>
<linearGradient id="paint1_linear_542_2982" x1="87.9862" y1="7.25" x2="78.2841" y2="61.165" gradientUnits="userSpaceOnUse">
<stop stop-color="#FCFCFC"/>
<stop offset="0.135417" stop-color="#E9E9E9"/>
<stop offset="0.296875" stop-color="#F5F5F5"/>
<stop offset="0.427083" stop-color="#EBE6E8"/>
<stop offset="0.552083" stop-color="#F4C7CC"/>
<stop offset="0.739583" stop-color="#E8F39E"/>
<stop offset="0.864583" stop-color="#C4BFBC"/>
<stop offset="0.973958" stop-color="#E1DCDC"/>
</linearGradient>
<linearGradient id="paint2_linear_542_2982" x1="87.9862" y1="7.25" x2="78.2841" y2="61.165" gradientUnits="userSpaceOnUse">
<stop stop-color="#FCFCFC"/>
<stop offset="0.135417" stop-color="#E9E9E9"/>
<stop offset="0.296875" stop-color="#F5F5F5"/>
<stop offset="0.427083" stop-color="#EBE6E8"/>
<stop offset="0.552083" stop-color="#F4C7CC"/>
<stop offset="0.739583" stop-color="#E8F39E"/>
<stop offset="0.864583" stop-color="#C4BFBC"/>
<stop offset="0.973958" stop-color="#E1DCDC"/>
</linearGradient>
<linearGradient id="paint3_linear_542_2982" x1="87.9862" y1="7.25" x2="78.2841" y2="61.165" gradientUnits="userSpaceOnUse">
<stop stop-color="#FCFCFC"/>
<stop offset="0.135417" stop-color="#E9E9E9"/>
<stop offset="0.296875" stop-color="#F5F5F5"/>
<stop offset="0.427083" stop-color="#EBE6E8"/>
<stop offset="0.552083" stop-color="#F4C7CC"/>
<stop offset="0.739583" stop-color="#E8F39E"/>
<stop offset="0.864583" stop-color="#C4BFBC"/>
<stop offset="0.973958" stop-color="#E1DCDC"/>
</linearGradient>
<linearGradient id="paint4_linear_542_2982" x1="87.9862" y1="7.25" x2="78.2841" y2="61.165" gradientUnits="userSpaceOnUse">
<stop stop-color="#FCFCFC"/>
<stop offset="0.135417" stop-color="#E9E9E9"/>
<stop offset="0.296875" stop-color="#F5F5F5"/>
<stop offset="0.427083" stop-color="#EBE6E8"/>
<stop offset="0.552083" stop-color="#F4C7CC"/>
<stop offset="0.739583" stop-color="#E8F39E"/>
<stop offset="0.864583" stop-color="#C4BFBC"/>
<stop offset="0.973958" stop-color="#E1DCDC"/>
</linearGradient>
<linearGradient id="paint5_linear_542_2982" x1="87.9862" y1="7.25" x2="78.2841" y2="61.165" gradientUnits="userSpaceOnUse">
<stop stop-color="#FCFCFC"/>
<stop offset="0.135417" stop-color="#E9E9E9"/>
<stop offset="0.296875" stop-color="#F5F5F5"/>
<stop offset="0.427083" stop-color="#EBE6E8"/>
<stop offset="0.552083" stop-color="#F4C7CC"/>
<stop offset="0.739583" stop-color="#E8F39E"/>
<stop offset="0.864583" stop-color="#C4BFBC"/>
<stop offset="0.973958" stop-color="#E1DCDC"/>
</linearGradient>
<linearGradient id="paint6_linear_542_2982" x1="87.9862" y1="7.25" x2="78.2841" y2="61.165" gradientUnits="userSpaceOnUse">
<stop stop-color="#FCFCFC"/>
<stop offset="0.135417" stop-color="#E9E9E9"/>
<stop offset="0.296875" stop-color="#F5F5F5"/>
<stop offset="0.427083" stop-color="#EBE6E8"/>
<stop offset="0.552083" stop-color="#F4C7CC"/>
<stop offset="0.739583" stop-color="#E8F39E"/>
<stop offset="0.864583" stop-color="#C4BFBC"/>
<stop offset="0.973958" stop-color="#E1DCDC"/>
</linearGradient>
</defs>
</svg>
