<svg width="250" height="60" viewBox="0 0 250 60" fill="none" xmlns="http://www.w3.org/2000/svg">
<path d="M12 10V50H41.1721V32.8573H29.5036V27.1427H41.1721V21.428H23.6686V38.5733H35.3372V44.2867H17.8363V15.7147H47.0044V50H52.8407V10H12ZM79.6702 38C78.4465 38.0025 77.2283 37.8388 76.0503 37.5133C74.8953 37.1747 73.9655 36.74 73.2611 36.2093L74.4976 33.5133C75.2305 34.0284 76.043 34.4241 76.904 34.6853C77.8338 34.9787 78.7635 35.1267 79.6919 35.1267C80.7275 35.1267 81.4917 34.98 81.9857 34.6853C82.4811 34.376 82.7282 33.9707 82.7282 33.4693C82.7315 33.2941 82.6925 33.1206 82.6145 32.963C82.5364 32.8054 82.4214 32.6682 82.2789 32.5627C81.9504 32.2889 81.5671 32.0859 81.1537 31.9667C80.7044 31.82 80.0896 31.6573 79.3105 31.48C78.1107 31.2 77.1294 30.92 76.3652 30.64C75.6013 30.3608 74.9209 29.8978 74.3863 29.2933C73.8461 28.6733 73.576 27.8493 73.576 26.8173C73.576 25.9187 73.823 25.1093 74.3184 24.3867C74.8125 23.6507 75.5549 23.068 76.5444 22.64C77.5488 22.2133 78.7703 22 80.209 22C81.2134 22 82.1961 22.1173 83.1543 22.3533C84.1153 22.5893 84.9541 22.928 85.6748 23.3707L84.5496 26.088C83.096 25.2787 81.641 24.8733 80.1873 24.8733C79.168 24.8733 78.4106 25.0347 77.9166 25.3587C77.4361 25.6827 77.1972 26.1107 77.1972 26.6413C77.1972 27.172 77.4741 27.5693 78.0292 27.8347C78.5993 28.0853 79.4598 28.3347 80.6149 28.5853C81.8133 28.8653 82.796 29.1453 83.5602 29.4253C84.3151 29.6988 84.9877 30.1546 85.516 30.7507C86.0725 31.356 86.3494 32.1733 86.3494 33.204C86.3494 34.088 86.0942 34.8987 85.5839 35.636C85.0898 36.3573 84.3406 36.932 83.3349 37.3587C82.3305 37.7853 81.1089 38 79.6702 38ZM116.002 22.2653L110.852 37.7333H106.939L103.477 27.2587L99.9019 37.7333H96.0106L90.8407 22.2667H94.618L98.1713 33.14L101.882 22.2667H105.255L108.852 33.2267L112.518 22.2667H116.003L116.002 22.2653ZM121.409 22.2653H125.052V37.7333H121.409V22.2653ZM135.803 25.1387V29.2267H143.089V32.1H135.803V37.7333H132.16V22.2667H144.056V25.14L135.803 25.1387ZM153.266 25.1827H148.229V22.2653H161.946V25.1827H156.909V37.7333H153.266V25.1813V25.1827ZM167.279 22.2653H170.922V34.8173H178.814V37.7347H167.279V22.2653ZM194.722 34.42H187.413L186.019 37.7347H182.286L189.302 22.2667H192.9L199.938 37.736H196.116L194.722 34.42ZM193.575 31.7013L191.079 25.7787L188.583 31.7013H193.575ZM219.381 22.2653V37.7333H216.391L208.543 28.3413V37.7333H204.945V22.2667H207.958L215.783 31.6587V22.2667L219.381 22.2653ZM238.667 34.8613V37.7347H226.478V22.2667H238.375V25.14H230.1V28.4987H237.407V31.2827H230.1V34.8627L238.667 34.8613Z" fill="url(#paint0_linear_542_2979)"/>
<defs>
<linearGradient id="paint0_linear_542_2979" x1="115.599" y1="11.8" x2="111.189" y2="55.8876" gradientUnits="userSpaceOnUse">
<stop stop-color="#FCFCFC"/>
<stop offset="0.135417" stop-color="#E9E9E9"/>
<stop offset="0.296875" stop-color="#F5F5F5"/>
<stop offset="0.427083" stop-color="#EBE6E8"/>
<stop offset="0.552083" stop-color="#F4C7CC"/>
<stop offset="0.739583" stop-color="#E8F39E"/>
<stop offset="0.864583" stop-color="#C4BFBC"/>
<stop offset="0.973958" stop-color="#E1DCDC"/>
</linearGradient>
</defs>
</svg>
