<svg width="63" height="50" viewBox="0 0 63 50" fill="none" xmlns="http://www.w3.org/2000/svg">
<path d="M61.9248 11.8345L51.8628 0.458083L51.4569 0H10.8072L10.4013 0.458083L0.338023 11.8345L0 12.2169V37.7831L0.338023 38.1655L10.4013 49.5419L10.8072 50H51.4569L51.8628 49.5419L61.9261 38.1655L62.2642 37.7831V12.2169L61.9261 11.8345H61.9248ZM57.9024 36.0129L54.7367 25.3919L60.8673 26.0797L60.9053 25.7446V36.9183L57.9024 36.0116V36.0129ZM52.042 44.376L47.3463 41.4829L54.2032 25.9797L57.259 36.2332L52.042 44.3773V44.376ZM10.2629 44.48L7.27632 37.5007L53.6724 25.5027L47.8459 38.6749L37.2844 42.118L10.2629 44.48ZM1.35752 13.3006L3.12638 15.7113L6.41701 36.9345H1.35752V13.3006ZM46.8264 5.83347L19.809 8.04957L24.1164 4.39436L46.8264 5.83347ZM18.7338 8.07389L12.7268 5.27539L22.9829 4.46733L18.7325 8.07389H18.7338ZM18.966 8.9279L53.2706 24.9081L7.38628 36.775L18.966 8.9279ZM20.0873 8.70494L51.1963 6.15372L53.8421 24.4298L20.0873 8.70629V8.70494ZM28.1387 3.97276L50.5542 1.72018L51.0904 5.42673L28.1387 3.97276ZM23.9698 3.71196L11.7589 4.67407V1.35128H47.4631L23.9698 3.71196ZM11.5254 5.46187L17.9845 8.47116L4.53548 14.7019L11.524 5.46187H11.5254ZM18.1406 9.1441L6.96274 36.0264L3.82278 15.7775L18.1406 9.1441ZM60.9066 12.7263V25.404L54.5656 24.6919L51.2533 1.81342L60.9053 12.7263H60.9066ZM11.0801 1.73504V4.92676L3.45218 15.0114L1.63039 12.5277L1.35617 12.7263L11.0801 1.73504ZM1.65618 37.6101H6.5867L9.73344 44.9611L10.8127 47.9609L1.65618 37.6101ZM11.4195 48.6487L11.7385 48.5352L10.5167 45.1381L46.8345 41.9626L51.7406 44.9854L50.5216 48.5406L50.8433 48.6501H11.4195V48.6487ZM51.4284 47.9866L52.4574 44.9854L57.7775 36.6805L60.6596 37.5507L51.4284 47.9852V47.9866Z" fill="url(#paint0_linear_542_3053)"/>
<defs>
<linearGradient id="paint0_linear_542_3053" x1="28.4581" y1="2.25" x2="7.47028" y2="48.3573" gradientUnits="userSpaceOnUse">
<stop stop-color="#FCFCFC"/>
<stop offset="0.135417" stop-color="#E9E9E9"/>
<stop offset="0.296875" stop-color="#F5F5F5"/>
<stop offset="0.427083" stop-color="#EBE6E8"/>
<stop offset="0.552083" stop-color="#F4C7CC"/>
<stop offset="0.739583" stop-color="#E8F39E"/>
<stop offset="0.864583" stop-color="#C4BFBC"/>
<stop offset="0.973958" stop-color="#E1DCDC"/>
</linearGradient>
</defs>
</svg>
