<svg width="44" height="44" viewBox="0 0 44 44" fill="none" xmlns="http://www.w3.org/2000/svg">
<path d="M41 1.5H3C2.17157 1.5 1.5 2.17157 1.5 3V41C1.5 41.8284 2.17157 42.5 3 42.5H41C41.8284 42.5 42.5 41.8284 42.5 41V3C42.5 2.17157 41.8284 1.5 41 1.5ZM0.5 3C0.5 1.61929 1.61929 0.5 3 0.5H41C42.3807 0.5 43.5 1.61929 43.5 3V41C43.5 42.3807 42.3807 43.5 41 43.5H3C1.61929 43.5 0.5 42.3807 0.5 41V3ZM39.5 22C39.5 31.665 31.665 39.5 22 39.5C12.335 39.5 4.5 31.665 4.5 22C4.5 12.335 12.335 4.5 22 4.5C31.665 4.5 39.5 12.335 39.5 22ZM32.5 22C32.5 27.799 27.799 32.5 22 32.5C16.201 32.5 11.5 27.799 11.5 22C11.5 16.201 16.201 11.5 22 11.5C27.799 11.5 32.5 16.201 32.5 22ZM22 33.5C28.3513 33.5 33.5 28.3513 33.5 22C33.5 15.6487 28.3513 10.5 22 10.5C15.6487 10.5 10.5 15.6487 10.5 22C10.5 28.3513 15.6487 33.5 22 33.5Z" stroke="url(#paint0_linear_1031_232)"/>
<defs>
<linearGradient id="paint0_linear_1031_232" x1="20.1104" y1="1.98" x2="-0.902797" y2="39.0503" gradientUnits="userSpaceOnUse">
<stop stop-color="#FCFCFC"/>
<stop offset="0.135417" stop-color="#E9E9E9"/>
<stop offset="0.296875" stop-color="#F5F5F5"/>
<stop offset="0.427083" stop-color="#EBE6E8"/>
<stop offset="0.552083" stop-color="#F4C7CC"/>
<stop offset="0.739583" stop-color="#E8F39E"/>
<stop offset="0.864583" stop-color="#C4BFBC"/>
<stop offset="0.973958" stop-color="#E1DCDC"/>
</linearGradient>
</defs>
</svg>
