<svg width="1411" height="626" fill="none" xmlns="http://www.w3.org/2000/svg"><g style="mix-blend-mode:screen" stroke="#5584B7" stroke-width=".2" stroke-miterlimit="10"><path d="M529.663 389.864c6.977 5.756 3.314 17.442-1.396 23.023-6.976 8.372-10.639 14.651-10.639 25.64.174 5.755-1.57 10.29-2.442 15.872-.349 1.744.174 3.663-.349 5.232-.697 2.268-2.616 3.837-3.314 5.931-1.57 5.406-.697 6.453-6.628 8.023-3.837.872-6.802 1.046-10.29 3.139.348.349.697.698.872 1.047-.349 1.046-1.047 1.221-2.268.523-2.442 1.57-4.36 1.047-6.802 3.663-5.407 5.756-.349 11.337-3.14 17.965-1.046 2.442-2.965 4.36-4.011 6.802-.523 1.57-.175 3.838-1.221 5.407-3.663 5.756-.349-4.36-.349-4.36-1.395-.698-5.581 5.407-4.884 6.453.524 0 1.047.175 1.57.349-1.395 4.884-4.012 13.256-9.244 14.651-1.57.349-14.128-.523-14.128-2.616 0 2.093 3.14 1.919 4.012 3.14.697 1.046.872 2.441 1.395 3.313 2.093 3.14 3.314 3.489 2.791 7.326-.698 4.012-3.14 5.581-6.628 6.802-4.186 1.57-8.198-.697-11.686.349.349 0 2.79 8.372 2.616 9.07-2.267 6.105-8.198-2.093-10.465 0-.698.698 2.093 5.407 2.616 5.93 1.047.698 2.791-.174 3.837.698 6.454 5.407-2.616.698-3.139 1.919-.349 1.046 2.965 1.046 2.965 1.918-.174.698-2.093.872-2.093 2.268 0-.349.349 2.965.349 1.569-.524 3.489.349 3.489-1.396 6.279-1.046 1.745-2.267-1.744-3.314 1.919-1.395 5.233 6.454 4.36 8.024 7.5 1.046 1.919-1.57 8.547-2.442 10.64-1.221 2.965-3.14 4.011-1.919 7.325 1.221 2.965 6.105 7.326 8.372 9.419 1.57 1.395 3.489 2.79 5.582 3.488 1.221.523 5.581.349 6.279 1.396 1.744 2.616-3.14 4.186-5.407 4.186 0 .697 2.442 1.22 2.093 2.093-.698 2.093-3.663-1.745-4.186-2.268 1.395 3.14-5.058 0-6.454-.523-1.744-.698-7.325-1.744-7.325-3.488-.175.523-.524.872-1.047 1.22-1.744 0-13.604-10.116-14.825-8.895a7.521 7.521 0 0 1 2.79 0c.175-3.663-4.011.349-3.837-3.837-1.046 4.36-3.314-2.616-3.837-3.488-.872-1.745-2.268-3.14-3.314-4.71-1.221-1.57-4.186-5.058-4.186-7.151s2.442-6.105 5.232-4.36c.698-1.396-.872-4.186-1.569-5.233 0 2.093-4.186 2.965-5.058 1.046-.175.698-.524 1.221-1.047 1.745-.349 0 .174-14.303-.349-14.303 1.57 0 1.396 3.14 2.965 3.14 1.919-1.395-1.395-13.779-2.79-13.779-3.314.349 2.441 6.453-.349 8.023-2.268 1.395-4.884-6.279-3.663-7.674.523 0 1.046.174 1.57.348-5.058-2.441-1.744-7.151-2.791-11.162-.698-2.617-4.884-5.582-4.884-8.372.175-2.791 1.396-.698 2.093-3.14.872-2.965.698-6.628.698-9.593.349-9.07-2.442-17.442-3.314-25.814-.523-5.058.698-10.116.349-15.523-.174-5.407-1.57-10.64-1.57-16.047 0-13.604-1.744-20.755-14.128-27.732-5.407-3.14-10.465-5.407-13.256-11.163-2.093-4.361-3.662-8.023-6.453-12.384-2.791-4.186-4.535-9.07-6.802-13.604-1.047-2.093-2.093-4.71-3.663-6.628-1.396-1.396-3.314-1.919-4.361-3.14-1.046-.174-1.918-.698-2.616-1.57 0-.697.175-1.395.698-1.918.349-.349.697-.872.697-1.57-.697-.698-1.22-1.57-1.569-2.616-.349-5.756 4.186-6.279 4.883-11.337-3.662 4.709-3.837-3.838-3.488-5.931 1.047-6.104 2.791-9.244 7.849-11.511-3.663-3.838 6.628-6.628 6.802-9.768.349-2.965-1.918 0-2.442-2.267-.174-.698.872-1.744.872-1.919-.348-4.011 1.396-7.674.698-11.511-.349-1.919-3.139-8.721-5.407-9.419-2.093-.523-4.186 1.57-5.93 2.616 8.023 4.71-7.849 4.535-6.454 2.442.698-.872 4.361-2.267-.697-2.616-1.919-.175-1.221 2.442-3.314 1.744-2.791-1.047-3.14-9.942-7.151-9.942-1.57 0-.175 4.186-3.14.872-1.046-1.046-1.744-6.104 0-6.977-3.663 1.396-6.279-9.418-6.802-9.418-5.93 0-13.43-.523-17.965-4.884-2.442-2.267-3.663-6.279-7.152-7.5-2.965-.872-4.709.698-7.5 1.221-5.581 1.047-14.476-2.965-19.011-6.279-2.616-1.744-3.837-2.965-6.454-4.36-2.267-1.221-3.488-1.745-5.581-3.663-1.57-1.396-4.884-2.965-5.233-5.407-.174-1.744 1.221-3.14 1.57-5.058.872-6.803-4.011-13.431-8.372-18.14-.349-.349-2.791-2.965-2.791-2.965 0-.523.349-2.267.349-2.616-.174-.349-.349-2.442-.349-2.791-.174-.523-1.221-1.57-1.569-2.093-1.745-2.442-3.489-5.93-6.105-7.5.174 0-1.221 1.046-1.57.523-.349-.349.872-12.035.872-12.035-1.744.175-1.221.524-1.569-1.221-1.919 2.617-2.791-1.221-4.535 2.093-2.093 3.838 2.093 10.117 3.314 13.779 1.569 4.535 2.093 9.07 3.314 13.605.697 2.442 1.046 2.965 2.093 4.709.697 1.221 2.267.873 2.616 2.791.349 1.744-.349 3.663-2.442 3.14-1.57-.349-.349-1.745-1.395-2.617-1.047-.872-5.233-4.011-5.756-4.883-2.268-4.71 2.442-6.279-2.616-10.465-1.57-1.221-3.663-1.221-4.884-3.14-.698-1.395-.349-3.314-.698-4.012.175.524 2.791 2.268 4.186.175 1.744-2.965-2.616-4.186-3.314-6.105-2.267-5.581 1.047-12.732-2.79-17.965-1.745-2.442-4.884-2.616-6.628-4.535-1.396-1.57-1.047-2.442-1.745-4.709-.872-3.14-.348-5.233-.523-7.675-.174-2.267-1.395-4.36-1.395-6.627 0-5.756 1.744-8.896 4.186-13.605 1.57-2.791 1.919-5.756 3.663-8.372 2.267-3.314 5.581-5.756 7.849-9.07 5.232-7.674 8.023-12.907 3.837-21.279-1.047-2.093-3.663-3.14-.872-5.058.523-.523 5.407 0 5.407 0-.872.349-1.745.174-2.442-.349-.698-2.965.697-12.558 2.965-14.826-3.14-1.046 1.046-7.848-.698-8.372-.349 1.57-4.535 7.675-4.011 5.407-3.314 5.233-3.14-2.965-1.396-5.058-1.57 2.268-.697-2.616 0-3.488-.174.523-.523.523-1.046.523-.872-1.046 2.442-5.581 2.79-6.628-3.314 1.047-1.046-2.267-1.569-2.965-1.047-1.57-3.663-.174-2.617-2.965-2.79 1.395-4.36-1.395-6.976-1.744-2.442-.175-5.407.697-7.5 1.918 0-.872.523-1.57 1.221-2.093-.873 0-1.919-.174-2.791-.349l.523-1.57c-.523.35-4.012 2.966-4.36 2.268-1.047-2.093 3.488-2.267 3.488-3.663 0-2.79-9.419 8.024-9.419 3.838-1.569 1.918-16.569 3.314-16.569 3.14.174-.524 3.662-2.443 4.186-2.792 2.093-1.395 4.535-2.79 6.453-4.36-1.744.349-4.709 2.442-6.628 3.14-3.488 1.395-6.976 2.965-10.639 4.186.523.348 1.046 1.046 1.569 1.57-.174 1.22-6.627 2.79-7.674 3.488 1.047-.175 8.895-1.57 9.07-2.093-.349.174-.523.174-.872.174.523.174.872.349.872.872-.349 1.395-2.965.523-3.837 1.047-.872.523-1.047 2.093-1.919 2.616-1.744 1.046-4.186 1.395-6.105 1.744-.523 0-4.186 3.14-3.488-.523.523-2.79 4.36-2.442 6.105-3.837-6.628 2.441-14.477 4.709-20.233 6.976-2.093.872-3.139 1.57-5.407 2.791-.872.174-6.628 1.57-4.709 0-1.744-1.046-2.965 2.965-3.663 2.965-1.919.349-3.663-.872-5.058-.697-.698 0-16.221 4.534-15.349 2.965 1.395-2.791 7.151-1.919 9.419-2.442 3.662-1.047 8.023-2.617 11.686-3.837 9.418-3.14 17.79-6.977 26.511-12.21-1.918.698-6.104 1.221-2.267-1.395-.698.349-6.802 5.407-5.233 1.57-1.046 2.616-1.395-.872-1.569-1.221 1.744 0-9.07 5.407-7.849 1.57.523-1.396 9.767-8.024 10.639-8.547-3.139.174-5.058 5.058-8.372 4.535-4.535-.698-1.046-3.837.872-5.407-4.535-2.267 11.337-8.895 13.082-9.419 4.011-1.395 8.372-1.395 12.383-2.442 4.361-1.046 5.931-3.837 9.768-5.407.349 1.745-11.512 2.442-12.733 2.442-4.186 0-10.116-2.79-2.442-4.011-.523 0-3.488 0-3.488-1.047.174-2.965 19.709-3.837 19.709-4.535-.523.698-1.395 1.396-2.267 1.919 2.791.698 9.593 0 9.593-3.837-4.535 3.663-2.791-1.919-3.314-3.14-.523-1.046-3.14-1.046-2.442-2.442 1.57-3.314 12.035-2.442 15.349-3.488 2.442-.698 33.837-10.465 34.186-7.5-.523.523-.872.872-1.395 1.046 1.221 0 11.162-.174 8.197 1.745 2.093 1.57 6.279-.175 8.721 0 3.663.174 7.151 1.395 10.814 1.57 1.744 0 13.082.174 14.128 1.744 1.221 1.57-1.57 2.093 2.616 2.965 2.791.523 3.14-.698 4.186-1.047 2.617-.872 4.71-1.57 7.675-1.918 1.395-.175 17.791-2.965 17.791-2.268-.524.523-1.047 1.047-1.745 1.395 1.396 2.442 5.407-2.965 6.279-2.965 3.663.698-.872 3.663.698 4.36.872.175 15.175-5.406 5.93.175 1.919.175 3.14-1.57 4.884-1.57 2.267-.174 4.186.524 6.454 1.047 3.488 1.047 9.418 1.047 12.558 2.79 6.628 3.663-4.012.698-4.012 4.012 1.57 1.047 19.186-.872 19.186-1.22 0 .348-2.442 1.046-2.616 1.22 3.314-.174 1.744 4.012 3.488 3.663-.697.175 3.489-4.011 3.663-4.186-7.326-2.79 9.419-3.488 9.419-3.488-.698-.35 1.569.872 1.569.872.524 1.046.175 1.57-1.221 1.918 5.582 1.919 11.686 1.047 17.442 1.396-1.918-1.744 3.663-2.791 4.361-3.837-.698-.698-3.489.872-3.837-.524.174.523 6.453-3.837 7.5-3.837 1.046-.174 7.848 1.047 7.5 1.919-.698 1.57-9.768 3.837-9.768 3.837.523.872 3.837.349 3.837.872.175.698-3.314 2.442-3.662 3.314 2.267.523 2.093-1.744 4.011-2.616 3.837-1.744 7.5-.35 4.361-2.965-.175-1.221 4.709-1.92 5.407-2.268-4.361-2.442-7.849-1.919-1.745-4.71-.523.175-1.046.175-1.395-.348.174-1.919 4.186-2.267 4.535-3.663.523-.697 4.884-3.14 5.756-3.837 1.744-1.57 2.267-5.233 5.93-4.012-1.047-1.744 15.174-4.011 13.953 0-.697 2.442-9.418 2.617-11.337 3.314-3.139 1.221-4.36 2.442-8.023 3.663 2.093.872 1.395 2.616 1.221 4.36-.349 2.966-.349 1.745-3.663 4.187.698 1.046 6.977-1.745 6.454 1.744-.349 2.093-6.803-.523-4.186 4.186.872-3.14 7.325-6.628 6.976-1.395-.174 1.918-3.488 1.918-3.488 3.139.349 2.965 3.663 1.744 5.058.523-2.965.175 1.744-4.186 2.442-2.616-.174.523-.523 1.047-1.047 1.57 1.919-.523 2.791-2.442 4.361-3.489 1.395-.697 3.139.698 4.186-.697-1.744.697-1.57-2.442-.872-2.965 1.395-.873 1.918-.35 3.314-.524.872-.174 6.453 1.396 6.453-.523 0-.349-29.476-1.918-9.942-4.012-1.569-.872-5.407.175-5.93-1.395-.523-1.57 2.616-3.314 3.489-4.011 3.662-2.791 9.593-5.233 14.127-5.93 6.105-.873 5.233.871.698 3.313-2.093 1.047-4.011 1.047-4.884 3.489-.697 2.093 0 4.709 2.442 2.616 0-1.047-2.965-.349-2.79-1.57.697-3.14 8.895-5.407 11.337-5.93 1.221-.175 7.151-1.919 8.197-.698 1.745 1.919-3.488 4.186-3.488 5.93 0-1.57 10.291-.523 11.163-2.616-.872 2.442-12.384-1.046-4.709-4.011 1.221-.524 6.453.174 7.5 1.046 2.79 2.442 0 1.57-.349 3.314 1.744 2.616 6.453.872 5.058 5.581 2.267-2.79 3.663-1.395 6.279-.523.174.175 6.279 2.79 6.279 2.79.349.873-1.919 1.745-2.093 2.268.698-.349 3.488-.872 3.663.698.174 1.046-2.093.523-2.442 1.395.349.175 3.314.698 3.314 1.047-.175 1.744-7.326.174-7.151 2.616.349 3.837 21.453 2.965 13.604 10.116-2.093 1.919-4.535 1.396-6.453 2.268-2.791 1.395-2.442 3.488-5.93 1.395-2.442-1.57-1.57-4.186-4.535-4.186l-3.489 2.093c2.268-.872 4.71 6.802 5.756 6.802-.523 0-1.57-1.22-1.221-.872.349.524 1.57 4.71.349 4.71-.698-.35-1.046-.872-1.395-1.57-2.617 1.395.523 3.663-1.221 4.884-2.442 1.57-7.326-5.059-10.291-5.059 1.221 5.059 10.291 10.64-1.221 6.628-2.093-.697-8.023-1.57-9.418-2.965-1.745-1.395-1.745-4.71-2.617-6.802-.872 2.616-1.569-1.047-1.569-1.047-1.745 0-.698 1.745-1.745 1.745-.348 0-2.267-.35-2.79-.35-1.57.35-5.058 1.396-6.628.35-3.837-2.617 3.488-4.535 5.756-4.884 2.79-.349 6.976 1.395 9.593-.523.348-.35-.698-2.093.174-2.791 4.186-4.012 7.326-1.744 8.721-7.849-.872.175-1.395-.174-1.744-.872 0 .174.349 2.616 0 2.616-.698.175-3.489 1.57-3.663-.174-.174-1.221 2.267-1.047 2.267-3.314-.174 0-3.139 1.22-3.139.698-.523-2.268.523-.35-2.442-1.396 0 0 3.488-1.395 3.488-2.093-.872.698-3.837-.523-4.186-1.22.349-.698.698-1.222 1.221-1.745-1.918.523-1.569-1.744-2.965-1.744 2.442 3.488-5.581 3.488-6.977 3.488-1.569 0-3.314-2.267-5.058-.697-1.395 1.395.698 1.918.698 1.918-1.047 3.14-3.14 2.617-5.058 5.058-1.047 1.396 1.744 1.57 0 3.314-1.047 1.047-9.244 5.233-10.465 3.14.174 2.965-1.396.349-2.268 1.22 1.047.698 1.57 1.57 1.744 2.617-.348.872-3.662-3.488-5.407-2.79-1.22.523-.174 2.267-1.22 3.837 1.046-.35 1.046-3.314 1.744-3.314 0 0 6.628 6.453 4.36 8.023.698.349 6.977 0 3.489 2.442-2.617 1.918-6.628 0-7.326-1.745-.349-.697-8.547 4.535-10.116 3.838-1.744-.872 1.221-3.314-4.361-1.744.698-2.791 8.896-8.024 11.163-10.117-1.919.698-3.837 2.442-5.93 2.442 2.965 1.395-8.023 5.93-9.593 5.93-.523.175-2.442-.697-2.616-.697-.698.174-1.919 1.57-3.14 1.744-3.314.523-5.93-.698-9.244-1.395 1.57 2.79 12.907 1.918 3.663 5.232-5.233 1.919-9.419 3.663-14.303 7.151-2.267 1.744-10.116 6.454-9.244 9.768.523 1.918 2.791-.175 3.663 1.57.698 1.744-1.221 4.883-2.268 6.279 3.314 0 8.721-1.396 11.686.872 1.919 1.569 1.919 2.79 3.314 3.837 1.047.697 5.931.872 4.012 3.488 1.744-.872 6.628-1.395 8.198-.349 2.267 1.57 1.221 1.047.872 3.314-.349 2.442-3.314 3.838-4.012 6.105-.349 1.395 1.57 3.663 0 4.36 1.57.175 2.965 1.919 1.919 3.489 1.918-.175 5.232-1.919 5.232.349 2.093-3.14 3.663-5.931 4.535-9.593.698-2.617.349-4.884 2.617-6.628 1.22-1.047 5.058-1.047 6.627-1.919 2.791-1.395 6.279-3.663 7.849-6.453 1.919-3.489-.872-4.884-.349-7.152.349-1.57.349-1.395 1.919-3.314 1.744-2.093 3.314-3.837 4.709-5.93 1.221-1.918.872-2.616 3.489-3.663-5.756-6.104 20.232-4.534 19.883-.697-.523.697-1.221 1.22-2.093 1.395.349 0 7.326 1.395 7.152 1.047 1.744 2.79-10.291 8.372-1.396 11.511 4.535 1.745 13.082-10.814 16.221-9.07-.523-.348 1.047 6.28 1.047 6.628.697 2.442 1.046 7.5 2.267 7.5-.698 1.396-1.744 2.617-3.139 3.663 2.965 1.047 1.046 4.012 2.965 5.233-1.221-2.442 6.453 3.488 6.453 0 4.012 5.058-3.139 2.79-5.407 5.581 8.198-5.407 12.907 5.93 5.058 10.64-2.965 1.918-6.976 1.918-10.29 3.314-3.314 1.569-5.582 3.139-9.419 3.139-6.279.175-12.733-2.442-18.837.175-8.023 3.488-14.128 9.941-21.803 14.302 8.547-.349 13.78-12.209 23.721-10.988 13.082 1.569-5.93 7.848-5.93 6.279.872.523 7.326-.175 7.675.348.348.873-2.791 1.919-2.791 2.617-.349.872 0 1.046 0 2.442.174 3.314 1.395 3.662 4.535 4.535 3.663.872 4.011.348 6.279-1.396.523-.349 3.837-4.709 4.186-3.837 0 .872-.175 1.744-.698 2.616 4.186 0-3.488 4.71-4.709 5.233-1.047.523-11.512 4.011-11.512 3.837-.349-.349-.349-1.221-.349-1.57-1.22.698-10.639 10.814-8.372 2.093.872-3.488 9.768-2.616 9.768-5.407-.523.175-3.663 1.396-3.663.175-.174-.175 2.442-1.57 2.616-1.919-.872.698-6.976 4.709-6.279 2.093-.872 2.442-12.732 5.058-12.732 6.105.523-.698.872-1.221 1.395-1.919-2.965 2.442-6.279 3.14-9.07 5.93-3.139 3.14-2.442 2.791-2.093 6.279 7.5-4.011-2.442 2.966-2.442 2.442.698-.349 1.221-.872 1.745-1.395-.349-.872-8.896 2.093-10.64 2.616.523-.174 3.837-1.221 4.186-.523 1.395 1.919-7.849 1.744-7.849 1.744-2.616 1.919-1.57 9.244-6.279 9.244.523 0-1.221-2.79-1.221-2.79 0 .872-3.663 12.732-5.581 10.639-1.047-1.221 2.965-9.593 3.488-10.988-1.918.174-4.709 8.023-5.058 9.767-.523 2.791 2.965 2.791-.698 5.93 4.186 2.094-5.755 6.628-7.5 7.675-6.279 3.488-15.348 8.372-18.662 15-4.186 8.198 4.011 19.36-1.745 26.686-2.267 2.965-2.965 2.616-4.709.523-.523-.697-2.442-5.058-2.442-5.058.175.349.524-1.919.524-1.919-.175-1.744-1.745-2.441-.175-4.36-4.36 2.791-.698-4.012-.698-5.058-.523-4.884-3.139-3.314-6.104-3.837-.698.523-1.57 1.046-2.442 1.046-.872-.349-1.395-1.046-.872-1.918 0 0-1.221-1.047-1.919-1.396-.697-.349-7.5-1.046-7.5 0 .175-.697.523-1.57.698-2.267-1.57 1.744-4.535 2.79-6.802 3.314 1.918 0-.698 1.744-.873 1.744 5.059 5.93-.697.698-2.093.698 1.57 2.093-2.616 1.744-4.011 1.395-1.047-.349-1.744-2.616-2.442-2.616-.698-.175-2.965.523-3.663.523-1.744-.175-6.104-.872-7.674-.174-1.396.523-3.489 3.662-5.407 4.883-2.442 1.396-3.14 0-5.407 2.791-2.442 3.139-2.442 5.93-3.489 9.593-2.441 9.942-7.674 18.488-2.441 28.779 1.22 2.616 4.011 6.977 7.151 7.674 2.79.524 5.581-1.744 8.197-2.093 3.314-.348 4.186.349 6.628-2.267 2.093-2.442 2.093-6.279 4.535-8.721 2.268-2.093 7.5-4.186 10.64-3.139 3.314 1.046 2.093.348 2.093 3.313 0 3.14-3.663 8.373-4.71 11.338-1.395 4.186-2.79 8.372-5.407 12.035 7.326 2.267 14.303-2.791 19.535 2.965.524.349 1.57-.349 2.442 1.046.872 1.396-.349 3.314-.697 4.709-.873 4.187-2.791 8.373-2.617 12.733.175 3.488 1.919 7.674 4.884 9.593 3.663 2.442 5.233.349 8.895-.523 3.14-.698 6.628-.523 9.419 1.57.872.697 3.139 5.232 3.663 5.232-2.268 0 3.837-6.453 3.837-6.453 1.221-1.745.872-3.489 2.267-5.756 2.093-3.489 2.442-1.221 4.71-1.919 3.139-1.221 7.849-6.628 11.686-6.628 4.709.175-.175 4.186-.175 7.326.175-.175 1.396-2.616 1.57-2.616.349.348.349.872.349 1.395 1.221 0 3.139-1.221 4.36-1.744-2.093-2.791-.174-2.965 1.57-2.965-.698 0 .523 2.616.872 2.616.872.349 8.721 1.57 4.535 3.314 1.57 2.616 6.454.349 8.895.872 3.314.698 3.14 2.442 6.803 1.57.872-.349 10.29-5.582 11.163-2.093.174 1.221-3.663 1.221-4.186 1.221 2.093 3.662 2.79.872 5.058 2.965 2.267 2.093.697 3.837 1.918 5.407.698.872 5.582 1.221 7.151 2.79 2.093 2.268 3.314 3.663 2.442 6.977 1.919-2.616 3.314.523 5.407 1.57 3.663 1.919 6.628 1.221 10.64 1.744 6.628.872 13.081 5.582 15.174 11.861 1.047 2.616 3.314 6.976 3.837 9.593.698 3.314-1.569 2.965 1.396 5.232 2.093 1.744 5.232.523 5.232 3.837.175 2.617-4.535 4.535-4.535 7.326 1.745-3.488 4.71-7.849 9.07-7.849 1.919 0 8.023 2.268 8.023 4.535 4.012-5.233 2.093 4.361 3.14 5.058 1.047.349 2.965-1.221 4.186-1.221 1.744 0 2.965.698 4.535 1.047 3.314.697 6.802.174 9.942.872 4.011 1.046 6.104 5.058 9.244 7.325 2.791 1.919 6.802 1.396 9.244 3.314l-.174.175zm0 0c.349.349 1.744 1.395 0 0zm0 0c-1.744-1.396 1.918 1.57 0 0zM457.802 74.341s-.697.174-1.221 0c-.348.348 2.268-1.57 1.221 0zm0 0c-.174.174.524-.698 0 0zM189.546 62.829c.524 0-1.918 1.395 2.617-.523-1.396-.35-2.791-.35-4.012.349h1.221l.174.174zm0 0c-.348 0 .873 0 0 0zm5.407 21.977c-1.046.174-2.093.872-3.313.523.523-.174 4.011-.698 3.313-.523zm0 0c-1.046.174.524 0 0 0zm31.221 20.407s.698-1.047.873-1.57c-3.663 6.105 0 .523-.873 1.57zm0 0c.349-.524.349-.524 0 0zm102.21 208.43c-2.268 1.57-4.186-1.221-4.012-3.314 0-1.57 5.058 2.616 4.012 3.314zm0 0c-.872.698.697-.523 0 0zm55.988 8.546c-1.395 1.919-2.791.872-3.488-.872-.872-2.093 1.221-2.965 1.744-4.709 0 1.919 3.139 3.837 1.744 5.581zm0 0c-1.744 2.442.349-.523 0 0zm88.081-204.593c1.745-.872 2.966-1.569 4.361-1.395-.872 1.395-4.186 1.221-4.361 1.395zm-11.86-64.709s.698-.349 1.395-.349c0 0-1.744.524-1.395.349zm-55.465-.349s.523 0 .523.175c-.698 2.093-.523-.698-.523-.175zm-1.395 12.21c3.313-.35 4.36.697 6.976 2.093-2.965 0-5.581-2.268-6.976-2.093zm-14.477-7.85s1.221-.523 1.57.175c-.524 0-3.314.523-1.57-.174zm-20.407-2.267s.698-.349.872-.523c0 .174-.872.698-.872.523zM320.36 225.387c.873-1.046.873 0 2.093.698-.348 0-2.093-.524-2.093-.698zm-88.779-114.593s-.872 1.57-1.221 2.093c.349-.698 1.047-1.57 1.221-2.093zm177.384 464.651c.698-.872.523 1.57.523 1.57-.174-.523-.872-1.047-.523-1.57zm1.047 4.884s-1.221-2.267-.872-2.616c0 .872.348 1.918.872 2.616zm-10.814-450.872v-.349.349z"/><path d="M426.407 316.085c-1.744-3.14-2.616 1.744-4.186 2.616 3.314 2.442 3.663-.698 4.186-2.616zm-11.512-2.093c-.348-1.57-2.79.697-3.313 1.046-.349 0 4.36 2.268 3.313-1.046zm37.5-163.605c-2.79 0-1.744 2.442-4.883.523-1.745-1.221-2.093-5.058-.698-4.186 1.221.872 1.919 1.396 3.314 2.093.872.524 2.965-.349 3.663.524-.175.697-1.57 1.22-1.57 1.22l.174-.174zm0 0c-1.918 0 4.535-2.093 0 0zm6.279-12.035c2.791 0-5.755-7.325-7.848-4.709-1.57 1.918 5.755 4.709 7.848 4.709zm2.966-51.977s-2.442 1.57-2.268 2.093c.872 2.791 4.535-3.14 2.268-2.093zm-21.628-11.337c5.058.872.348-3.488-1.221-.697-.349.523 1.395.872 1.221.697zm-2.268-.523c-3.314-1.395-1.918 2.267-1.046 1.57.872-.872 3.139-.698 1.046-1.57zm0 0c-2.965-1.221.698.349 0 0z"/><path d="M439.14 73.12s1.046 0 1.569-.35c1.221-3.488-5.407 1.745-1.569.35zm8.023 4.011s-1.57 0-1.57.523c-.349 2.791 4.186-.523 1.57-.523zm-17.616 2.093c-1.745-1.744-4.884 1.395-4.535 3.14.523 2.616 5.755-1.745 4.535-3.14zm-7.152-2.965c-2.79-.872-10.639 4.012-4.36 4.012 1.57 0 6.802-3.14 4.36-4.012zm-22.848 43.605c-.349-2.093-5.059-.872-4.884.349.174 1.046 5.058 2.616 4.884-.349zm54.418-64.535c-6.802 6.105 4.535 5.058 5.058 1.744.698-3.837-3.314-3.314-5.058-1.744zm0 0c-3.314 2.965.349-.349 0 0zm-6.453-.698c.349-.349 2.79-1.918 3.139-1.22.175.523-2.965 2.092-2.616 2.441 0-.349-.349-1.22-.349-1.22h-.174zm0 0c.349-.349.523 2.965 0 0z"/><path d="M455.012 48.7s-6.803 4.013-6.105 4.536c1.395 1.22 7.674-4.535 6.105-4.535zm3.139 1.396c-.697-1.046-2.267.872-2.442 1.396.698.349 3.314-.175 2.442-1.396zM141.756 77.48s8.895-1.744 4.535-2.79c-1.57-.35-5.582.523-4.535 2.79zm-7.5 12.907c2.267 2.093 7.325-2.093 5.756-3.14-1.221-.871-8.547.698-5.756 3.14zm26.686 13.779s-4.884 0-4.012 1.047c.523.872 4.535-.698 4.012-1.047zm58.605 12.209c-1.047 1.047-1.919 8.721.523 8.721-.349 0 6.104-10.29 6.104-10.29-.523-1.745-6.104.349-6.453 1.744l-.174-.175zm258.662 488.896c-3.662-.872-3.314-.524-5.93 1.221.872-3.838-7.674-3.663-2.965 0-.872.697-2.791-.349-3.488.697-.349.349 4.011 4.186 5.755.524-1.395 6.104 7.326-2.268 6.628-2.442zm0 0c-1.395-.349.175 0 0 0zM368.326 273.527c-2.268-.698-4.71.174-6.977.174 3.837-3.837 1.221-1.744-.349-4.012-.872-1.046-2.267-3.314-3.488-4.186-2.268-1.569-11.163-.174-12.21-3.139-.174-.523 1.57-.872 1.57-1.221-4.709-2.093-9.767 4.186-13.605 3.139 4.884-2.093 6.28-5.755 12.035-6.453 4.361-.698 8.024.349 11.861 2.093 3.488 1.57 6.453 3.837 9.942 5.581.174.175 6.628 3.489 3.314 3.489 1.046 1.918 6.104 0 6.628 2.616.348 1.046-8.547 1.57-8.547 1.57l-.174.349zm0 0c-2.093-.524.697 0 0 0z"/><path d="M342.337 263.236c-1.221 0-1.57 1.744-1.744 2.791-.349 2.267 5.581-2.791 1.744-2.791zm22.675-11.337c1.395-1.919 0-2.791-1.396-2.617-1.395 0-2.093 3.838.349 3.14-1.395 1.57 1.047 3.139 1.57 2.267.349-.872-1.047-2.093-.523-2.79zm0 0c-.524.697 1.395-1.57 0 0zm14.476 16.569s2.268-.523 2.268-1.221c0-2.441-4.012 1.221-2.268 1.221zm-13.604 12.035c-1.396-.349-4.535-2.093-6.105-1.395-2.267 1.221-1.744 3.14.523 4.186 1.919.872 7.5-2.442 5.582-2.791zm0 0c-1.919-.523.523 0 0 0zm22.674.524c2.616-2.093 14.128 2.965 9.07-4.535-1.047-.175-1.919-.524-2.965-.698-.523-.872-.698-1.744-.872-2.791-1.744-.872-4.186 0-6.105-.174-3.488-.175-6.453-1.744-8.023.872 1.221-1.919 1.046 5.233 0 3.314 1.395 2.965 1.57-.698 2.965 1.919 0 0-10.116-.524-8.895.872 1.395 1.569 9.593 1.918 11.337 2.093 1.918.174-.349 3.139 2.267 1.221-.174.174 1.396-2.442 1.221-2.268v.175zm14.826 1.395c.872 1.221 8.721 0 6.453-2.965-.697-1.047-9.07-.698-6.453 2.965zm16.744-1.57c-2.616.698.349 2.093.349 1.919 0-.523 1.918-2.791-.349-1.919zm0 0c-2.616.698.349 0 0 0zm4.535 5.058s-.698-1.046-1.221-1.046c0 .697.698 2.093 1.221 1.046zm0 0c0 .349.349-.697 0 0zm2.616 3.14c-1.744-1.919-2.791 2.267-2.965 2.616-.698 1.395 4.186-1.046 2.965-2.616zm-2.093 6.453s1.047-.523 2.093-1.918c1.57-2.268-4.709 1.918-2.093 1.918zm2.965 3.14c1.047-1.57-1.744-3.314-2.267-2.093-.349.697 1.395 3.488 2.267 2.093zm-1.046 3.488c-.175 0-1.221 3.14-1.396 3.14-.697 0 1.047-5.058 2.093-5.058-.174.523-.697 1.744-.697 1.744v.174zm0 0c-.175.524.348-.523 0 0zm-3.314 8.372c1.395-2.267-1.047-2.093 0 0zm-.349-93.488c3.837-3.663 2.093-6.802-1.395-2.442-2.093 2.616-1.221 4.884 1.395 2.442zm0 0c-.349.349.349-.349 0 0zm34.011-73.43c-.697-1.047-4.186 2.79-2.093 3.314.524 0 2.617-2.617 2.093-3.314zm30.873 3.139s2.79-4.36-.524-2.616c.698-.523 1.221-1.221 1.396-2.093-.524-1.221-2.093.698-2.442 1.046.349-.523 3.663-3.139 2.616-3.837-.698-.523-3.314 2.442-3.488 2.093 0-1.569 2.616-3.139 2.79-5.058 0-2.093-1.918-2.616-2.093-.174l-1.221-1.221c-.697.697-1.395 1.221-2.093 1.744 1.221 0-2.093-1.57-2.093-1.57.175-.349 2.442-1.221 1.745-2.093-.873-1.046-3.838.698-4.535 1.047.523-2.442 6.104-5.582 7.151-7.5.698-1.396-6.628 2.267-6.802 2.442-2.617 2.093-4.187 5.058-6.628 7.325-.524.523-6.977 4.709-4.012 4.535-.872 0-3.663 2.442-3.314 3.488.698 1.57 4.012.349 5.233.349 1.918 0 4.36-1.046 6.279-.697 1.569.174 1.569 1.569 3.314 1.046-.524.523-4.012 1.744-2.966 2.791 1.745 1.918 6.28-3.837 7.675-3.837 0 .872-2.093 3.662-1.744 4.186.523.697 2.093-.872 2.442-1.221 0 .697-.349 1.395-.698 2.093.349 1.569 4.012-2.093 4.012-2.093v-.175z"/><path d="M475.767 146.724c-1.046 2.442-1.395 1.221 0 0zm-2.267-64.71c-2.616 0 .698 2.966 1.57 1.222 1.918-3.663-1.919-1.221-1.57-1.221zm-45-58.778c.349-4.186 14.128-1.047 16.047.697.348-2.79 6.279-2.093 8.895-2.79 1.395-.349 1.918-1.744 2.965-2.093 2.093-.523 4.012 1.046 6.105.523.174-.872-21.628-2.267-16.221-4.884-3.838.524-2.093-1.918-.698-3.488 1.919-2.093 5.407-2.442 8.023-2.79 4.012-.524 5.233.174 8.896 1.22 2.616.872 5.93.698 5.232 2.442.175.349 4.884-1.395 5.407-1.395-2.442-.524-4.884-.175-7.151-1.047-2.267-.872-1.047-2.442-4.012-2.616 7.326-1.221 14.826-3.314 22.152-2.79 6.453.348 12.558-1.222 19.186-1.222 7.848 0 15.697-.174 23.546 0 4.709.175 11.686-1.046 15.523 2.617-1.569.523-11.511 3.14-12.209 1.395 2.267 1.57-8.198 3.14-10.116 3.488-4.884.698-9.593 1.57-14.303 2.791-9.244 2.267-17.79 7.326-27.383 8.72 6.104-.871-.872 2.443-2.093 2.966-2.442 1.047-5.233.698-7.849 1.047.523-2.966-1.221-1.396-4.361-1.396h-6.628c-.872 0-13.779-.872-12.209 1.221 4.535 6.105 19.709-5.407 25.116 2.79-2.616.698-4.883 2.268-7.674 2.791-2.791.35-4.884-.872-6.453-.872-4.71.175-10.291 2.442-15 .872.872 0 1.395-.697 1.395-1.57-.523.698-9.419 1.57-9.593 1.047-1.047-2.616 2.965-3.663 3.837-5.581-2.791-.349-5.581-.349-8.198-1.744l-.174-.35zm0 0c.349-3.837 2.965 1.57 0 0zm51.628-13.082s1.57 2.791 1.744 2.617c0-.175-5.058-2.093-5.756-2.093 1.396 0 2.791-.175 4.012-.524z"/><path d="M447.337 22.19a5.388 5.388 0 0 0 3.489-1.92c-2.442-1.395-4.535 0-6.105 2.094.872 0 1.744 0 2.616-.175zm0 0c-.872 0 1.396-.175 0 0zm-12.732-1.396c2.093 0 5.232 1.046 6.976-.698-1.221-.174-2.441-.349-3.837-.523 2.791-1.919 3.489-2.79-.523-3.837-4.012-1.047-7.674 4.011-2.616 5.058zm0 0c-2.093-.523 2.442 0 0 0zm2.267-7.151c1.047 0 1.919-.698 2.268-1.744-1.57-1.221-3.838-1.221-5.059.349 1.047.348 1.919.697 2.791 1.395zm0 0c-1.221 0 1.047-.349 0 0zm-19.011 3.488c1.046 3.314 12.906 3.837 10.639-1.046-1.221-2.79-12.907-3.838-12.209.523 1.395-1.046 1.918-.872 1.57.523zm0 0c0-.349.697 2.442 0 0zm-7.5 5.058c1.395-3.14-2.791-4.535-2.966-.523 1.047 0 2.093.523 2.966.523zM406 26.375c-2.791-.174-.174-3.314 1.047-3.314 2.441-.174 2.441 2.966 4.36 2.966-.523-2.791 3.14-1.919 4.36-.873-.523-3.14 7.675-3.314 8.547-1.395 2.267 5.581-11.163 5.581-13.256 5.581.872-3.488-3.663-1.046-5.058-2.79v-.175zm0 0c-3.488-.174 1.744 2.268 0 0z"/><path d="M421.872 28.643h-1.221c1.396 1.918 9.768 3.314 10.117-.349.348-4.012-7.675-.523-8.896.174v.175zm-19.535 5.407c-1.744 1.57 0 2.093 1.396 2.093-2.268 1.395-6.279-.698-8.198.697-3.314 2.617.872 2.442 2.442 2.442 0 0 1.046 3.489 2.093 3.838 2.442.697 2.79-2.268 3.488-2.617 1.919 3.663 10.989-1.744 9.768-4.186-.349-.872-2.093.872-2.268 1.221-.174-.523-.698-1.046-1.221-1.22 1.744-2.617 5.582.348 4.71-4.361-2.617-.175-3.838 1.046-6.28 1.395-.697 0-.523-1.046-1.046-1.046-1.221.174-4.012.697-4.884 1.744zm-78.139 7.325c5.581 0 .697 4.187 8.023 2.442 5.407-1.22 10.988-3.314 15.872-5.581-.698.349-6.105 2.442-5.756 3.663.698.349 1.57.523 2.268.349-.698.872-2.965 1.046-4.012 1.22 1.221 5.93 11.861.35 15.523 2.966-2.267 0-16.221-1.221-16.569 2.093-.524 4.011 6.104 1.22 7.674 2.79.349.35-3.14 1.221 0 2.965 1.221.698 3.14.35 4.36.175 5.059-.349 9.942-2.442 15.175-2.617 1.919 0 2.093-.348 4.012 0 1.918.35 3.837 1.92 6.453 1.396 1.919-.174 6.802-3.837 5.581-3.663 1.221-.349 6.628.872 6.279-2.093-.523-3.14-6.104-1.046-6.453-3.14 0 .698 3.663-4.883 4.186-5.406 1.221-1.221 7.674-3.314 7.674-4.535 0-.35-8.895-3.663-7.674 1.395-3.14.174-3.663-1.22-6.802.523-2.093 1.221-2.791 4.012-5.058 5.233.174-2.093 2.441-1.919 1.395-4.186-.175-.523-3.314-2.093-3.663-1.396 0 .524 0 1.047.523 1.396-1.046.698-3.662 1.22-4.883 1.046 2.093-1.744 0 0 1.395-.348-.872-2.442-3.663-2.442-5.756-1.57 1.57-1.919-1.395-1.396-2.267-1.396 3.314-2.093-15.175-4.011-15.698-4.011-5.407.349-9.419 2.79-13.953 5.407-1.57.872-6.105 4.709-7.849 4.709v.174zm20.93 1.919c1.395 0-1.047 0 0 0zm34.884 6.454h1.221-1.221zm-30.524-11.861c1.396 0-2.616.349 0 0zm32.268 14.826c1.744 2.616-5.756 1.57 0 0zm5.407-1.221s-4.012 1.046-3.314 2.267c.872 1.744 4.709-2.267 3.314-2.267zm5.407-6.105c.349.349.872.523 1.221.872-.175.523-2.617 1.047-2.791.523.174-.697 1.395-1.395 1.395-1.395h.175zm0 0c-.349 0 .523 0 0 0zm6.977-16.046s4.011-.35 3.837-1.57c-.349-1.396-5.931.174-3.837 1.57z"/><path d="M353.849 26.55c-.523-2.093 25.988-9.419 27.732-6.105.349.872-4.36 3.314-4.883 3.314 5.407.174 6.628 4.186 12.558 3.314-1.919-.349 1.221-1.395 1.57-1.395-2.442-2.966 4.36-2.791 6.453-2.791a9.351 9.351 0 0 1-2.616 2.616c1.918 1.221 7.849-2.093 5.407 2.093-1.919 3.14-7.5 1.919-10.465 1.919-3.14 0-17.965 5.756-19.884 2.267-.698-1.22 9.07-2.442 9.07-2.965-1.744.872-3.489 1.57-3.14-1.22-1.744 1.046-8.023 2.616-9.942 1.918-4.36-1.57 3.314-2.965 5.059-2.965-.873-.698-1.919-1.919-.524-2.79-1.221-.35-4.535 1.22-4.535 2.266.349-.174 3.14-1.046 3.314-.697 0-.175-6.279 4.011-7.151 2.442-.698-1.396 2.791-1.919 3.314-1.919-2.791-2.093-5.058 1.744-7.674 1.744 0 0-4.186-2.79-3.838-1.395l.175.349zm0 0c-.349-1.919-.349-1.396 0 0zm20.232-2.442c1.396 0-2.093.872-2.616 1.046.698-.697 1.57-1.046 2.616-1.046zm0 0c-1.395 0-.348 0 0 0zm0 0c-1.569 0 1.396 0 0 0z"/><path d="M380.186 22.887c.872 1.046 2.616 1.046 4.012 0-1.221-.698-2.965-.872-4.012 0zm9.419-1.919c-.524-.174-.872-.523-1.396-.872 1.745-1.57 4.361-1.57 6.454-2.093-.523 0-2.268.35-2.616-.174.523 1.046 10.465-3.489 11.337-1.396.872 2.442-12.558 5.059-13.954 4.71l.175-.175zm0 0c-.524-.174 3.662.872 0 0zM48.616 272.83c-1.57 0-2.267-1.047-3.663 0 .698-.523-2.093 5.581-2.093 5.232 0 1.221 8.896-5.407 5.756-5.407v.175zm-5.756-2.791c-2.267-1.744-2.79-2.267-1.57-2.093 0-.174-8.023.175-3.488-2.79 1.745-1.047 6.628 2.267 8.721 2.965-.523 1.744-1.918 2.965-3.663 2.093v-.175zm0 0c-.697-.697 1.745.872 0 0zm-9.418-6.104c2.965 0-1.57-4.012-2.442-2.093-.349.697 1.919 2.093 2.442 2.093zm-9.942-7.5c-2.79 0 0 2.441 0 2.441s2.79-2.441 0-2.441zm-9.244-.873s-.349-.697-1.047-.697c-.697 0-1.046.174-1.046.697 0 .524.349.698 1.046.698.698 0 1.047-.349 1.047-.698zm-5.93-.697s-.524-.698-1.221-.698c-.698 0-1.221.349-1.221.698 0 .523.523.872 1.22.872.698 0 1.222-.349 1.222-.872zM1 248.759s.523.698 1.22.698c.699 0 1.222-.175 1.222-.698 0-.872-2.442-.872-2.442 0zm26.512 14.826s-.698.523-1.047.697c.698 1.047 1.395 1.047 2.093 0-.349-.174-.698-.523-1.046-.697zm0 0c-.35.174.348.174 0 0zM608.326 54.282c-5.931 2.268-13.256 3.663-18.663 0-.523.873 2.442 1.396 1.221 2.442-1.221 1.047-2.791 1.744-4.186 2.617-2.442 1.57-4.71 2.79-7.326 3.837-5.058 1.918-10.291 2.442-15.349 4.186-1.046.349-3.662.697-4.36 1.395-.872.698-.349 2.616-1.221 4.012-2.268 3.662-6.977 5.93-9.767 9.593-1.047 1.395-9.942 12.035-9.942 6.977-1.221 1.57-4.535-2.442-6.105-2.791-2.093-.523-3.14.698-4.535-.175-3.488-2.267-5.232-10.814-5.232-14.302-1.047 2.268-.873-2.442 0-3.837-1.57 1.22-.524-.872-.524-1.221a.96.96 0 0 0-.872.523c-2.442 0 2.268-6.279 2.268-6.279-.872.349-1.745.175-2.617-.349-.348-1.046 3.838-5.058 4.71-5.755 2.616-1.745 4.535-.35 6.628-1.396 2.965-1.395 5.058-8.72-1.745-6.105.524.35 3.314 1.221 3.14 2.268-.175.698-5.93 2.093-6.454 2.093-4.011-1.221-2.79-6.28 1.047-5.233-2.093-2.093 2.965-4.36 3.837-3.314.698.698-1.221 1.047-1.395 1.396 1.395.523 6.279 2.79 6.977 0-2.791.698-4.71-1.396-4.187-3.663-4.186 3.663-8.372 1.744-4.011-2.965a2.888 2.888 0 0 1-2.093.872c-1.047-1.57 4.011-2.616 4.011-3.837-.174.174-2.441 2.442-2.616 1.046.523-.872 1.047-1.395 1.919-1.744-1.919.523-4.012-1.046-1.221-1.57-4.186.524.872-2.79.872-2.79-.698-1.047-2.267-1.047-2.791-2.093-.523-.698 1.221-.524 1.221-1.047-.174-3.14-19.36-.174-18.314-2.442-1.744.872-1.395.872-3.314.175 1.919 1.744-10.465 1.22-6.104-1.919-1.221.349-4.186.174-2.791-1.57 1.221-1.57 4.186-.523 5.93-.523-.698-.349-6.628-1.57-6.628-2.442.175-4.186 28.779-2.267 27.558-6.453-.348-.698-10.814.174-1.918-2.268 2.616-.697 5.407.35 8.023-.174 2.267-.523 2.965 1.22 1.919-1.221.523-.872 9.767-1.744 11.337-2.093 3.663-.698 8.023-1.395 11.686-1.047 1.046 0 6.105 0 2.965 1.745 1.221.523 3.14-1.92 4.535-1.92 2.267-.173 3.488 1.92 5.756 1.57-4.884-1.743-1.221-2.441 1.918-2.441 3.314.174 7.152 3.14 10.465 2.267.175.698-7.151-3.314-6.802-3.314 4.709 0 9.768-.174 14.477 0 3.663.175 5.407-.523 8.372-1.046 1.744-.349 12.035-1.744 14.477-.349.697.349-3.314 2.442-2.617 2.093 2.617.523 5.582-2.267 8.372-2.616 3.314-.35 7.152.697 10.466 1.22 1.221.175 12.035 1.222 12.035 2.268 0 1.047-9.593 1.744-10.814 1.744.348.698 10.988-1.395 7.5 1.744 1.221.35 6.453-1.046 4.534-1.744 1.396.524 1.396-.697 1.396.872 2.267 0 .872-.697 2.442-1.046 1.395-.349 6.453.349 8.372.349 1.918 0 10.465-.872 8.023 1.918-1.57 1.745-21.105 3.838-21.105 5.756.698.175 1.221.523 1.745 1.047-3.14-.524-8.373 1.918-9.768 4.883.698 0 7.5-3.837 7.5 0 0 1.221-3.139 0-3.663 0 .698 1.047 5.058 1.047 5.058 1.396.175 1.22-2.441 3.488-3.139 4.186 2.965-3.14-4.012-1.396-4.884-1.396 0 .175 5.582 3.14 0 5.582.523.523 3.314.174 3.489 1.046.523 2.093-6.105 2.093-7.152 2.093 4.71 4.186-5.755 1.919-7.674 2.617 1.395 1.57 6.628 2.267 1.744 4.36-2.965 1.221-7.151-1.395-3.314-3.837-.872-.523-4.186-.698-4.884 0 1.745 1.744 7.849 4.71 8.547 6.977.349 1.744-.174 2.79-1.395 3.837.523-.523-3.663 0-3.14 0-1.744-.523-3.488-3.663-5.407-3.663-2.791.174-.349 3.314-5.058 3.837 4.012.35 8.198.698 12.209.35-3.662 3.662-9.593 4.534-14.128 6.453l.524.348zm0 0c-3.14 1.221 4.186-1.744 0 0z"/><path d="M638.326 30.038c8.023 2.093-1.221-6.105-1.221-.698.349.35.872.524 1.221.698zm1.918-13.779s2.093.174 1.57-.698c-.698-1.57-2.965 1.221-1.57.698zm-.174 2.616v-2.093c.872.175 1.395.698 1.744 1.57l-1.57.523h-.174zm0 0c-.175 0 .523 0 0 0zm2.093.698c4.535-1.57-.349 2.093 0 0zm.697-3.314s-.697.698 0 1.047c.698-.35.698-.698 0-1.047z"/><path d="M643.733 16.782s.697-.523 0-.872c-.698.35-.698.523 0 .872zm2.441-1.744s-1.221-.872-1.744 0c.698.872 1.221.872 1.744 0zm-9.069 56.512c-2.966-1.221-8.896 4.011-12.21 4.011-.872 0-11.686-3.488-11.86-2.093.174-1.046 2.442-1.395 2.965-2.441-1.221.872-.523-1.047-.872-1.57-.872 0-4.884 1.395-5.233 0-.523-1.919 5.756-2.093 6.454-2.79-1.396-1.222-6.279 1.918-7.151 0-.698-1.57 5.93-4.013 6.802-4.013 3.837-.174 2.965 1.221 4.36 4.012.175-2.267 1.745-1.22 2.966-1.22 0-.698-.175-1.396 0-2.094 1.046.349 1.918.698 2.79 1.047-1.57-1.396 5.756-1.047 6.977-1.221 1.57-.35 2.791-1.221 4.36-1.221 1.57-.175 3.314 1.046 4.71.523.174-.174-1.57.698-2.093 1.047 6.976 0 2.79 9.593-2.442 7.674l-.523.349zm0 0c-1.396-.523 5.058 1.918 0 0zm27.383 7.674c-2.093 2.268-4.36 0-1.744 4.535 1.047 0 2.093-4.884 1.744-4.535zm0 0c-.872.872.175-.174 0 0zm55.117-65.232s1.918 2.442 2.093 2.79c.523 0-3.314-1.918-2.965-1.22 2.441 5.93 11.337-.698 12.907 1.395-2.966 2.442-5.931 1.395-1.57 4.884 2.267 1.744 5.058 2.267 7.151 1.22 2.093-1.046 2.616-4.534 4.709-5.407 2.093-.872 3.14-.523 5.058.873.349.348-1.221 1.744-.872 2.441.349.524 4.186 0 4.361-.697.697.872 6.453 2.093 6.628-1.047 0-1.918-12.035-1.395-11.861-4.709 3.314.523 12.558 2.267 14.826-1.22 1.918-2.792-2.093-2.268-4.361-2.268-2.267 0-17.79-.872-18.314.349-.523 1.744 5.233 2.093 5.059 2.441-.524 1.047-12.733-3.837-9.07.524-1.744.523-1.919-1.919-3.489-1.919-1.395 0-2.267 1.919-3.837 1.22.698.175 1.395 0 1.744-.697 0 0-8.721-1.744-9.244-.349.175.524.523 1.047.872 1.57l.175-.174zm22.849.872s1.744-.872 2.093-.698c-.524.523-2.093 1.221-2.093.698zm18.488.872c-2.442.523 1.395 1.744 1.221.349-.175-.35-.698-.524-1.221-.35zm3.314 1.046c1.744 0 3.663 0 4.535-1.57-1.919-.348-5.756 1.57-4.535 1.57zm9.767-4.709s4.012.349 4.012-.872c0-1.047-5.233 0-5.582 1.046.524 0 1.047 0 1.57-.174zm-11.337.175c.872.174 1.221-.175.872-1.221-.174 0-2.093.872-.872 1.22zm-19.535 17.965c-1.744 0-.872 1.744-1.046 2.093-.349.523 2.965-2.093 1.046-2.093zm15.872-7.326s-1.221.872-1.046 1.919c.523-.35 1.744-2.268 1.046-1.919zm-97.674 21.977c.523 1.046 2.616.349 3.663-.872.697-.872-3.14-.175-3.663.872zm17.965 44.128c.872 0 .872.349 0 1.046 1.744 0 4.186-4.186 1.919-4.186-1.047 0-2.617 3.14-1.919 3.14zm-21.279 13.43s7.849-7.151 4.36-6.977c-3.314 0-3.314 5.058-4.36 6.977z"/><path d="M665.36 98.41c-1.046.698-1.744 0-1.395 1.919-1.221-1.047-2.616-1.047-3.837 0 1.221.698 1.046 5.232 0 5.232 1.395 0 1.919-2.79 2.965-3.313-.523 1.395-.872 2.79-1.221 4.36.523-.523 1.919-2.267 2.791-2.093 0 1.221-4.186 2.965-3.663 4.012 1.047 1.569 2.442-1.396 2.965-1.57-.698 1.046-1.046 2.267-1.046 3.663.523 1.046 3.139-2.617 3.662-2.617 1.57 1.221-4.36 7.152 4.186 3.489-1.569 2.965 4.361 3.837 0 6.802-1.046.698-5.93-1.395-5.93.872.523.349 1.047.523 1.744.175 0 .872-.348 1.569-.872 1.918.524-.349 1.221-.349 2.093 0-.697 1.221-3.662 2.791-3.662 4.361 0 1.046 6.453 1.395 7.674 1.221-1.744 1.395-9.942 2.965-10.116 5.407-.175 2.441 6.279 0 7.5-.524 3.314-1.046 4.36-1.395 8.023-1.395 2.616 0 14.651-3.314 7.326-3.837 1.046-1.919 4.186-1.744 4.011-4.361 0-3.314-3.139-2.79-5.407-2.093 3.663-4.011-8.546-12.035-8.546-15 0-2.267 4.883-3.837 2.616-6.104-1.57-1.57-5.93 1.744-7.151 0-.698-1.047 3.488-2.442 4.011-2.617-.872-2.267 1.047-2.442.698-4.883 0 0-3.663-.175-1.57 2.441-1.221.698-4.186.524-5.232 1.221-1.396.873-1.396 2.093-2.617 2.965v.35z"/><path d="M660.651 122.131c.698-1.395.349-2.791.698-4.186 0-.698 0-1.395-.523-2.093.523-.349 1.046-.523 1.395-.872.523-2.267 2.267-4.186-1.744-5.756-.872-.349-4.361 0-5.233.349-.872.523-5.058 4.361-1.221 3.314-.349 0-6.453 1.395-6.453 1.919 0 .697-.175 4.534 1.57 4.36-4.71 2.791-5.233 8.198.872 7.151 2.616-.349 9.418-2.093 10.639-4.186zm0 0c-1.744 2.965.523-.872 0 0zm-10.814-2.791s0-.348.349-.348c1.221 0-.349.348-.349.348zm0 0c-.697 0 .349 0 0 0zm15.872-4.011c1.396.523 2.093-.872 2.617-1.221 1.221-.698-4.71.349-2.617 1.221zm-29.825-15.872s.697.698 1.221 0c-.349-.698-.698-.698-1.221 0zm77.791 73.779c-.698 1.221-1.919 1.918-2.617.872-1.918 2.093-.697 10.116 2.617 9.593 6.453-.872 1.22-8.023 1.046-10.64 0-1.395 2.616-6.104.523-7.5-4.883-3.139-1.744 8.024-1.569 7.675zm0 0c-.349.698.174-.349 0 0zm-24.594 9.07c5.407.523 1.919-3.14 1.221-2.791-.697.523-2.616 2.616-1.221 2.791zm0 0c-.697 0 1.221 0 0 0zm6.28-1.919c1.569.698-1.047-1.918-.873-1.57 0 0-1.918.698.873 1.57zm-11.687 4.709s2.617-1.221 1.745-2.093c-.524-.523-3.14 2.093-1.745 2.093zm74.826 1.57c-1.57-.174-.698 0-1.221.872-1.57 2.093 4.884-.174 1.221-.872z"/><path d="M767.047 190.852h1.221c1.569-.872-12.035-6.977-10.814-1.395.174.872 3.313 1.221 4.186 1.744.348.174 2.441 4.884 2.441 2.093.698.174.698 2.442 1.396 2.267.523-.174.697-.697.523-1.221.698.524 1.395 1.047 2.093 1.396 0-.872-1.221-4.884-1.395-4.884h.349zm-143.198 40.465s1.046-1.046 1.395-1.569c0 .348-5.756 2.965-4.36 5.755 1.395-.872 1.918-3.662 2.965-4.186zm-8.024 3.14c1.919 3.314-4.011 2.616 0 0zm-3.488 0s.698-1.047.872-1.57c0-.872-5.232 1.047-1.046 2.791 0-.523 0-.872.174-1.221zm-5.756-3.837c-2.616 0 .524 3.314.524 3.314 0-.349 1.046-3.314-.524-3.314zm2.268 5.058s1.395-1.221 1.046-1.744c-.872-1.396-2.616 1.744-1.046 1.744zm-1.396 1.046c.873-1.57-2.267-.872-2.616-.697.349.697 1.919 1.744 2.616.697zm3.663-22.5c1.919.175 1.57-1.395-.697-1.395 0 .872.523 1.395.697 1.395zm0 0c-.523 0 1.919.175 0 0zm-2.442-3.488c1.047-.175 1.221-3.663 0-3.663-2.093.175-1.744 4.012 0 3.663zm0 0c-.348 0 1.221-.349 0 0zm-26.511-20.756c0-2.093-1.221-.872-2.268-1.395-1.918-.872 2.268 3.837 2.268 1.395zm-6.454-4.535c-.697-2.267-1.569 0-1.395 0 0 0 1.744.872 1.395 0zm-2.616.872c.349-1.221-4.535-.697-4.709-.697.174 1.744 4.011 2.965 4.709.697zm1.57 99.244s-1.047-.174-1.919-.523c0 5.058 2.791.523 1.919.523zm0 0c-.698-.174.349 0 0 0zm3.663 2.268h-1.745c1.047 1.221.873 1.221 2.442.872-.174-.349-.523-.523-.697-.872zm0 0c-.524 0 .523.174 0 0zm5.581 2.267c-1.57-1.395-.698 1.396-.872 1.57 0 0 3.14.175.872-1.57zm-.872-1.221s.872-1.046 0-2.093c-.349.175-1.396 2.093 0 2.093zm-1.744 6.977c0-.872-1.221-1.744-2.093-2.093-.349 2.442 2.442 4.709 2.093 2.093zm1.57-3.663c0-1.569-1.221 2.617-1.221 2.965 0 .698 1.221-2.441 1.221-2.965zm-5.407 3.663s-.873-.872-1.745-.698c1.396 4.012 2.093.872 1.745.698zm321.976 11.163c-.872-.523-4.011-1.047-4.709 0-1.919 3.14 6.802.872 4.709 0z"/><path d="M1069.49 287.829c.17 0-5.41 4.709-3.84 4.709-6.63 0-5.23-3.314-5.23-7.849-.18-4.36-7.15-8.023-4.36-11.86-3.49 3.139-10.29-10.64-10.99-13.081 0 .348-1.22 3.488-1.57 1.046 0 2.616-3.14 1.919-3.84 0-.17.349.35 2.442-.52 2.442-.7 0-3.84 1.57-4.71-.698-.7 3.489-2.27 2.442-2.27-.697-.52 1.569-2.26 2.616-3.14 4.011-1.39 2.616-1.57 4.361-3.66 6.454-4.36 4.36-9.94 8.372-13.95 13.43 2.61 0-3.67 4.709-4.01 5.058-2.97 2.616-3.14 2.268-3.32 6.105-.17 2.267.87 4.535.7 6.976-.35 2.791-1.75 5.233-1.75 8.024 0 1.569.88 2.616.53 4.36-.53 2.268-3.14 2.093-3.14 4.884 1.05-.175 1.74.174 2.09 1.046.18-.348-4.882 2.268-5.405 2.617-2.442 2.093-1.57 4.36-5.233.697-6.104-6.104-7.151-18.139-10.814-25.814-3.837-8.546-7.5-15.174-9.244-24.418-.174-1.047-1.919-14.477-2.965-14.128 0 7.325-5.233 8.372-10.465 4.535-8.372-6.105.523-3.14 2.093-7.5-10.116 2.093-13.082-11.686-22.675-11.163-8.372.349-16.221.872-24.593-.349-2.965-.349-5.407-.523-7.5-2.791-1.569-1.918-1.046-5.407-4.36-5.407.174.175-1.395 5.233-2.616 1.047-7.675 8.721-20.407-11.86-24.245-16.047-2.093 3.489-6.802.349-5.581 6.628.872 4.361 5.93 6.279 7.849 9.942.697 1.221 1.046 6.279 2.442 6.803 2.79 1.046 1.221-3.489 2.79-4.012 2.966-1.047 1.396 8.023 2.093 8.895 1.745 2.093 6.977 1.919 9.07.872 3.14-1.744 3.489-6.628 6.454-8.197 3.662-1.919 2.267-.872 3.837 1.918 1.919 3.489.698 4.535 4.709 7.151 2.791 1.745 4.71 3.14 7.151 5.059 2.617 1.918 2.791.872 2.965 3.488.175 1.57-5.232 8.721-5.581 8.372-.174-.349-.349-.698-.698-1.046-1.395 0-1.22 6.104-1.744 7.151 0 .174-3.314 2.616-3.663 2.965-2.267 2.267-4.883 5.407-8.023 6.977-3.139 1.395-6.279 1.046-9.07 3.837-1.918 1.918-.174 2.442-3.139 4.36-1.57 1.047-3.489 1.047-5.233 1.57-4.186 1.221-7.5 3.663-11.686 5.058-3.139 1.221-8.895 5.233-11.86 5.407-7.675.523-5.582-13.081-7.151-17.965-1.221-3.663-4.361-6.453-6.105-9.767-2.267-4.186-5.581-6.279-8.023-10.117-2.268-3.662-1.919-8.197-4.186-12.035-2.093-3.662-4.884-7.151-7.151-10.814-2.268-3.662-5.059-7.151-7.5-10.639-1.221-1.57-2.268.349-2.791-1.57-.349-1.221.872-3.488.872-4.709-.523 2.791 0 7.325-3.488 5.93-2.617-1.046-4.535-6.628-5.756-9.07-.698 4.012 4.011 8.198 5.756 11.512 2.267 4.012 4.011 8.023 6.627 11.86.698.873 2.093 2.442 2.442 3.489.349 1.221-1.046 1.744-.872 2.616 1.221 4.361 5.756 6.628 6.977 11.163.698 2.442 0 5.232.698 7.674 1.221 3.489 2.965 3.489 5.058 6.105 2.616 3.488 2.267 7.849 4.883 11.337 2.617 3.663 8.024 6.977 11.512 10.291 1.047 1.046 3.837 2.442 4.186 4.186.698 3.663-1.046 2.442-2.616 5.232 4.36 0 6.628 3.838 10.988 3.838 4.535 0 12.558-2.617 16.744-4.012 2.791-.872 5.233-3.488 7.5-1.395-.523-.524 1.221 7.325 1.221 6.628-.174 1.046-2.093 0-2.267 1.046-.349 1.919-.174 3.663-.698 5.407-1.046 3.663-3.488 6.977-5.232 10.291-4.186 8.546-8.547 16.046-15.872 22.325-6.977 6.105-12.907 12.907-18.489 20.233-3.663 4.535-9.418 12.209-8.197 18.314.174 1.046 1.395 2.616 1.744 4.012.523 2.616-.349 5.232 0 7.674a13.135 13.135 0 0 0 1.57 5.058c.523 1.047 2.616 2.093 2.965 2.791 1.046 2.616-.524 6.104-.524 8.721 0 3.662 1.047 7.5.524 11.163-1.396 9.418-9.593 9.941-15.524 15.523-1.395 1.395-7.151 10.814-9.767 8.546-1.395 4.012 2.616 11.512 2.442 16.221-.349 7.151-3.837 5.756-8.721 9.768-3.489 2.965-1.57 5.581-2.791 9.593-1.744 5.755-6.453 10.465-9.942 15.174-6.104 7.849-13.081 14.302-22.5 15.872-5.581.872-11.163 1.57-16.744 2.442-3.837.523-6.453-1.221-9.244-1.221-.523 0-1.395-7.5-1.395-8.023-.175-3.663.697-5.407-1.221-9.593-1.919-3.837-4.884-7.151-6.977-10.989-4.709-8.372-3.488-16.569-5.233-25.465-1.744-8.721-9.244-15.349-10.465-24.418-1.046-7.326.698-15.872 4.361-22.151 1.744-2.791 3.488-4.361 3.488-7.849-.174-3.663-3.139-6.454-3.139-9.942 0-2.093 1.569.349 1.22-4.012-.174-1.57-1.046-3.314-1.744-4.709-1.569-3.314-2.79-6.454-4.186-9.593-1.57-3.837-4.709-6.802-7.325-10.116-2.268-2.791-6.454-6.977-5.407-10.814.349-1.221 2.442-2.093 2.965-3.663.174-1.047-.175-1.744 0-2.791.523-2.442 1.221-6.453 1.221-9.07.349-7.674-4.186-7.325-10.117-7.325-5.93 0-6.453-2.616-10.116-6.279-9.767-9.593-21.104 5.756-31.221 4.011-5.058-.872-8.023-2.441-13.43-.523-3.837 1.221-5.233 2.965-9.244 1.919-5.233-1.396-13.256-9.419-16.919-13.431-3.139-3.139-2.965-6.976-5.407-10.465-1.744-2.441-4.535-4.535-6.453-6.802-.524-.698-.698-2.093-1.221-2.616-.698-.523-2.093.174-2.616-.349-2.268-2.268-2.093-3.314-2.617-6.454l-.349-5.232c.175-2.093-.697 0 0-3.663.524-2.965 3.314-6.279 4.012-9.418 1.047-4.535.349-15.175-1.919-16.745-4.36-3.139 8.024-19.36 9.419-22.5 3.14-6.976 7.674-9.942 13.954-13.779 2.965-1.918 6.104-4.883 7.325-8.372 1.221-3.837.175-7.674 2.616-11.163 1.919-2.965 5.407-4.186 8.024-6.453 2.093-1.919 2.965-6.105 4.883-7.5 3.489-2.616 3.663.872 7.152 1.744 2.267.698 7.325-.523 9.593-1.221 7.848-2.442 15-7.5 23.721-6.802.697 0 1.395.872 1.918.872 2.093.174 2.442-.698 4.884-1.047 1.046 0 1.744-.523 2.616-.523 1.221-.174 2.965.872 4.186.872 2.093 0 11.512-2.79 12.733-1.046.697 1.046-1.919 3.837-2.093 5.058 0 .523 1.569 4.186 1.569 2.093 0 4.186-3.488 5.93-1.22 8.895.697.872 4.36 2.268 5.93 2.791 3.663 1.221 7.5 1.046 10.814 3.314 3.139 2.093 4.186 3.663 7.849 5.232 4.36 1.919 8.895 6.454 11.86 1.221 1.221-2.267-.174-5.232 2.093-7.325 2.791-2.616 6.279-1.919 9.419-.698 1.046.523 2.441 1.57 3.662 2.093 3.489 1.57 7.5 2.442 11.163 3.489 3.489.872 7.326 2.441 10.989 1.918 4.36-.698 6.453-2.442 11.162-1.57 9.593 1.745 9.245-1.918 11.512-9.942 1.047-3.662 1.221-4.534 1.221-8.023 0-.174.174-7.151.523-6.802-.174-.175-6.279 1.046-6.628 1.046-1.569.524-1.569 2.093-3.662 2.268-1.745.174-3.14-1.221-4.535-1.744-1.221-.524-2.791-2.093-4.186-1.919-3.14.523-1.047 1.744-2.791 2.442-1.919.872-5.233 2.616-5.233-1.744-.697.523-2.093 1.046-2.093-.524-.349.175-2.965 5.059-3.314 4.187-1.569-3.663 2.965-1.919-1.046-3.838.872.349 1.918-.523 1.918-1.395-1.918.523-3.139 1.395-4.534 2.616.174-.697 1.395-3.663 2.441-3.663-.697-.174-2.79-3.139-2.965-3.139-3.837.523 3.837-.523 1.57-.523.174 0-6.105-2.965-6.105-1.221 0-1.57 4.186-2.965 4.186-6.105-.872.523-1.395 2.093-2.267 2.616-1.744.872.523-7.151.872-5.407-.174-.697-1.395-3.139-2.442-3.488-2.093-.872-5.232 1.047-7.151 1.57.349-.175-5.756 3.139-5.233.523-.174 1.221 12.907 13.954 5.931 10.291.697 1.046 1.046 1.918 1.046 3.139.698-.872-12.035-4.36-12.035-4.36-3.139-1.919-5.755-6.105-6.628-9.593-.697-2.791-.174-4.186-1.395-5.93-1.57-2.268-4.36-3.314-6.802-4.535-2.965-1.396-4.71-1.919-7.151-4.535-.698-.872-2.268-3.663-2.965-4.186 0 2.267-2.094.349-2.094-.524-.697 2.442-2.965-4.709-5.93-2.441-4.36 3.139 3.489 8.023 4.884 9.941 4.012 5.233 7.849 7.326 13.256 10.466.523.174 8.023 4.883 3.663 5.755-1.745.349-3.314-4.186-5.756-2.965-2.616 1.221.697 3.663.697 4.361 0 1.744.524 1.395 0 3.139-.348 1.047-4.534 5.931-5.232 3.314-2.791 3.14 1.046 6.454-4.361 5.756-1.22-.174-7.848-4.36-7.151-5.756.872-1.744 9.419.698 11.686-1.744 3.838-4.012-.697-6.802-3.662-9.07-3.14-2.267-6.628-3.837-9.942-6.279-1.221-.872-3.489-5.232-5.233-5.232-1.57 4.36-2.093-1.745-1.57-.872-.872-1.745-.349-4.535-3.314-5.407-3.314-1.047-4.883 2.441-7.325 3.662-3.489 1.57-5.756 0-9.419 0-7.151.175-4.186 5.407-8.721 8.896-3.488 2.616-8.895 2.79-10.29 8.197-1.047 4.012 2.093 4.884-1.745 8.721-1.744 1.919-5.232 4.186-8.023 5.233-2.442.872-5.407.174-7.849.872-3.663.872-2.965 3.14-6.628.523-3.662-2.616-5.058-5.93-10.639-2.093 2.093-5.058-.872-8.372 0-12.907.872-4.709 2.442-7.325 2.267-12.383-.174-3.314-1.569-3.663 1.744-5.756 2.966-1.919 7.675-.524 10.989-.175 8.198.872 16.395 3.489 17.093-7.325.174-4.012-.349-5.582-3.663-8.372-2.965-2.268 0 0-3.314-1.919-1.221-.698-4.186-1.221-4.884-2.616-1.918-3.837 1.047-3.489 4.186-3.489 1.221 0 4.186 1.396 5.407.524 1.745-1.221.349-2.442.872-3.14 1.745-2.267-1.918-1.221 1.745-1.221 0 0 2.267 1.047 2.79 1.047 2.093 0 4.012-1.396 5.756-2.965 2.965-2.617 5.407-4.535 8.372-6.628s4.361-5.233 7.326-7.152c2.965-1.918 7.325-1.22 10.116-3.139 3.837-2.442.872-.349 2.093-3.837-2.79 1.395-2.442-8.024-1.744-9.244.872-1.57 5.756-4.71 7.849-4.012 2.616.872-1.919 9.07-1.919 10.291.175 2.616 5.407 4.36 3.314 5.93 1.57.872 12.558-5.058 10.814.349.175.872 10.465-3.314 11.337-3.314 4.186-.698 7.675 2.093 10.64-2.093 1.918-2.791 0-10.64 5.232-10.814 1.919-.175 2.791 2.616 4.361 2.616 3.488 0 2.267-2.965 2.616-5.407-1.046 1.047-3.139-1.046-3.837-1.395-.349 2.79-6.628 4.709-4.186.697 1.046-1.57 4.012-2.616 4.709-2.965 6.105-2.79 13.43-2.267 20.233-3.837-3.14-.349-5.582-1.744-8.721-1.744-3.663 0-6.977 1.744-10.64 1.744-2.965 0-6.279-.698-8.023-2.79-3.488-4.361-2.093-9.07 1.395-12.384.872-.873 9.245-6.628 9.245-6.28-1.047-4.883-11.163-.523-12.907.873 2.441.523-11.512 11.337-11.512 13.953-.174 5.407 6.105 2.79 6.105 7.849 0 4.884-8.198 4.71-7.5 11.86.348-.697.872-1.046 1.395-1.395.523 0-1.395 4.361-1.744 4.709-.175.349-3.14.524-4.361 1.047-1.046.523-2.441 1.046-3.139 1.395-.349 0-.175 1.396-1.047 1.57-3.488.698-2.79-1.395-5.93.698 4.361 1.744-4.36 4.186-4.012 1.744.524-.698 1.047-.872 1.919-.872-.349-2.268-3.314-1.047-1.046-4.186.523-.523 2.616.174 3.488-1.047 2.267-3.314-4.884-10.116-6.279-14.128-.872 2.965-7.151 6.28-9.942 6.454-2.267.174-9.767-2.617-5.058-5.233-.175-.523-2.093-.697-2.093-1.046-.349-.35-.349-2.268-.349-2.616-.349-1.221-.698-2.442-.698-4.012-.174-4.012.524-9.419 6.803-7.151-1.047-2.093 1.569-1.221 2.442-.872.174-.35-.175-3.663.523-3.663 1.57 0 2.093.349 4.011-.349 1.745-.523 5.582-1.919 6.105-4.186-.523.174-.872 0-1.046-.523.348-.872 2.616-.698 3.313-1.221.873-.872 1.57-2.617 2.268-3.489 1.744-2.441 7.325-5.581 7.325-9.07-.872.175-6.279 2.966-6.976 1.745.523 1.046 6.279-5.582 6.279-5.582.872 0 .349 1.047 1.918.698 1.221-.174 1.57-1.744 1.57 1.047.872-1.221 1.57-1.221 2.093.348 1.047-1.22 1.57-5.581 3.489-1.22 1.046-1.745 5.93-8.373 5.407-2.442 2.616-1.919 4.011-2.617 7.325-2.268-.872-.697-1.744-1.22-2.616-1.744-.175.174 6.802-2.093 5.232.174 1.047-.697 1.745-.523 2.093.698.873-1.046 2.791-3.14 4.361-3.14 3.139.35-.872 3.315-1.221 4.187 2.093-.175 2.267-3.314 4.186-3.314.349.697.698 1.395.349 2.093 1.744-.698 3.663-4.71 5.756-2.093l-1.57 2.093c1.395.349 3.139-1.745 5.058-1.221.698 0 4.535 1.744 3.488 2.442-1.221.523-2.441 1.046-3.662 1.395 1.395.174 13.255-1.221 9.942 1.57 1.22-.524 1.918-.175 2.267 1.046 2.616-4.535 13.081 2.442 16.395 3.314 2.442.698 13.256 1.919 9.244 6.977-4.534 5.756-19.709-2.616-25.639-.872 1.395 1.046 3.663 1.046 5.058 2.442 1.57 1.57 1.221 3.663 2.616 5.232 2.268 2.617 7.152 5.407 10.64 3.663-1.047-1.395-6.454-2.093-5.407-4.535 1.046-2.267 8.198 2.79 9.767 2.442 4.884-1.047-.697-2.442 0-4.71 1.221-3.836 10.64-3.139 12.733-1.743-.174-.873.174-2.617-.175-3.489-.174-.523-3.313-.349-3.313-1.395.174-1.047.872-1.57.872-2.965 0-.698-2.268-1.744-1.745-2.268 1.919-2.093 8.721 1.744 10.291 3.314-1.395.523-3.837.175-4.709 1.57.174 1.047 4.011 2.442 4.884 2.442 3.662-.349 1.395-1.395 3.488-2.79 1.919-1.396 4.012-2.617 6.279-3.14 1.744-.524 4.535.174 6.105-.524-1.221-.348 5.93-4.709 5.93-2.093 0 2.268-3.488 2.442 1.57 2.268 3.314-.175 7.5-4.012 11.162-2.617-.174-.523-.697-1.395-1.046-1.744 2.442 1.396 1.919 3.489 4.012 3.838-.873 0 2.79-2.093 2.79-2.442-1.918-.35-12.035-3.838-8.197-5.233 2.093-.698 4.883 2.267 6.104 2.442 1.396.174 4.361-.872 6.454-.523 5.407.872 10.465 3.14 15.697 4.709 9.593 2.616.349-4.71-2.616-2.093 1.744-3.14-2.267.523-1.744-1.221.349-.872 1.395-1.395 1.919-2.093-.698-.174-4.71-3.14-4.71-3.488 0-.872 4.012-5.93 4.71-6.977 1.744-2.268 1.569-3.837 5.407-1.57-1.047.349 0 .349-1.57.698 3.488.523 5.756 1.22 7.5 4.011 0 .873-.349 1.57-1.047 2.093.698.698 1.57 1.396 2.442 1.919.698 1.047 2.268 2.616 3.14 3.837 1.744 2.093 6.279 5.756 5.93 8.721-.349 3.314-4.884 5.058-7.675 5.058 5.059 2.617 11.163.698 11.512-5.232 0-.698-2.616-1.396-1.57-3.314 1.047-1.744 2.617-1.744 4.535-1.744-2.79-.524-6.104 1.918-8.372-.524-1.221-1.395-.698-3.837-1.918-5.407-.873-1.046-4.535-2.616-4.535-3.488.348-1.744 4.186-1.395 4.186-2.79.174.697-4.535-3.663-2.093-3.14 1.744.349 1.395 1.918 2.616 2.79 1.395.873.523 1.92 2.616 3.14 2.268 1.395 5.407 0 7.849 1.395-.523-.523-8.372-.872-7.151-2.965.698-1.046 4.186.175 5.407-.349-1.744-.697-3.314-.697-5.058-.697.697-1.396 5.407-3.489 6.802-2.617 1.047.698-3.14 1.047-2.791 1.047 2.268 1.047 12.384 4.884 14.303 2.79 0-2.441-12.733-1.918-10.814-6.104 1.569-3.488 13.256-.523 16.395-2.442-.872-.349-7.326-.698-7.326-1.395.175-3.314 27.907-8.721 28.431-6.628-.175.523-.349.872-.698 1.22 2.791-1.22 6.802-2.615 9.768-2.092-3.663-1.221 3.488-3.663 4.36-3.837 2.442-.524 9.767 1.22 5.581 1.744.872.349 8.372 0 5.582 2.616 6.453-1.57 11.337-.698 18.488.698-.349-.35-.349-.698-.349-1.221 3.84 3.488 7.67 3.14 2.791 6.977-2.093 1.744-10.116 3.662-10.116 6.802 0-3.314 10.465-.349 11.165-3.14-.53 0-3.142.698-3.142-.523 0-1.57 4.012-1.046 4.882-1.57-3.835-.523 4.01-2.267 4.01-.523 0 .872-3.83 1.57-3.83 1.57 1.57 1.57 4.88.174 4.18 0 .53.174 1.75 1.22 2.27 1.22 1.57.175 2.96.35 5.23.175 3.84-.349 6.63-.349 10.29.523 5.24 1.396 11.17.873 16.22 2.442-1.91-2.79-5.93-3.314-.35-3.837 2.1-.349 6.63 1.047 8.2 1.221 9.6 1.221 15.35 8.023 24.42 10.64-1.22-5.233-1.05-3.14 2.09-3.489 3.49-.349 12.74-.872 15.53.872-.53-.349-.87-.697-.87-1.22.52-1.047 3.83.697 4.53.697-.7-.872-6.1-3.837-6.1-3.488 0-.35 4.18-.524 4.36-.524-.7-.348-1.22-.697-1.75-1.22.53-2.442 15.35 2.965 16.4 1.395-.18.349-2.44-.349-2.44.523 4.36.349 8.72-.698 13.08.523 2.96.872 5.05 1.919 8.19 2.442 4.19.698 8.2 2.268 12.74 2.268 5.06 0 10.11-1.57 15.17.174 3.49 1.395 6.28 4.012 9.94 4.71 3.84.697 8.2-.175 12.04 0 1.92.174 4.18.697 6.1.174 1.22-.175 2.79-2.093 3.84-2.093 1.4 0 6.28 2.965 3.49 2.965 1.57.698 8.37 3.837 9.59 1.744 0-2.616-3.66-1.22-4.88-1.919-1.4-.697-1.75-1.744-2.97-3.14 3.84 2.094 9.07 1.222 13.08 1.222 6.11 0 12.04 1.046 17.97 2.442 6.1 1.395 12.21 2.79 18.31 4.36 5.93 1.744 11.17 4.884 17.1 6.28-.35-.175-3.49-1.396-3.32-2.268.87-2.093 11.51 1.744 12.91 2.093 1.74.523 6.45 1.395 7.15 3.14 1.05 2.79-.7.871-2.62 2.092 2.97 2.268 7.16 3.489 2.97 4.71-2.27.697-9.07-.872-11.69-1.919-1.74-.698-2.96-2.442-4.88-2.79-2.27-.524-4.19.697-6.28.348-1.57-.349-6.28-4.36-6.98-2.79 1.4 1.395 5.93 1.046 4.89 4.186-.7 2.267-4.01 1.918-5.93 1.57 1.22 1.918 21.1 6.627 16.04 9.592-1.04.698-4.18-.349-5.58 0-2.61.524-4.53 1.57-6.28 3.663-.69.872-2.61 6.454-2.79 6.454-1.57 1.046-4.18-1.57-5.58-1.919-2.09-.349-3.14.175-5.06.523-3.14.698-2.26 2.965-5.58 0-1.22 1.396-2.44 3.14-5.06 2.268 2.1.697 1.75 5.407 3.14 6.802 1.75 1.744 3.84.872 5.58 2.093.18.174 0 2.093.7 2.616.7.524 1.75.698 2.44 1.221.88.698 4.89 1.57 3.84 3.489-.7 1.221-3.49-1.57-3.66-.524-.18.873 5.75 6.628 5.23 6.977-4.71 2.965-2.62 3.14.7 6.977-1.57-.698-2.97-.523-4.54.174.7 1.221 4.54 15.175-1.57 13.431-1.74-.524 1.92-4.187 2.27-4.187-6.1-7.5-15-12.209-21.63-19.186-.87-.872-6.62-10.988-6.28-11.337.7-.872 2.1 0 3.14-1.395.88-1.395.88-2.965 1.22-4.535.35-2.093-.52-7.849 3.32-7.151-1.22-1.919-4.89-8.547-8.2-6.628 2.27 2.79 3.14 1.919 2.27 4.186-.7 2.093-2.79 2.965-4.19 2.965-2.09-.174-4.71-3.837-6.1-4.186-2.1-.698-6.46-.872-7.85 1.047-.7.872-.7 6.279 0 7.15 1.22 1.396 6.8.524 2.62 2.966.17-.175-7.16 1.046-7.5 1.046-2.8.175-6.63-1.22-1.75-2.442-1.92-1.744-7.5-1.22-10.12-1.046.7.174 1.4.523 1.4 1.22-.87 2.268-15-.871-16.74-.522-8.03 1.395-8.73 14.476-13.43 20.407 1.04.174 4.18 1.395 5.4.523-.52-.175-1.04-.523-1.22-1.047.52-.174 5.06 2.093 4.89 2.442.69-1.046-3.14-1.744-2.62-3.139.7-2.442 3.66.872 3.31 2.442.53-.524.88-.524 1.22 0-.34 1.221-2.26 2.093-2.44 2.441.18-.348 3.49 1.047 3.49 1.047 3.31-.872.35.523 1.57-2.093 2.62-5.407 16.4 8.198 17.62 9.419 0-2.268-2.1-3.838-2.97-5.756.18.174 2.27 0 2.27 0-.7-.872-4.19-2.965-3.84-4.186.52-2.093 12.91 11.86 14.48 13.255 1.92 1.57 14.65 9.594 13.78 12.384-.53 2.093-7.15-6.279-6.98-.523 0 2.791 11.69 11.163 10.64 12.384.35-.175-4.71-1.919-5.23-1.919 0 .872.17 1.744.17 2.616 0 .698-4.01-4.709-4.18-5.058-1.75-2.965-3.49-5.058-5.59-7.849-3.13-4.36-5.23-13.081-11.68-14.128 1.22 4.884 4.53 8.198 6.1 12.907 1.57 4.535.88 10.64 0 15.349-1.22 6.454-5.93 19.186-14.3 12.035-.17 1.744-2.27 3.14-2.62 4.012-.52 1.744.35 3.663 0 5.756-.52 2.616-3.13 2.965-3.66 5.058-.87 2.965 2.27 4.535 4.19 6.104 3.49 2.966 10.11 7.675 10.46 12.559.18 2.79-.69 3.662-3.31 5.058 0 0-3.49 1.744-2.97 1.744-2.61-1.919-2.79 3.139-5.23-.523-1.05-1.396.35-4.012 0-5.407-.35-1.221-1.05-1.221-1.57-2.617-1.92-4.36-1.04-5.581-5.06-6.628-2.09-.523-2.61.524-4.36-1.744-1.39-1.744-.52-4.186-1.74-5.756-2.44-3.139-5.58-2.093-8.55-.523 0 0-6.63 4.709-6.1 2.965.7-2.616 2.09-11.337-4.01-8.895-2.79 1.221-2.79 6.105-4.54 7.5-3.14 2.616-6.98.523-.17 4.36.87.524 2.26.349 3.14 1.047.69.523 0 2.093.69 2.616 2.97 1.919 1.75-.174 4.19-1.221 1.74-.872 6.98-1.744 8.9.872 3.31 4.361-8.55 5.931-6.98 11.338.52 1.744 3.14 2.616 4.36 3.837 2.44 2.442 4.36 5.058 6.8 7.5 4.01 4.011 5.76 8.023 1.05 10.29 1.04-.348 6.8 2.966 6.8 1.221-.52 4.884-1.57 8.373-3.66 12.733-.87 1.919-1.92 4.709-2.27 6.628-.17 1.395 1.74 1.046 1.22 2.616-.7 2.268-6.1 6.454-7.85 8.023-4.36 4.186-9.59 5.756-13.78 9.942-.52.524-1.57-2.79-1.57-2.79-2.09 4.186-5.23.872-8.19 2.79-2.8 1.744-.53 3.14-1.92 4.884-4.36 5.233-2.44-5.058-3.14-5.058-6.28 0-16.92 4.011-14.83 12.384.87 2.79 5.93 6.627 8.03 8.721 2.96 3.139 6.45 6.104 8.37 10.29 1.92 4.012 3.31 10.465 1.39 14.826-1.92 4.535-4.71 3.837-8.02 5.756-1.92 1.046-3.66 5.755-6.63 7.151-4.36 2.267-2.09-2.093-2.09-5.756-1.05 1.046-2.09-.349-2.79-1.047a3.99 3.99 0 0 1-.87 1.396c-.53-.523-.7-1.221-.35-1.919-1.22.523-2.1 0-2.27-1.395 1.05 4.186-3.14-3.314-3.14-3.314-1.57-2.442-3.66-3.14-5.93-4.884-.7-.523-1.74-.698-2.44-1.221-.7-.697.7-2.442-.53-2.79-2.96-.873-2.44 1.918-2.96 4.36-.7 2.965-1.57 5.93-1.92 8.895-.17 1.745-.52 3.838.18 5.407.52 1.396 1.22.349 1.56.872 2.8 5.582 5.59 9.245 10.82 13.431 6.98 5.755 3.49 10.465 6.63 17.442 1.04 2.441 8.02 8.023 2.61 8.546-4.36.349-11.33-8.895-13.08-12.035-1.92-3.139-2.79-6.628-4.18-9.942-.88-2.267-3.67-11.686-4.89-7.674.53-2.442-1.04-3.14-2.27-4.884-.17.523-.52 2.965-1.22 2.965 0 0 .35-17.965.35-19.535-.52-4.709-2.61-8.721-4.18-13.255-.88-2.268-1.05-6.105-1.92-8.198-.18-.523-2.44-2.442-2.97-3.663 0 1.221-.52 2.268-1.39 3.14l-.35-.698zm0 0c-.7.698.87-1.047 0 0zm90.52-57.733c-1.92 2.268 1.05-1.221 0 0zm-51.8-189.418c.87-.35 2.09-.523 2.96-1.047-.34 2.093-2.26.698-2.96 1.047zm-185.233 16.57c-2.268 0-4.361-4.535-6.454-5.582 2.965.349 6.105 5.582 6.454 5.582z"/><path d="M1125.83 275.271c3.31-2.617-6.11-5.058-8.03-.349-1.04 2.616 1.05 7.5 4.54 6.105 2.26-1.047 1.74-4.361 3.49-5.756zm0 0c-1.75 1.395 4.7-3.837 0 0zM1231 92.829c-2.62-1.221-2.97 3.14-1.22 2.965 1.22 0 2.96-2.267 1.22-2.965zm-348.139 343.43c0 .175.174 3.314-1.221 4.884-.175.174-1.396-2.093-1.745-2.093.698 0 0 6.628 0 7.151.349-1.57-1.918 2.791-1.569 2.267-1.57 2.617-2.442 6.803-3.489 9.593-2.79 7.849-2.616 22.675-11.162 26.512-11.338 5.058-13.78-11.512-10.814-19.012 1.395-3.488 4.011-4.883 4.011-9.069 0-2.268-1.395-4.361-1.395-6.628 0-2.442 1.395-4.012 1.744-6.105 0 .175 0-4.186-.698-3.488.698-.698 6.279.697 7.849 0 1.047-.523 6.105-6.105 6.803-4.535.174-.349 2.093-6.977 2.79-5.93 0-.349-.697-2.617 0-2.617 3.14 1.57 0 1.047 2.442-1.569.523-.698.872-4.361 2.616-3.838 3.314 1.047 2.442 12.384 3.663 14.303l.175.174zm0 0c-1.57-2.616.348.698 0 0zM1011.58 328.12c-.7-1.396-3.84-9.07-6.45-8.547-2.79.523.35.698-.53 2.442-.69 1.221-.69.698-1.22 1.395-1.39 2.442.7 13.605 3.49 15 5.93 2.791 6.28-7.325 4.71-10.29zm0 0c-.7-1.57.35.523 0 0zm43.78-18.14s-.35 1.047-.35 1.395c1.05 1.57 5.06-9.069 1.75-9.069-1.92 0-.88 6.802-1.4 7.674zm0 0c-1.39 2.268.17-.349 0 0zm1.22 5.93c-.52-1.918-1.39-.523-1.92-.523-1.39 0 2.79 4.186 1.92.523zm.7 6.454c1.39 0-1.05 3.314 0 0zm3.66 5.407s-.52-.698-.87-.872c0 .349-1.57 2.965 0 2.965.87-.349 1.05-1.047.87-2.093zm0 0c0-.349 0 1.046 0 0zm1.22 4.186c-2.96-2.093 0 2.79 0 2.79 1.92 0 0-2.441 0-2.79zm10.47 21.104c-3.49-2.267-.53 1.745 1.57 2.442 0-.872-.87-1.918-1.57-2.442zm6.28 6.803c.35.349 2.09 3.837.69 3.837-1.39 0-2.96-4.186-2.96-5.058 1.05-.175 1.74.349 2.09 1.221h.18zm0 0c-.7-.698.17.174 0 0zm-1.57-2.268c0-1.221 1.04-1.918-.7-2.267 0 .872.52 1.395.7 2.267zm5.4 9.942c0-1.046-.34-1.395-1.39-1.395 0 .349-.35 3.663.52 3.663.53-.698.87-1.396.87-2.268zm-.17-1.918s1.4.348 1.57 0c.87-1.745-3.49 0-1.57 0zm2.27 5.407c-1.57-1.221-2.44-1.047-2.27 1.046.52 5.407 5.23.349 2.27-1.046zm4.36 6.279c1.39.697 1.57 3.139.87 4.534-.87-1.918-1.05-3.313-1.74-5.232-.18-.349-1.92-.698-2.27-1.221-.53-.698 3.14 2.093 3.14 2.093v-.174zm0 0c-1.57-.698.52.174 0 0z"/><path d="M1108.56 393.003c-8.2 3.314-19.01-22.674-22.15-27.209-3.14-4.709-5.76-8.895-9.42-13.081-2.62-3.14-4.71-3.838-7.15-7.849-3.67-6.105.17-5.756 5.4-3.489 5.93 2.791 8.55 8.721 13.61 12.559 1.22.872 19.01 11.511 13.6 12.907.53 0 3.84 4.709 4.36 5.755 1.05 1.745 3.14 6.105 5.93 6.105-.17-1.57-6.45-7.326 0-5.058.35.174 4.36 4.884 4.36 4.186.53 3.314-2.96.872-3.66 1.918-1.22 1.745-.7 3.14-.87 5.233-.35 4.36.87 6.279-3.49 8.023h-.52zm0 0c-3.66 1.396 2.96-1.221 0 0z"/><path d="M1106.47 367.538c-.35-3.314 2.09-2.267 3.48-.523-1.22.349-2.44 2.791-3.48 2.791-1.05-.698-1.05-1.396 0-2.093v-.175zm0 0c-1.05.349-.35-3.314 0 0zm13.25 13.954c4.71 1.569 3.14-6.454-1.39-2.093.17.174 1.39 2.093 1.39 2.093zm8.55 21.279c-1.92-1.919-4.89.349-7.15 0-2.62-.349-3.84-1.57-6.11-2.791-.35-.174-8.2-4.186-6.1-4.186-.88 0 1.57.872 1.57.872-.88-1.046.69-1.395 1.57-1.744v-1.047c.52-1.046 1.39-1.22 2.61-.348 3.14-.872 6.46 1.221 9.42 2.616 2.27 1.046 3.49 1.395 6.11 1.395 1.39 0 1.22-1.918 2.44-1.918.52 0 4.53 1.395 6.1 1.395 1.75.174 6.11.174 7.5 1.744.53.523-5.93 1.396-5.4 2.093 1.57 2.442 7.84.698 9.94 2.965 1.04 1.221 1.74.872.17 2.617-2.44 2.616-2.09-.175-4.01-1.57 0 .349.87 2.442.17 2.616-1.39.523-2.96-1.744-4.18-1.918-1.57-.175-1.22.348-2.97.348-4.01-.174-8.37.175-11.51-2.79l-.17-.349zm0 0c-.18-.175 2.44 2.267 0 0zm31.92 5.232c-1.05-.174-4.54 1.047-4.19-2.093-.7 2.268-4.53 3.14-3.49 0 1.05-2.616 2.79-.697 3.32-.697-.18 0 3.83.523 4.53.697 2.27.698 2.44 3.14-.17 2.268v-.175zm0 0c-.18 0 1.04.349 0 0zm2.96-.697c.52.872 4.01.174 4.01-.698-.17-1.57-5.23-3.837-6.28-2.616-1.22 1.395 1.57 2.267 2.45 3.488l-.18-.174zm15 .174l1.57-.523c-1.05-1.919-11.69-3.837-11.69-.698 0 2.616 9.42 1.57 10.12 1.221zm0 0c-.17 0 .52-.174 0 0zm-13.25 4.186c1.39 0 8.54 5.233 7.32.523-.17-1.046-2.79-2.79-3.84-2.965-1.74 0-4.01 2.442-3.66 2.442h.18zm18.13 2.616c3.84.524 8.03-4.186 11.34-5.755 2.44-1.221 7.33-2.966 2.27-4.361-4.19-1.221-16.57 9.593-13.61 10.116zm5.06-49.709c-2.79 2.442-9.07-1.744-12.21-1.221-3.14.523-6.62 4.186-3.14 7.326 3.32 2.79 9.95-5.93 12.04-1.919.87 1.744-7.15 6.105-7.68 6.628 2.45 1.919 8.2 14.651 1.23 12.733-1.4-.349-2.8-3.838-3.14-5.233-.18-.872-.18-4.884-1.05-4.884-2.97 0-1.4 10.291-1.92 11.861-.35 1.57-.35 4.36-3.31 2.442-2.79-1.919 0-7.675-.88-10.291-3.83 1.744-.52-7.326-.17-8.895.7-3.14.7-10.117 3.49-12.21 1.57-1.046 5.93 0 7.67 0 4.19 0 6.28-.697 9.95-1.569 1.74-.349 3.13-2.791 3.13.348.18 1.745-2.79 4.186-4.01 5.233v-.349zm0 0c-1.92 1.744 1.05-.872 0 0z"/><path d="M1183.21 373.643c1.74 0 4.19-1.221 1.74-1.744-1.92-.524-2.96 1.744-1.74 1.744zm8.55 1.395c2.09.698-1.75-1.744-3.32-1.918 0 2.79 1.57 1.395 3.32 1.918zm0 0c-1.92-.523 1.74.524 0 0zm-11.17 16.57c2.79 3.663 2.97-4.012 2.79-4.535-.52-.872-6.8 3.663-2.79 4.535z"/><path d="M1178.85 389.689s-3.32 2.093-.7 2.093c.87 0 .52-1.744.7-2.093zm23.2-15.697c-2.27 0 0-1.745.69-1.745 1.4-.174 2.27 2.617 1.92 2.617-.87 0-2.79-.872-2.79-.872h.18zm0 0c-1.92 0 .17 0 0 0zm-1.22-4.535c-2.8-1.221-.88-3.14 1.39-2.442 1.05-2.965-2.27-6.802-.87-9.768 2.96-5.93 2.96 2.617 2.96 2.617.53-.524 1.22-1.047 1.92-1.57.35 0-1.04 4.884 1.22 6.105-1.22-.175-2.61-.349-3.83-.349 0 .349 2.44 6.628 1.04 5.93-.87-.349-1.22-2.093-2.09-1.57.35.349.7.698.7 1.221-.87.349-2.44 0-2.44 0v-.174zm0 0c-2.45-1.047 0 .174 0 0z"/><path d="M1206.41 353.759c-.35-1.046-2.27 1.221-2.44 1.396 1.04 2.441 3.13 1.22 2.44-1.396zm-5.58 28.779c0-2.442-4.89-4.011-5.41-1.57-.7 2.791 5.41 4.535 5.41 1.57zm4.36-1.221c.34.872 9.94 3.489 10.29 2.268 1.57-4.71-9.42-5.407-11.34-3.837l1.05 1.569zm8.89-7.674c-1.05-.523-2.44 0-3.14.872 2.27 2.442 3.49-.523 3.14-.872zm.7-5.233s3.31-.523 3.14-1.744c-1.05-5.756-6.63 4.186-3.14 1.744zm68.2 25.465c-.7-.174 2.61 2.268 2.26 3.314-.69 2.617-2.09.175-3.83.872-.18 0 4.36 7.152 4.71 7.5.87.698 2.96 1.57 3.31 1.919.7.698.7 1.744 1.4 2.268 1.22 1.046 6.62 4.186 5.05 5.93-1.22 1.221-9.94-1.221-10.64-2.617-.52 2.442-6.1-5.232-6.62-5.93-3.67-4.709-8.2-6.453-13.78-2.616 5.23 0 1.57 3.14-1.22 4.186-2.27.698-5.41 1.221-7.68 0-3.66-1.744-3.49-3.488-7.85-3.663-.35 0-5.06.523-5.4-.523-.35-1.221 1.22-1.221 1.57-2.093 1.04-2.965 4.01-3.663 2.79-7.5-.88-2.616-4.02-4.012-6.28-5.233-3.49-1.744-12.91-3.662-12.91-8.721-1.92 2.791-1.92 4.71-4.71 2.791.52.349-2.09-4.884-1.92-5.232.35-.698 6.46-.524 6.46-1.745 0 0-4.36-.348-4.71-.348-1.05-.349-2.45-1.919-2.79-1.919.17-.523 0-1.047-.35-1.57-.87 0-1.92.175-2.79.349-.53-.174-2.45-1.919-2.45-3.14 0-.697 2.97 1.047 2.62 1.221 3.66-1.744 6.98-6.279 11.16-1.744 2.27 2.617.7 6.628 2.62 9.419 3.14 4.36 3.49 1.221 6.1-.698 1.92-1.57 3.84-4.535 6.98-5.058 3.66-.523 9.94 2.791 13.78 3.837 3.14 1.047 6.28 2.617 9.24 4.186 2.8 1.396 5.93 3.14 8.2 5.582.53.697.53 2.616.87 2.965 1.4 1.57 4.36 2.965 6.63 4.011h.18zm0 0c-2.1-.872.69.349 0 0z"/><path d="M1233.79 373.12c.87.872 5.41 2.79 6.45 1.22 1.05-1.395-6.27-1.22-6.45-1.22zm-5.41 20.755c-1.91 0 .7 9.419 2.62 1.047 1.74-7.326-3.31-1.047-2.62-1.047zm-9.41 5.756c-1.57.349-7.5 2.965-5.06 6.628-.18-.349 4.53-6.453 5.06-6.628zm0 0c-.18 0 .34 0 0 0zm-9.77 4.186c1.92 0 .7-1.918-.53-1.918 0 .349 0 1.918.53 1.918zm-21.46 2.442s3.84-1.046 3.67-1.919c-.53-2.093-6.11-.174-3.67 1.919z"/><path d="M1180.59 406.085c1.05-2.093 5.76.872 6.28-.523.7-1.57-9.94-3.14-6.28.523zm0 0c-3.66-3.837 0-.349 0 0zm107.1-12.558c-.35-.524-.53-.872-.88-1.396 0-.523 9.07-1.744 9.07-1.744 2.62-1.046 1.75 1.57 4.02-1.046.87-1.047.17-3.314.17-3.314 2.44-2.617 5.41-.698 3.31 3.662-2.44 5.059-11.51 7.849-15.87 3.663l.18.175zm0 0c-2.62-2.442 3.83 3.662 0 0zm-2.97-.175c1.92.349.52-1.744.7-1.918 0-.698-2.79 1.569-.7 1.918zm-4.36-18.139v-1.221c.17.174 3.66 1.221 3.66 1.569-.17.175-3.49 1.57-3.66 1.57v-1.918zm0 0c0-.349 0 .523 0 0zm15.17 3.488c1.92 1.395 1.23-1.919.18-2.616-.7-.524-.87 1.918-.18 2.616zm0 0c-.17 0 2.62 1.919 0 0z"/><path d="M1298.85 379.573c-1.05-.523-1.22-1.395-.35-2.267 1.4 1.395 11.51 7.151 8.55 10.988-1.57 2.093-2.45-3.488-2.62-3.837-1.57-2.442-2.96-3.14-5.41-4.709l-.17-.175zm0 0c-1.05-.698 1.22.872 0 0zm13.95 13.605s3.67 5.058 4.36 4.883c3.14-1.046-3.66-8.197-4.18-9.069v4.186h-.18zm7.85 5.407c5.06 5.058 3.32-1.221-.52-2.617-.7 1.221.17 2.268.52 2.617zm0 0c-.52-.524 5.06 5.058 0 0zm-.87 4.186c1.05.697 2.27-1.221 0-1.744v1.744zm0 0c-.35-.349 1.05.697 0 0zm4.36-.175h-2.79c.35.349 3.31 5.058 4.01 4.361 1.05-.872-.52-3.663-1.22-4.361zm4.36-.523c-.52-.174-.87-.523-1.4-.698 1.57-2.442 6.11 2.442 6.11 4.012-1.57-.698-4.19-1.57-4.88-3.314h.17zm0 0c-.35-.349.7 1.57 0 0zm4.19 7.151c-1.22 1.919 1.91 4.186 3.48 3.14 2.27-1.396-1.74-3.663-3.48-3.14zm3.66-2.093c0-1.046 2.09 3.14-.52-2.442 2.96 0 3.31 4.361 4.53 6.977-1.74-.174-4.01-2.965-3.84-4.709l-.17.174zm0 0c-.18 1.744 0-.872 0 0zm2.96 6.105c1.22 1.919 3.32 1.744 3.84 4.36-2.44-.872-4.71-1.744-5.23-4.534h1.39v.174zm0 0c-.34 0 1.4 1.919 0 0zm20.59 30.174c0-1.57-1.57-11.337-3.49-8.023-1.05 1.744 1.39 4.012 1.92 4.709.69 1.221.34 3.314 1.74 3.314h-.17zm-29.13-35.756c-1.05.698-1.05 1.396 0 2.093 1.22-.697 1.22-1.395 0-2.093zm-36.8-2.616c-2.45 0 0 1.744 0 1.744s2.44-1.744 0-1.744zm12.03 3.663c0-.872-2.79-.872-2.79 0 0 1.046 2.79 1.046 2.79 0zm-10.12 4.36c1.92 0 2.1-1.395 0-1.395-.87.523-.87.872 0 1.395zm-.87-2.093s.87-.348 1.22-.523c0-.872-3.49-1.918-3.49-.872 0 .349 2.27 1.395 2.27 1.395zm0 0c-.52 0 .52 0 0 0zm-.87-3.314s1.05.524 1.57 0c-.52-.523-1.05-.523-1.57 0zm3.66-1.22c-.7-1.047-1.22-1.047-1.92 0 .7 1.046 1.22 1.046 1.92 0zm44.65 52.674c-.87-1.919-1.39-10.988-3.31-8.372-2.44 3.314 1.39 10.291 3.31 13.605 1.05 1.744 6.63 11.511 8.72 8.372 2.1-3.314-7.84-11.163-8.72-13.605zm0 0c-.52-1.221.88 2.791 0 0zm60.7-11.512c-3.31-3.139-8.89 1.57-4.88 3.838 1.74 1.046 6.97-1.919 4.88-3.838zm6.98-6.802c-2.1.523-9.42 1.57-4.71 3.663 2.61 1.221 5.06-3.663 4.71-3.663zm0 0c-1.75.523.35 0 0 0zm-262.15-56.337c-.35-.872-.88-1.396-1.4-2.093-.52.872-1.22.872-2.09.872.17.349-2.27-2.093-2.27-2.093-.35.872-3.49 3.488-3.49 1.221-.35.697-1.04 1.395-1.74 1.744.17 0-1.05-4.36-1.05-4.186-6.63 6.453-5.23-4.884-6.97-7.326-.53.698-1.23.872-1.92.872-.88-1.569-1.4-5.407-1.75-7.5-.35-2.616 1.05-8.372 3.14-9.941.35 2.267 1.92 2.267 3.66 2.267 3.49.174 1.05-.872 3.14-2.616 2.79-2.442 6.11-5.058 8.9-7.849 1.74-1.919 3.31-3.14 5.06-4.535.7-.523 2.27-1.046 2.44-1.395 1.92-1.919 3.14-6.105 4.88-8.547 0 .523.18 1.047.53 1.396 1.74 0 .17-2.442.87-2.791.52-.349 3.14 5.232 2.44 6.279 4.01-.349 10.47 5.058 2.79 5.058 4.19 3.314 1.22 2.965-2.27 4.012 1.05.523 2.1 3.314-.17 2.267.7.349 1.05.698 1.39 1.395h-1.91c1.39 1.047 4.71 4.186 2.09 5.931 3.31 1.395 5.41 3.314 3.49 5.407-1.05 1.046-3.14.174-4.19 1.569-1.22 1.745.52 2.966 0 4.535-.87 2.791-3.49 4.535-4.36 6.977-.87 2.268-.35 8.547-2.44 10.291-.7-.698-.7-1.396-.7-2.268-.7 1.396-4.36 1.57-5.58 2.268-.17-.698-.52-2.093-.52-2.093v.872zm0 0c-.18-1.221 0 .697 0 0zm12.21-51.105c2.44 1.396 1.91-1.046 0 0zm3.48-1.046s-.52.697-.17 1.569c1.22-.348.17-.872.17-1.569zm-4.18-8.896c-1.05.698-1.57 1.744-1.75 2.791.88 1.046 12.91-9.07 8.73-13.43.87.872-6.28 9.942-6.98 10.639zm0 0c-1.75 1.744.35-.349 0 0zm7.5-10.29c.7-.873 3.49-2.966 2.44-4.535-1.92-3.14-3.66 3.139-2.44 4.535zm6.45-8.721c-.52-1.745-3.84-1.744-5.23-2.093.7 1.046 2.27 6.104 3.66 6.453 2.1.523 2.1-2.616 1.57-4.36zm0 0c-.35-1.396.18.872 0 0zm3.66 5.756c1.4 1.22 7.33 3.313 6.28 5.93 0 0 1.75-2.442 2.1-2.093 1.04.872-2.79 9.069-4.01 9.418-3.14.872-2.8-7.151-.35-9.069-.18.174-3.84 4.883-2.45 1.744-.52.697-1.22 1.221-2.09 1.569 0 0-.35-7.151-.7-7.848.53.174 1.4.349 1.4.349h-.18zm0 0c-.34-.349 1.23 1.22 0 0z"/><path d="M1187.05 318.003c-1.22 0-3.67 1.57-2.97 3.314.35.872 7.15-2.616 2.97-3.314z"/><path d="M1194.9 336.666s1.74-7.151 1.56-8.546c-.34-2.966-3.13-5.931-2.44-8.547-.52-.698-1.04-.523-1.92.523-.17-.697 1.23-3.314-.52-3.314-1.39 0-.35 6.279-.35 7.152-.87-.873-1.22-.873-1.04 0-2.27-1.919-2.97 2.267-4.71 3.662-2.62-9.593-9.6 7.151-7.33 6.279 1.75-.697.87-3.837 2.97-4.011 0 .349-.53 2.267.52 2.267.52-.698.7-1.395.7-2.093.35.872.87 1.396 1.74 1.744.35-.872.52-1.744.35-2.79 3.14 2.267 0 4.709 1.74 7.325.53.698 4.71 3.663 5.24 1.744-.35 2.791 1.92 2.093 2.61 0 .7-1.918-1.22-4.36-.69-6.453 1.74 1.046.52 3.314 1.74 4.884l-.17.174z"/><path d="M1188.97 319.05c1.91 0 .34-7.326-3.32-6.628 0 .523-.17 2.442 0 2.965.7.174 1.4 0 1.92-.523 0 .872 0 4.186 1.4 4.186zm-3.49-10.465c-2.1-1.919 2.61-2.616 4.36-1.396.35.349 2.44 7.849 2.79 7.849-2.27 0-5.93-4.883-7.33-6.453h.18zm0 0c-.53-.523.52.523 0 0z"/><path d="M1172.74 279.282c-2.96 0-5.23-1.744-6.8 1.396-1.22 2.442 1.05 6.977 1.05 9.593.52 0-2.27-.175-2.27-.349.7 1.744 2.62 10.988 4.54 7.849.34 0 .17 3.837.87 4.36 1.57 1.221 2.44-1.046 2.96-.872 0 0 5.24 3.663 5.76 2.965.35-.523-1.22-2.616-1.22-3.139 2.44 1.395 4.36 3.837 5.93 6.104-2.44-2.79-3.32 2.442-2.79 4.012.17-.872.7-1.57 1.57-1.919.87 0 .87 2.966 2.44 1.745.52-.524-.7-3.314-1.05-3.663.87 1.046 1.4-1.047 1.22-1.744-.52-1.57-2.09-1.745-2.79-3.14 3.32 0-1.57-3.837-2.09-1.57-1.57-1.221-1.4-1.569-3.14-2.267-1.22-.523-1.74.698-3.14-.349-1.22-1.046-1.74-3.663-1.22-5.232.52-1.919 1.57-.175 2.27-1.919.52-1.395 1.22-11.686-1.75-11.686l-.35-.175z"/><path d="M1176.06 302.48c-1.92-1.047-1.4 2.093-1.22 1.919.35-.349 2.61-1.047 1.22-1.919zm0 0c-1.92-1.047.35.174 0 0zm9.59-.523c.35-2.965-1.92-1.047-1.92-1.047-.52 0 1.4 5.233 1.92 1.047zm0 0c0 .698.35-2.965 0 0zm-7.32 6.802c1.04-.523 1.04-.872 0-1.395-1.05.523-1.05.872 0 1.395zm-2.1-2.267c-1.04 0-1.04 3.139 0 3.139 1.05 0 1.05-3.139 0-3.139zm-19.71 22.5c.18-.175.53-.524.7-.872.87.697.87 1.221 0 1.918-.17-.174-.7-.872-.7-.872v-.174zm0 0c.18-.349.18.349 0 0zm21.63 7.325c-.35-.349-.7-.523-1.05-.872 0-1.046 2.27-1.046 2.27 0-.35.349-1.04.872-1.04.872h-.18zm0 0c-.35-.349.35-.349 0 0zm-4.53 2.093s1.22.872 1.91 0c-.69-.872-1.22-.872-1.91 0zm2.79-.174s1.74.523 1.74 0-1.74-.523-1.74 0zm-3.49 2.267s.87.698 1.22 0c-.35-.872-.87-.872-1.22 0zm-2.27 1.047c-2.27 0 0 1.744 0 1.744s2.27-1.744 0-1.744zm-3.66 2.79s.52.698.7 1.047c.87-.698.87-1.395 0-2.093-.18.349-.53.698-.7 1.046zm0 0c.17-.348.17.349 0 0zm5.58-7.848c-.52-1.047-.87-1.047-1.4 0 .53 1.046.88 1.046 1.4 0zm25.64 8.372s-.87 2.442 0 2.442.87-2.442 0-2.442zm-1.92-5.233c.87-.523.87-.872 0-1.395-.87.523-.87.872 0 1.395zm-4.01 3.489s-.7-.873-1.05 0c.35.872.7.872 1.05 0zm-.35 2.616c1.05-.523 1.05-1.047 0-1.57-1.05.523-1.05 1.047 0 1.57zm2.44 4.36s-.52-.697-.7-1.046c-1.04.697-1.04 1.395 0 2.093.18-.349.53-.698.7-1.047zm0 0c-.17-.349-.17.349 0 0zm26.34-146.337s.52.698.87 0c-.35-.698-.52-.698-.87 0zm-27.04 21.105s.53-.523.88-.872c-.53-1.047-1.22-1.047-1.75 0 .35.349.53.523.87.872zm0 0c-.34-.349.35-.349 0 0zm-43.77 44.825c.87-.348.87-.697 0-1.046-1.05.349-1.05.698 0 1.046zm10.63-12.732c-1.04-2.791 3.32-12.733 6.28-7.849.18.349-.87 5.058-.87 5.407-.7 6.628-1.57 12.733-5.58 2.442h.17zm0 0c-.69-1.919 6.98 17.267 0 0zm22.5-44.477s-.69.523-.87.872c.7 1.047 1.22 1.047 1.75 0-.35-.349-.53-.523-.88-.872zm0 0c-.34.175.35.175 0 0zm3.14-4.186s-1.04-.349-1.57 0c.53.349 1.05.349 1.57 0zm2.27 10.116s.7-.523 0-.872c-.7.349-.7.523 0 .872zm6.11-21.628s-.53-.523-.88-.872c-1.22.524-1.22 1.221 0 1.744.35-.348.53-.523.88-.872zm0 0c-.35-.348-.35.349 0 0zm31.57-35.755s-.88 1.046 0 1.569c.87-.523.87-1.046 0-1.569zm10.64-16.919s.69-.523 0-.698c-.7.175-.7.349 0 .698zm-.53-2.442s.7.523 1.05 0c-.35-.523-.7-.523-1.05 0zm-1.22-12.558s-.7.698 0 1.046c.7-.348.7-.697 0-1.046zm-34.36 25.116s-.7-.697-1.05 0c.35.698.7.698 1.05 0zm1.22.872s-.7.698 0 1.221c.7-.349.7-.697 0-1.221zm8.72 33.663c-.17.349-.52.872-.69 1.221-1.05 0-1.05-2.616 0-2.616.17.349.69 1.221.69 1.221v.174zm0 0c0-.698 0 .698 0 0z"/><path d="M1220.53 186.84c-1.74.698 1.23 1.919 0 0zm0 0c-.17 0 0 .175 0 0zm-1.39 17.791c1.05 0 1.39-4.36 2.09-5.232.35 1.569.7 3.139.7 4.883 5.93-1.046.7-9.593 0-11.86-1.74-7.326-1.05-12.733-7.33-17.791-6.1-4.884-5.58 0-4.36 4.709 1.05 4.187 3.67 5.059 1.75 9.594-.18.697-3.84 5.755-4.01 5.232-2.62-1.046-.35-8.023-2.62-1.744-.87 2.616.87 5.407-2.62 7.151-4.53 2.093-7.84-2.093-11.68 2.791-1.22 1.57-1.4 4.186-2.44 5.232-.7.872-4.54 1.919-4.89 2.965 0 .698 2.79 4.012 4.01 2.268 0 .872 0 1.57.35 2.267.53 0 1.05-.523 1.57-.872-1.39 4.535 4.36 9.768 6.11 2.965.52-1.918-1.92-11.162-5.24-9.418 3.14-1.221 9.77-3.663 12.91-3.663 0 .349-1.04 2.442 0 2.442.53-.698.87-1.396 1.4-2.268-1.22 2.442 2.26 6.454 4.88 5.058 3.14-1.744-.17-4.36.52-6.453 4.02 3.314 4.36.698 7.5-.872v2.965c-4.53.349 1.92-.523 1.23-.349h.17z"/><path d="M1203.79 208.992c-.35 1.046-2.27 3.139-2.79.523-.35.349-1.92 4.709-1.4 4.709-.69 0-4.53-3.314-4.7-3.314-1.92-1.046 2.79-3.837 2.79-3.837 1.04-.523 8.02-2.965 6.28 1.744l-.18.175zm0 0c0 .349.7-1.919 0 0zm17.27-46.919c2.61 4.709 3.66.175-.53 3.837.35-.174-3.13 2.093-2.61 1.744-.7.524.87 1.396.7 1.745-1.57 2.442-9.95-3.663-12.39-1.57.87 1.395 6.46 1.744 4.19 4.36-1.57 1.745-3.66-1.046-4.54-2.441-.69-1.047-2.44-5.059-1.91-5.756 1.22-1.57 1.91.523 3.83-.349-.35-.349-4.88-9.768-4.88-9.768 4.36-1.221 13.08 11.686 16.74 5.059.18 1.22 1.57 3.139 1.57 3.139h-.17zm0 0c-.7-1.046.7 1.047 0 0z"/><path d="M1224.72 157.364s0 .697-.17 1.221c-1.75-2.617-4.89 2.616-2.1 2.79.88 0 6.46-6.279 6.46-7.325 0 .174-2.62 0-2.97-.523 0 0-1.04 3.488-1.04 4.011l-.18-.174zm6.28-5.756c-1.22 3.837 1.05 0 1.74.349.18 0-.69-2.791-1.74-.349zm4.36-4.884c.52-.349.87-.523 1.4-.697-.35.872-1.05 1.744-1.92 2.267.17-.698.69-1.744.69-1.744l-.17.174zm0 0c-.35.698.35-.349 0 0zm1.4-10.116v-1.919c1.39.872 1.74 2.093.69 3.489-.17-.349-.52-1.396-.52-1.396l-.17-.174zm0 0c-.18 0 .17.523 0 0zm57.03 345.523c.18 2.442-2.96 7.675-3.66 10.989-1.4 6.976-2.44 11.86-6.63 17.79-6.8 9.768-16.57 17.791-24.42 26.512-3.14 3.488-5.06 3.837-9.42 5.407-2.96 1.221-6.1 4.535-9.07 5.233-2.26.523-6.28-1.57-9.59-1.919-1.05-.174-2.27.698-3.66.698-1.57-.175-2.79-1.396-4.19-2.093-.35.523-.7 1.046-1.22 1.221-3.31 0-3.66-5.582-3.66-7.675.17-5.407.35-4.884-4.89-4.012-4.18.524-7.32.349-1.91-2.093 2.44-1.22 2.79.524 5.05-1.744.18-.349 3.14-4.186 1.22-4.186-1.04.175-6.1 8.372-7.5 4.884 0 0 8.73-10.64 9.25-11.337-2.79-1.396-7.85 8.372-10.47 8.895-3.31.872-2.44-.698-2.79-2.093 0-.523.87-4.884.87-4.884-.87-2.616-2.26-.697-1.22-3.488-1.22 0-2.96-1.919-4.18-2.442-2.97-1.046-7.33-1.918-10.47-1.918-2.96 0-5.06 1.046-7.85 1.918-3.31 1.221-5.75.872-8.89 1.395-6.11 1.221-8.37 5.756-13.43 7.849-3.32 1.396-6.46-.174-9.77-.174-3.14.174-5.06 1.395-7.67 2.791-4.02 1.918-10.12 4.883-14.13.872-4.36-4.186 1.74-5.756 3.31-10.117 1.92-5.058 1.22-14.127.53-19.534 0-.873-2.97-13.954-2.62-13.954 1.22 0 1.92 4.361 2.09 5.233.18-.524.18-2.966.87-3.489.7.349 1.05 1.221 1.05 2.268 2.62-2.442-1.22-7.326-1.05-10.291.18-2.965 2.62-8.547 4.54-10.64v3.489c1.92-1.047 4.01-3.663 5.93-5.058 2.27-1.57 4.71-2.965 7.33-3.838 1.04-.348 10.63-2.965 9.94-3.662 3.14 3.488 8.72-3.663 10.46-5.931 2.62-3.488 3.49-5.93 6.8-9.767 1.05 1.046.18 3.663 1.05 5.058 0-.174.52-3.139.52-3.139.53.174.88.523 1.23.872.17-.872-2.97-5.058-.35-5.058.52.523.87 1.046 1.04 1.744.18-.524.53-.872.87-1.221.35.174.53.523.88.872-.18.174 1.04-3.314.52-2.791.35-.523 2.62-1.744 2.62-2.093.17-.523 1.04-4.011.87-4.011.35.174.87.348.87.872 1.22-1.919.7-2.093 2.62-1.221.87-.524 1.04-1.396.52-2.442 2.44 1.395 3.14-1.744 5.41-.872 1.57.523 3.49 5.058 3.49 6.453 1.39-3.139 4.7.349 6.1-2.442-.7.175-1.4 0-2.09-.348-.18-.349 6.1-9.245 6.8-9.768 1.92-1.395 5.41.175 7.15-1.046 2.79-2.093-.7-1.745-.7-3.14 0-.349-2.09-1.046-.52-2.093 1.57-1.046 2.09.872 2.96 1.047.35 0 2.62 1.395 2.97 1.569.7.349 11.51 2.617 10.29.872.18.698 0 2.093 0 2.791 1.4 0 .52-2.093 1.4-2.965 1.39-1.395 1.74 4.709 1.39 5.407-.87 2.267-2.79 2.791-4.18 4.884-3.49 5.058 1.57 8.721 6.1 11.511 4.19 2.442 7.33 7.849 11.69 3.14 2.79-2.965 4.18-7.5 4.71-11.337.52-4.012.87-5.582 2.26-9.593.53-.349 1.92-12.21 5.24-8.721 3.13 3.314.52 13.43 2.26 17.79 1.4-4.36 6.63 1.57 6.46 2.617-.7 3.488-.7 4.36-.7 8.197.17 3.314-1.22 7.849 1.74 10.64 2.1 2.093 6.98 2.442 8.55 5.232 0 .175-1.92 1.919-1.92 2.268.35 1.395 1.92 6.279 2.79 7.674 0-.872.18-1.744.35-2.616.87 0 .52 2.616 1.4 2.616 3.14-3.139 1.39 4.361 1.57 5.233 0 .174 4.88 8.198 5.4 8.198.35 0 2.1-4.187 2.44-1.919l1.05.174zm0 0c-.35-2.267 0 .524 0 0z"/><path d="M1236.58 431.55c.18-.349-.52 1.046-.52.697 0-1.744 0 3.838-1.57.873-2.09-3.663 2.61-2.791 1.92-1.745l.17.175zm0 0c0 .174 1.05-1.744 0 0zm-26.86-9.593c2.27 0 8.9-1.396 4.36-4.186-1.74-1.047-5.75 4.186-4.36 4.186zm-66.1 40.465s-.53 1.046 0 1.57c.52-.524.52-1.047 0-1.57zm14.3-5.93c.52.872.87.872 1.39 0-.52-.872-.87-.872-1.39 0zm24.42-40.64c-.7-.872-1.4-.872-2.1 0 .7.872 1.4.872 2.1 0zm-5.76-1.221c-.87.523-.87.872 0 1.396.87-.524.87-.873 0-1.396zm49.71 139.012c2.44-.349 2.09-4.361.7-2.616-.35.348-2.44 2.965-.7 2.616zm13.43 2.267c-4.19.523-8.2 2.965-10.64-1.744 1.22 2.093-7.15 9.419-4.18 13.779 1.57 2.268 3.48 1.57 5.93.175 2.09-1.221 5.75-6.803 6.27-4.361.7-.872 4.89-8.198 2.62-7.849zm0 0c-2.09.349.52 0 0 0z"/><path d="M1243.03 551.375s-3.13 2.966-2.44 4.187c1.57 2.616 2.97-2.617 2.44-4.187zm0 0c-.52-1.395 0 .349 0 0zm51.46 33.489l-1.57.523c0 1.919 4.18-1.221 1.57-.523zm0 0c-.52 0 .52 0 0 0z"/><path d="M1295.19 583.468c-1.22.349-1.22.872 0 1.221 1.22-.349 1.22-.872 0-1.221zm-4.02-1.918s-.69.349-.87.697c.7.873 1.22.873 1.75 0-.35-.174-.7-.348-.88-.697zm0 0c-.34.174.35.174 0 0zm73.78-40.116c-1.92 0-3.66 1.569-5.58 1.22-.87 0-2.27-1.22-3.14-.872.35-2.093 1.92-3.488 1.05-5.755-1.05 1.569-2.27 2.093-4.01 1.744 3.49-2.617 2.09-5.582.87-8.721 0 .349-2.44-3.663-1.4-3.663-2.09-.174-1.74 7.326-1.74 7.849 0 7.674-.87 8.372-6.1 13.43-1.23 1.221-3.14 1.57-3.32 3.663 0 1.395 2.62.349 2.79 1.744.53 4.012-6.63 6.454-5.4 3.14-1.57 1.221-4.02 1.395-5.24 3.314.53-1.57 1.05-2.966 1.75-4.361-7.33 2.093-13.26 9.419-20.24 12.907-5.93 2.965-12.73 5.058-18.31 8.721-4.71 3.314-5.06 7.5.7 7.674 3.49 0 8.2-2.267 11.16-3.837 6.28-3.314 12.04-8.023 17.97-11.686 2.79-1.918 5.58-3.488 8.02-5.581 3.66-3.14 1.92-1.744 5.75-2.617 6.63-1.395 11.52-7.151 16.75-10.639 1.39-.872 7.85-7.326 7.5-7.326l.17-.348zM1210.42 44.166c1.57.698 11.68.872 10.81-1.57-1.57-4.535-12.73.698-10.81 1.57zm-117.39-16.918c.88 1.918 15 4.709 15.35 2.092.18-1.57-14.47-2.965-15.35-2.093zm-3.83 5.406c-1.92-1.046-4.19 1.396-2.79 2.791.87.698 7.5.872 8.37.523 5.75-2.093-3.31-2.093-5.76-3.314h.18zm-3.67.698c1.57-2.442-2.44-1.22-3.13-1.744 0 0 2.09 3.663 3.13 1.744zm-13.25-1.22c.17.523.52.871.87 1.395 0 .523-4.01-.873-4.53-.873 1.04-1.22 2.26-1.395 3.66-.348v-.175zm0 0c-1.57-.698.52.174 0 0zm-10.12-5.233c1.4 2.093 2.44 0 2.62 0-.7 0-3.66-1.919-2.62 0zm0 0c0-.175 1.4 2.093 0 0zm4.19-.35c-1.22 4.187 20.58 4.71 22.5 3.14 4.36-3.488-3.32-3.837-5.41-4.011-.52 0-1.22 1.22-1.04 1.22-.88 0-1.75-1.046-2.62-1.046-1.4 0-5.41-2.965-3.49 1.047-3.31-.175-8.89-4.71-9.94-.35zm0 0c-.52 1.57 0-.348 0 0zm25.12-2.616c3.83 0 1.56-1.918 1.56-1.918.18 0-2.96 1.918-1.56 1.918zm15.34 1.57s.53-1.046 0-1.57c-.69.524-.69 1.047 0 1.57zM924.895 12.422c-1.221-.349 3.489-1.57.349-2.965 2.442-1.57 17.093-2.442 14.128 1.046 1.047 0 14.302 2.965 12.035 5.582-.872.872-20.233-.872-20.581-1.745.348-.872.872-1.395 1.569-1.744-.872.698-1.569 1.221-2.441 1.745-.524.174-3.489-1.745-4.884-2.093l-.175.174zm0 0c-.174 0 1.221.349 0 0zm29.128 6.105s14.826 0 14.128-1.745c-.872-2.267-8.546-2.093-9.244-2.093-5.407 0-2.791-.697-4.884 3.838zm0 0c-.174.523 1.047-2.093 0 0zm-6.628 4.709s.872.698 1.396 0c-.524-.698-.872-.698-1.396 0zm3.489-1.396s-3.314-.523-3.314 0c0 .524 3.314.524 3.314 0zm-1.744 1.396s.697.698 1.046 0c-.349-.698-.698-.698-1.046 0zm1.22 0s1.221.698 1.919 0c-.698-.698-1.221-.698-1.919 0zm3.838.523c-.524-.174-.872-.349-1.396-.523 0-.872 2.966-.872 2.966 0-.349.174-1.396.523-1.396.523h-.174zm0 0c-.698 0 .697 0 0 0zm17.79-6.105c2.093 0-2.093 0 0 0zm.698.175h4.535c-.349 0-4.535-.872-4.535 0zm6.454 3.488c1.046-.349 1.046-.523 0-.872-1.047.349-1.047.523 0 .872zm-50.233.698s1.047.698 1.395 0c-.523-.698-1.046-.698-1.395 0zm2.791-1.221s-1.57-.523-1.57 0 1.57.523 1.57 0zm6.279-2.79s.872.697 1.395 0c-.523-.698-.872-.698-1.395 0zm-17.442-8.547c-.872-.175-1.57-.523-2.268-.698 0-1.046 4.361-1.046 4.361 0-.872.175-2.268.698-2.268.698h.175zm0 0c-.872 0 .872 0 0 0zm-6.454 17.442s.524-.35.873-.698c-.698-.872-1.221-.872-1.745 0 .349.174.524.349.872.698zm0 0c-.348-.175.349-.175 0 0zm2.442-.524c-.349-.348-.872-.523-1.395-.697 0-.872 2.965-.872 2.965 0-.349.349-1.395.697-1.395.697h-.175zm0 0c-.697 0 .698 0 0 0zm0 2.617c-.349-.175-.872-.524-1.395-.698 0-1.047 2.965-1.047 2.965 0l-1.395.698h-.175zm0 0c-.697 0 .698 0 0 0zm-6.279 2.093s2.442.697 2.442 0c0-.698-2.442-.698-2.442 0zm-6.628 4.011l1.047-.523c-.698-.698-1.396-.698-2.093 0l1.046.523zm0 0c-.349-.174.349-.174 0 0zm2.617.35c-.349-.175-.873-.35-1.396-.524 0-.872 2.965-.872 2.965 0-.348.174-1.395.523-1.395.523h-.174zm0 0c-.698 0 .697 0 0 0zm-4.884 1.743s.872-.349 1.395-.349c-3.139-.348-3.488 0-1.395.35zm0 0c-.523 0 .523 0 0 0zm19.186-4.535s1.046.524 1.57 0c-.524-.523-1.047-.523-1.57 0zm1.744 0s3.488.698 3.488 0c0-.697-3.488-.697-3.488 0zm5.93 0s-2.093-.523-2.093 0c0 .524 2.093.524 2.093 0zm2.093-.523s-.697-.523-.872 0c.349.35.698.35.872 0zm-19.709-10.64c2.442 0 0-1.744 0-1.744s-2.442 1.745 0 1.745zm-16.919-11.336a8.515 8.515 0 0 1-1.918-.698c0-1.221 3.663-1.221 3.663 0-.698.174-1.919.697-1.919.697h.174zm0 0c-.872 0 .873 0 0 0zm-4.011 4.36c-.698-.175-1.396-.523-2.093-.698 0-1.046 4.36-1.046 4.36 0-.697.175-2.093.698-2.093.698h-.174zm0 0c-.872 0 .872 0 0 0zm-32.268 9.419c5.582-.524 15.349-3.663 20.233-.35-4.535 5.756-15.698 2.791-21.802 6.803-2.093 1.57-7.5 5.93-7.152 9.07.349 4.36 6.977 2.965 8.024 5.581.523 1.221-7.152.698-7.675.698-2.442-.523-3.837-2.616-5.232-2.79.348 2.616-3.663-.524-2.268-.873-2.442.698-3.837-.349-3.837-2.79 0 2.441 2.791-2.617 2.093-1.745 1.395-1.744 1.395-1.918 3.663-2.965-.349-.174-3.489-.174-3.14-1.046 0 .348 4.884-5.407 4.535-5.059 2.791-2.441 8.896-3.837 12.558-4.36v-.174zm0 0c-2.79.348 4.012-.524 0 0zm-25.814 28.604c.698 2.79 8.372.349 5.059-2.267-1.745-1.396-5.756-.523-5.059 2.267zm0 0c0-.174.698 2.442 0 0zm-6.802-40.988c1.221.174 5.581-3.14 6.977-3.663 3.488-1.22 6.279-1.22 9.942-.872 1.569.174 15.349.523 15.872 1.919.174.348-10.465 2.79-11.512 2.79-2.965.349-3.488 0-6.279 0-5.581 0-8.721.698-14.826 0l-.174-.174zm0 0c-.872 0 2.267.174 0 0z"/><path d="M846.581 7.19c7.152 1.744 2.268-2.966 0 0zm-41.162 3.313c-.349-1.918 15-1.395 17.267 0 4.709-1.918-4.186 1.396-1.918 1.396.523.523 3.314-1.744 3.314.523-.175 1.57-12.035-1.221-13.256-1.57.872-.174 1.569-.523 2.093-1.046-1.047.523-6.803 2.267-7.326.523l-.174.174zm0 0c-.175-1.395.348 1.396 0 0zm23.023-1.918c1.046-.35 1.046-.872 0-1.221-1.047.349-1.047.872 0 1.22zm-80.756 90.872s.872-.872 1.047-1.396c-.873-2.093-6.628 3.838-3.489 5.233.872.349 1.919-3.314 2.442-3.837zm-13.953 11.511s1.395.698 1.918 0c-.523-.697-1.046-1.22-1.744-1.569-.523.523-.523 1.046-.174 1.569z"/></g></svg>