<svg width="13" height="13" viewBox="0 0 13 13" fill="none" xmlns="http://www.w3.org/2000/svg">
<path d="M6.46082 4.39333C5.44994 4.39333 4.62158 3.56497 4.62158 2.55409C4.62158 1.5432 5.44994 0.714844 6.46082 0.714844C7.4717 0.714844 8.30006 1.5432 8.30006 2.55409C8.30006 3.56497 7.4717 4.39333 6.46082 4.39333Z" fill="white"/>
<path d="M1.98206 12.1428C0.971183 12.1428 0.142822 11.3145 0.142822 10.3036C0.142822 9.29272 0.971183 8.46436 1.98206 8.46436C2.99294 8.46436 3.82131 9.29272 3.82131 10.3036C3.82131 11.3145 2.99294 12.1428 1.98206 12.1428Z" fill="white"/>
<path d="M10.9396 12.1428C9.9287 12.1428 9.10034 11.3145 9.10034 10.3036C9.10034 9.29272 9.9287 8.46436 10.9396 8.46436C11.9505 8.46436 12.7788 9.29272 12.7788 10.3036C12.7788 11.3145 11.9505 12.1428 10.9396 12.1428Z" fill="white"/>
</svg>
