<svg width="632" height="282" viewBox="0 0 632 282" fill="none" xmlns="http://www.w3.org/2000/svg">
  <path d="M1 192.939C13.3652 192.054 24.9041 193.559 36.0593 207.341C47.7753 221.831 58.1632 219.293 70.4694 206.367C86.1694 189.87 92.9865 183.673 109.601 191.493C121.671 197.189 127.101 183.643 136.457 167.884C142.27 158.087 149.796 160.684 156.347 165.346C164.404 171.101 173.641 180.161 182.14 179.984C193.059 179.777 204.244 163.546 214.366 154.191C231.129 138.727 250.724 134.271 265.244 158.765C275.602 176.236 282.685 207.164 294.696 215.692C309.717 226.376 325.387 196.215 333.71 161.126C346.222 108.301 349.439 19.5313 376.707 3.00504C380.042 0.998278 383.613 -0.211682 386.741 2.887C390.725 6.8415 393.234 16.9343 395.004 26.9977C396.775 37.0315 398.162 47.8621 401.054 55.9482C405.628 68.7561 405.068 92.8077 412.268 99.8609C422.184 109.57 429.857 70.6448 440.422 64.8901C455.473 56.7155 462.083 115.561 476.514 127.365C492.155 140.173 505.849 93.7226 521.726 80.2064C533.589 70.1136 546.19 79.1735 558.467 81.9476C564.723 83.3641 571.393 82.3902 577.443 76.9602C582.135 72.7696 588.952 52.7315 593.644 55.476C599.694 59.0174 604.121 70.1431 610.672 72.504C617.549 75.0124 624.808 72.5925 631.242 64.772" stroke="url(#paint0_linear_900_77)" stroke-opacity="0.7" stroke-miterlimit="10"/>
  <defs>
  <linearGradient id="paint0_linear_900_77" x1="0.999999" y1="112.536" x2="631.242" y2="112.536" gradientUnits="userSpaceOnUse">
  <stop stop-color="#03080D"/>
  <stop offset="0.296875" stop-color="#0088EB"/>
  <stop offset="1" stop-color="#00E9A3"/>
  </linearGradient>
  </defs>
</svg>
