<svg width="632" height="282" viewBox="0 0 632 282" fill="none" xmlns="http://www.w3.org/2000/svg">
  <path d="M1 281C33.1967 279.996 63.4458 255.207 91.747 227.939C97.0886 222.774 102.991 217.492 108.805 220.266C117.54 224.427 122.793 245.498 131.764 246.295C138.965 246.944 144.425 234.195 151.035 228.558C158.678 222.036 167.414 225.312 175.706 226.522C197.22 229.621 200.053 200.818 209.615 170.008C215.812 150.088 224.577 133.296 234.876 121.698C238.182 117.98 241.782 114.704 245.589 114.734C252.229 114.734 257.807 124.531 264.24 127.896C277.609 134.919 293.633 113.996 304.818 130.05C308.714 135.628 310.897 144.54 313.937 151.888C320.577 168.031 331.673 176.53 342.12 173.461C347.137 171.985 352.007 168.031 357.082 168.651C366.733 169.802 380.249 181.016 389.073 188.836C393.204 192.496 395.447 200.641 399.225 204.271C405.245 210.084 408.786 203.031 414.718 199.903C418.318 198.014 422.155 199.254 425.755 197.513C429.887 195.535 433.251 189.899 436.35 184.203C443.108 171.808 449.512 158.056 457.834 150.088C466.126 142.091 477.105 141.323 483.804 153.836C486.784 159.384 488.762 167.205 492.421 170.893C498.5 177.032 505.583 169.005 512.312 166.614C527.067 161.391 540.377 184.055 550.056 206.573C559.146 227.732 567.763 248.774 581.397 258.394C596.33 268.93 613.063 267.572 628.733 266.953" stroke="url(#paint1_linear_900_77)" stroke-opacity="0.7" stroke-miterlimit="10"/>
  <defs>
  <linearGradient id="paint1_linear_900_77" x1="0.999999" y1="200.242" x2="628.733" y2="200.242" gradientUnits="userSpaceOnUse">
  <stop stop-color="#03080D"/>
  <stop offset="0.296875" stop-color="#0088EB"/>
  <stop offset="1" stop-color="#00E9A3"/>
  </linearGradient>
  </defs>
</svg>
