<svg width="177" height="50" viewBox="0 0 177 50" fill="none" xmlns="http://www.w3.org/2000/svg">
<path d="M13.2498 19.7697C12.899 19.9951 12.7738 20.4461 12.9992 20.8219C13.2247 21.1726 13.6757 21.2979 14.0515 21.0724C14.4022 20.8469 14.5275 20.3709 14.302 20.0202C14.0765 19.6695 13.6256 19.5442 13.2498 19.7697ZM15.1788 16.3124C14.7028 16.613 14.5525 17.2393 14.8281 17.7153C15.1287 18.1914 15.755 18.3417 16.231 18.0661C16.707 17.7655 16.8824 17.1391 16.5818 16.6631C16.2811 16.1871 15.6548 16.0368 15.1788 16.3124ZM17.7091 13.1558C17.1079 13.5316 16.9075 14.3332 17.2832 14.9345C17.659 15.5358 18.4607 15.7362 19.062 15.3604C19.6633 14.9846 19.8637 14.1829 19.4879 13.5817C19.1121 12.9804 18.3104 12.78 17.7091 13.1558ZM20.5401 10.6004C19.8136 11.0513 19.563 12.0033 20.014 12.7549C20.4649 13.4814 21.4169 13.732 22.1685 13.281C22.9201 12.8301 23.1456 11.8781 22.6946 11.1265C22.2437 10.4 21.2917 10.1494 20.5401 10.6004ZM24.1727 8.32059C23.3209 8.8467 23.0454 9.97407 23.5715 10.8259C24.0976 11.6777 25.2249 11.9532 26.0767 11.4271C26.9285 10.901 27.2041 9.77365 26.678 8.92186C26.1519 8.07006 25.0245 7.79449 24.1727 8.32059ZM29.0079 6.59196C28.0308 7.19322 27.7052 8.49596 28.3064 9.47302C28.9077 10.4501 30.2104 10.7758 31.1875 10.1745C32.1645 9.57323 32.4902 8.27049 31.889 7.29343C31.2877 6.31638 29.985 5.99069 29.0079 6.59196ZM34.294 6.01575C33.1667 6.69217 32.841 8.14522 33.5174 9.27259C34.1938 10.3749 35.6469 10.7256 36.7742 10.0492C37.8766 9.37281 38.2273 7.91975 37.5509 6.79238C36.8744 5.69006 35.4214 5.33932 34.294 6.01575ZM40.3067 6.94269C39.0791 7.69427 38.6782 9.3227 39.4298 10.5503C40.1814 11.7779 41.8098 12.1787 43.0374 11.4271C44.29 10.6755 44.6658 9.04712 43.9143 7.81954C43.1627 6.59196 41.5342 6.19111 40.3067 6.94269ZM50.5783 10.9762C49.7515 9.62333 47.9477 9.17238 46.5949 10.0242C45.217 10.8509 44.7911 12.6547 45.6429 14.0076C46.4696 15.3604 48.2484 15.8113 49.6263 14.9596C50.9791 14.1328 51.4301 12.3541 50.5783 10.9762Z" fill="url(#paint0_linear_835_6283)"/>
<path d="M9.3666 32.8472C8.96576 32.772 8.56492 33.0225 8.4647 33.4484C8.38955 33.8743 8.64007 34.2752 9.06597 34.3503C9.46681 34.4255 9.86765 34.175 9.96787 33.7491C10.043 33.3232 9.7925 32.9474 9.3666 32.8472ZM9.26639 30.0914C9.3666 29.5402 9.01586 28.9891 8.4647 28.8888C7.91355 28.7886 7.36239 29.1394 7.26218 29.6905C7.13691 30.2417 7.5127 30.7928 8.06386 30.8931C8.61502 30.9933 9.16618 30.6425 9.26639 30.0914ZM9.19123 26.2082C9.34155 25.5067 8.8906 24.8303 8.18913 24.68C7.48765 24.5297 6.81123 25.0057 6.66091 25.7072C6.5106 26.4086 6.9866 27.0851 7.68807 27.2354C8.38955 27.3857 9.06597 26.9347 9.21629 26.2333M7.9386 23.753C8.79039 23.9284 9.61713 23.3773 9.76744 22.5255C9.94281 21.6737 9.39165 20.8469 8.53986 20.6966C7.68807 20.5212 6.86133 21.0724 6.71102 21.9242C6.53565 22.776 7.08681 23.6027 7.9386 23.753ZM9.66723 16.2623C8.69018 16.0619 7.71312 16.7132 7.5127 17.6903C7.31228 18.6674 7.96365 19.6444 8.94071 19.8448C9.94281 20.0452 10.8948 19.3939 11.0952 18.4168C11.2957 17.4147 10.6443 16.4627 9.66723 16.2623ZM11.9971 11.3269C10.8698 11.1014 9.76744 11.828 9.51692 12.9804C9.26639 14.1328 10.018 15.2101 11.1704 15.4606C12.2978 15.6861 13.4001 14.9596 13.6256 13.8071C13.851 12.6798 13.1245 11.5774 11.9721 11.3269M15.4544 6.84248C14.1767 6.59196 12.9241 7.41869 12.6736 8.69638C12.423 9.97407 13.2498 11.2267 14.5275 11.4772C15.8051 11.7278 17.0578 10.901 17.3083 9.62333C17.5588 8.34564 16.7321 7.09301 15.4544 6.84248ZM20.5401 2.85911C19.1121 2.58353 17.7342 3.48542 17.4336 4.91343C17.158 6.34143 18.0849 7.71933 19.4879 8.01996C20.9159 8.29554 22.2938 7.39364 22.5944 5.96564C22.87 4.53764 21.943 3.15974 20.5401 2.85911ZM27.3795 0.0532062C25.8012 -0.247426 24.2729 0.754681 23.9723 2.333C23.6466 3.91132 24.6738 5.43953 26.2521 5.74016C27.8304 6.0408 29.3586 5.03869 29.6593 3.46037C29.9599 1.88205 28.9578 0.353838 27.3795 0.0532062Z" fill="url(#paint1_linear_835_6283)"/>
<path d="M25.3502 48.5302C24.9995 48.3047 24.5235 48.4049 24.298 48.7556C24.0725 49.1064 24.1727 49.5824 24.5235 49.8078C24.8742 50.0333 25.3502 49.9331 25.5757 49.5824C25.8012 49.2316 25.701 48.7556 25.3502 48.5302ZM21.6925 47.8287C21.2165 47.528 20.5652 47.6533 20.2645 48.1293C19.9639 48.6053 20.0891 49.2316 20.5652 49.5573C21.0412 49.8579 21.6675 49.7327 21.9932 49.2567C22.2938 48.7807 22.1685 48.1544 21.6925 47.8287ZM18.0599 46.4508C17.4586 46.075 16.6569 46.2253 16.2561 46.8266C15.8803 47.4278 16.0306 48.2295 16.6319 48.6053C17.2331 49.0061 18.0348 48.8308 18.4106 48.2295C18.7864 47.6283 18.6361 46.8266 18.0348 46.4508M14.803 44.5718C14.0765 44.0958 13.1245 44.2962 12.6485 45.0228C12.1725 45.7493 12.3729 46.7264 13.0995 47.1773C13.826 47.6533 14.778 47.4529 15.254 46.7264C15.73 45.9998 15.5045 45.0228 14.803 44.5718ZM11.471 41.816C10.6192 41.2649 9.49186 41.5154 8.94071 42.3672C8.38955 43.219 8.64007 44.3464 9.46681 44.8975C10.3186 45.4487 11.446 45.1981 11.9971 44.3464C12.5483 43.4946 12.2978 42.3672 11.471 41.816ZM8.11397 37.7324C7.13691 37.1061 5.83417 37.3817 5.20786 38.3588C4.58154 39.3358 4.85712 40.6386 5.83417 41.2649C6.81123 41.8912 8.11397 41.6156 8.74028 40.6386C9.3666 39.6615 9.09102 38.3588 8.11397 37.7324ZM6.31017 36.0289C7.01165 34.9265 6.71102 33.4735 5.6087 32.772C4.50638 32.0705 3.05333 32.3712 2.35185 33.4735C1.65037 34.5758 1.95101 36.0289 3.05332 36.7303C4.15564 37.4318 5.6087 37.1312 6.31017 36.0289ZM4.90722 30.1164C5.70891 28.8888 5.35817 27.2604 4.13059 26.4838C2.90301 25.7072 1.27458 26.0328 0.497951 27.2604C-0.303735 28.488 0.047003 30.1164 1.27458 30.8931C2.50217 31.6947 4.13059 31.344 4.90722 30.1164ZM1.32469 23.9034C2.67753 24.7802 4.45628 24.3794 5.33312 23.0516C6.20996 21.7238 5.83417 19.92 4.48133 19.0431C3.12848 18.1663 1.34974 18.5671 0.472899 19.8949C-0.403945 21.2478 -0.0281551 23.0265 1.32469 23.9034Z" fill="url(#paint2_linear_835_6283)"/>
<path d="M54.0856 38.3588C54.0856 42.0165 51.1294 44.9477 47.4968 44.9477H28.6572C24.9995 44.9477 22.0683 41.9915 22.0683 38.3588V27.2605C22.0683 23.6028 25.0245 20.6716 28.6572 20.6716H47.4968C51.1545 20.6716 54.0856 23.6278 54.0856 27.2605V38.3588ZM49.8517 24.9055H26.2772V40.7388H49.8517V24.9055Z" fill="url(#paint3_linear_835_6283)"/>
<path d="M90.9381 38.3588C90.9381 42.0165 87.9819 44.9477 84.3493 44.9477H58.9208V40.7138H86.7293V34.9016H64.3823C60.7246 34.9016 57.7934 31.9453 57.7934 28.3127V27.2605C57.7934 23.6028 60.7497 20.6716 64.3823 20.6716H89.8108V24.8805H62.0023V30.6927H84.3493C88.007 30.6927 90.9381 33.6489 90.9381 37.2816V38.3588Z" fill="url(#paint4_linear_835_6283)"/>
<path d="M126.663 38.3588C126.663 42.0165 123.707 44.9477 120.074 44.9477H94.6459V20.6716H120.074C123.732 20.6716 126.663 23.6278 126.663 27.2605V38.3588ZM122.429 24.9055H98.8548V40.7388H122.429V24.9055Z" fill="url(#paint5_linear_835_6283)"/>
<path d="M163.616 30.9683C163.616 34.626 160.66 37.5571 157.027 37.5571H135.833V44.9477H131.624V20.6716H157.052C160.71 20.6716 163.641 23.6278 163.641 27.2605V30.9432L163.616 30.9683ZM159.382 24.9055H135.807V33.3483H159.382V24.9055Z" fill="url(#paint6_linear_835_6283)"/>
<path d="M169.253 22.1999H166.848V25.7073H166.121V22.1999H163.716V21.4483H169.253V22.1999Z" fill="url(#paint7_linear_835_6283)"/>
<path d="M176.919 25.7073H176.167V21.8742L174.113 25.3565C173.963 25.607 173.712 25.7824 173.387 25.7824C173.061 25.7824 172.81 25.607 172.66 25.3565L170.606 21.8742V25.7073H169.879V22.2249C169.879 21.774 170.255 21.3982 170.706 21.3982C171.032 21.3982 171.282 21.5736 171.432 21.8241L173.387 25.131L175.341 21.8241C175.491 21.5736 175.767 21.3982 176.067 21.3982C176.518 21.3982 176.894 21.774 176.894 22.2249V25.7073H176.919Z" fill="url(#paint8_linear_835_6283)"/>
<defs>
<linearGradient id="paint0_linear_835_6283" x1="80.8617" y1="2.24677" x2="72.1923" y2="56.4409" gradientUnits="userSpaceOnUse">
<stop stop-color="#FCFCFC"/>
<stop offset="0.135417" stop-color="#E9E9E9"/>
<stop offset="0.296875" stop-color="#F5F5F5"/>
<stop offset="0.427083" stop-color="#EBE6E8"/>
<stop offset="0.552083" stop-color="#F4C7CC"/>
<stop offset="0.739583" stop-color="#E8F39E"/>
<stop offset="0.864583" stop-color="#C4BFBC"/>
<stop offset="0.973958" stop-color="#E1DCDC"/>
</linearGradient>
<linearGradient id="paint1_linear_835_6283" x1="80.8617" y1="2.24677" x2="72.1923" y2="56.4409" gradientUnits="userSpaceOnUse">
<stop stop-color="#FCFCFC"/>
<stop offset="0.135417" stop-color="#E9E9E9"/>
<stop offset="0.296875" stop-color="#F5F5F5"/>
<stop offset="0.427083" stop-color="#EBE6E8"/>
<stop offset="0.552083" stop-color="#F4C7CC"/>
<stop offset="0.739583" stop-color="#E8F39E"/>
<stop offset="0.864583" stop-color="#C4BFBC"/>
<stop offset="0.973958" stop-color="#E1DCDC"/>
</linearGradient>
<linearGradient id="paint2_linear_835_6283" x1="80.8617" y1="2.24677" x2="72.1923" y2="56.4409" gradientUnits="userSpaceOnUse">
<stop stop-color="#FCFCFC"/>
<stop offset="0.135417" stop-color="#E9E9E9"/>
<stop offset="0.296875" stop-color="#F5F5F5"/>
<stop offset="0.427083" stop-color="#EBE6E8"/>
<stop offset="0.552083" stop-color="#F4C7CC"/>
<stop offset="0.739583" stop-color="#E8F39E"/>
<stop offset="0.864583" stop-color="#C4BFBC"/>
<stop offset="0.973958" stop-color="#E1DCDC"/>
</linearGradient>
<linearGradient id="paint3_linear_835_6283" x1="80.8617" y1="2.24677" x2="72.1923" y2="56.4409" gradientUnits="userSpaceOnUse">
<stop stop-color="#FCFCFC"/>
<stop offset="0.135417" stop-color="#E9E9E9"/>
<stop offset="0.296875" stop-color="#F5F5F5"/>
<stop offset="0.427083" stop-color="#EBE6E8"/>
<stop offset="0.552083" stop-color="#F4C7CC"/>
<stop offset="0.739583" stop-color="#E8F39E"/>
<stop offset="0.864583" stop-color="#C4BFBC"/>
<stop offset="0.973958" stop-color="#E1DCDC"/>
</linearGradient>
<linearGradient id="paint4_linear_835_6283" x1="80.8617" y1="2.24677" x2="72.1923" y2="56.4409" gradientUnits="userSpaceOnUse">
<stop stop-color="#FCFCFC"/>
<stop offset="0.135417" stop-color="#E9E9E9"/>
<stop offset="0.296875" stop-color="#F5F5F5"/>
<stop offset="0.427083" stop-color="#EBE6E8"/>
<stop offset="0.552083" stop-color="#F4C7CC"/>
<stop offset="0.739583" stop-color="#E8F39E"/>
<stop offset="0.864583" stop-color="#C4BFBC"/>
<stop offset="0.973958" stop-color="#E1DCDC"/>
</linearGradient>
<linearGradient id="paint5_linear_835_6283" x1="80.8617" y1="2.24677" x2="72.1923" y2="56.4409" gradientUnits="userSpaceOnUse">
<stop stop-color="#FCFCFC"/>
<stop offset="0.135417" stop-color="#E9E9E9"/>
<stop offset="0.296875" stop-color="#F5F5F5"/>
<stop offset="0.427083" stop-color="#EBE6E8"/>
<stop offset="0.552083" stop-color="#F4C7CC"/>
<stop offset="0.739583" stop-color="#E8F39E"/>
<stop offset="0.864583" stop-color="#C4BFBC"/>
<stop offset="0.973958" stop-color="#E1DCDC"/>
</linearGradient>
<linearGradient id="paint6_linear_835_6283" x1="80.8617" y1="2.24677" x2="72.1923" y2="56.4409" gradientUnits="userSpaceOnUse">
<stop stop-color="#FCFCFC"/>
<stop offset="0.135417" stop-color="#E9E9E9"/>
<stop offset="0.296875" stop-color="#F5F5F5"/>
<stop offset="0.427083" stop-color="#EBE6E8"/>
<stop offset="0.552083" stop-color="#F4C7CC"/>
<stop offset="0.739583" stop-color="#E8F39E"/>
<stop offset="0.864583" stop-color="#C4BFBC"/>
<stop offset="0.973958" stop-color="#E1DCDC"/>
</linearGradient>
<linearGradient id="paint7_linear_835_6283" x1="80.8617" y1="2.24677" x2="72.1923" y2="56.4409" gradientUnits="userSpaceOnUse">
<stop stop-color="#FCFCFC"/>
<stop offset="0.135417" stop-color="#E9E9E9"/>
<stop offset="0.296875" stop-color="#F5F5F5"/>
<stop offset="0.427083" stop-color="#EBE6E8"/>
<stop offset="0.552083" stop-color="#F4C7CC"/>
<stop offset="0.739583" stop-color="#E8F39E"/>
<stop offset="0.864583" stop-color="#C4BFBC"/>
<stop offset="0.973958" stop-color="#E1DCDC"/>
</linearGradient>
<linearGradient id="paint8_linear_835_6283" x1="80.8617" y1="2.24677" x2="72.1923" y2="56.4409" gradientUnits="userSpaceOnUse">
<stop stop-color="#FCFCFC"/>
<stop offset="0.135417" stop-color="#E9E9E9"/>
<stop offset="0.296875" stop-color="#F5F5F5"/>
<stop offset="0.427083" stop-color="#EBE6E8"/>
<stop offset="0.552083" stop-color="#F4C7CC"/>
<stop offset="0.739583" stop-color="#E8F39E"/>
<stop offset="0.864583" stop-color="#C4BFBC"/>
<stop offset="0.973958" stop-color="#E1DCDC"/>
</linearGradient>
</defs>
</svg>
