<svg width="127" height="60" viewBox="0 0 127 60" fill="none" xmlns="http://www.w3.org/2000/svg">
<path d="M0 14.9054C0.151324 14.2749 0.277427 13.6444 0.428752 13.0391C1.38714 9.029 3.63178 5.95208 6.88525 3.48045C9.05422 1.81589 11.5259 0.933165 14.1488 0.403531C15.3342 0.151324 16.4943 0 17.6797 0C46.2547 0 74.8045 0 103.38 0C105.649 0 107.844 0.252207 110.038 0.832282C113.846 1.84111 116.797 4.03531 119.193 7.13745C120.958 9.40731 121.841 12.005 122.371 14.7793C122.371 14.8045 122.371 14.855 122.346 14.9559H121.942C119.092 14.9559 116.242 14.9559 113.417 14.9559C113.14 14.9559 112.989 14.8802 112.863 14.6028C111.828 12.005 109.886 10.3909 107.264 9.53342C106.835 9.40731 106.381 9.38209 105.927 9.33165C105.624 9.30643 105.296 9.33165 104.994 9.33165C75.8134 9.33165 46.633 9.33165 17.4527 9.33165C14.6532 9.33165 12.459 10.4414 10.744 12.5599C10.2396 13.1904 9.91173 13.9723 9.53342 14.6784C9.43253 14.855 9.35687 14.9559 9.15511 14.9559C6.20429 14.9559 3.25347 14.9559 0.302648 14.9559C0.226986 14.9559 0.151324 14.9559 0.0252207 14.9306" fill="url(#paint0_linear_835_6282)"/>
<path d="M0.176545 45.6999H0.580076C3.48045 45.6999 6.38083 45.6999 9.28121 45.6999C9.58386 45.6999 9.70996 45.8008 9.83607 46.053C10.9458 48.3985 12.8625 49.7604 15.2585 50.517C15.662 50.6431 16.0908 50.6431 16.5195 50.6683C16.8222 50.6936 17.1501 50.6683 17.4527 50.6683C46.6078 50.6683 75.7629 50.6683 104.918 50.6683C107.793 50.6683 110.013 49.5082 111.778 47.3392C112.106 46.9105 112.308 46.406 112.61 45.9269C112.686 45.8008 112.837 45.6747 112.963 45.6747C115.99 45.6747 119.016 45.6747 122.043 45.6747C122.068 45.6747 122.119 45.6747 122.169 45.6999C122.169 45.7503 122.194 45.826 122.169 45.8764C121.362 50.29 119.067 53.7705 115.511 56.4943C113.317 58.1589 110.845 59.0668 108.197 59.5965C107.037 59.8234 105.876 59.9748 104.691 59.9748C76.116 59.9748 47.5662 59.9748 18.9912 59.9748C16.7213 59.9748 14.5271 59.7478 12.3329 59.1677C8.52459 58.1589 5.54855 55.9647 3.15259 52.8373C1.5889 50.7692 0.630517 48.4741 0.151324 45.9521C0.151324 45.8764 0.151324 45.8008 0.151324 45.6747" fill="url(#paint1_linear_835_6282)"/>
<path d="M14.3253 36.8222C10.8197 36.8222 7.314 36.8222 3.80832 36.8222C3.0517 36.8222 2.39596 36.343 2.1942 35.6873C1.96721 34.9306 2.24464 34.1488 2.9256 33.7705C3.22825 33.6192 3.58134 33.5435 3.93443 33.5435C10.7945 33.5435 17.6545 33.5435 24.5145 33.5435C24.918 33.5435 25.3216 33.5435 25.6494 33.2409C26.053 32.8878 26.1791 32.3834 26.0025 31.8537C25.8512 31.3745 25.3972 31.0214 24.8928 30.9962C24.7415 30.9962 24.6154 30.9962 24.4641 30.9962C18.2346 30.9962 11.9798 30.9962 5.75032 30.9962C3.55612 30.9962 1.74023 29.6091 1.21059 27.4905C0.479193 24.6406 2.67339 21.8411 5.59899 21.8411C12.5851 21.8411 19.5712 21.8411 26.5574 21.8411C27.3644 21.8411 28.0454 22.4212 28.1715 23.1526C28.2976 24.0353 27.8941 24.7919 27.087 25.0441C26.86 25.1198 26.6078 25.1198 26.3556 25.1198C19.5208 25.1198 12.7112 25.1198 5.90164 25.1198C5.54855 25.1198 5.17024 25.1955 4.86759 25.3468C4.3884 25.5738 4.16141 26.1538 4.28752 26.633C4.43884 27.1879 4.91803 27.6419 5.44767 27.6671C5.57377 27.6671 5.67465 27.6671 5.80076 27.6671C12.0555 27.6671 18.3354 27.6671 24.5902 27.6671C26.8348 27.6671 28.6507 29.1299 29.1299 31.2989C29.7604 34.0984 27.6166 36.8222 24.7415 36.8222C21.261 36.8222 17.7806 36.8222 14.3001 36.8222" fill="url(#paint2_linear_835_6282)"/>
<path d="M47.5914 21.8411C51.1223 21.8411 54.6532 21.8411 58.1841 21.8411C58.966 21.8411 59.6721 22.4212 59.773 23.1778C59.8991 24.0605 59.4704 24.8172 58.6885 25.0441C58.4615 25.1198 58.2093 25.1198 57.9571 25.1198C51.1475 25.1198 44.338 25.1198 37.5284 25.1198C37.1753 25.1198 36.797 25.1955 36.4943 25.3468C35.9899 25.599 35.7629 26.1538 35.889 26.6583C36.0404 27.2131 36.5195 27.6419 37.0744 27.6923C37.2005 27.6923 37.3014 27.6923 37.4275 27.6923H56.1665C58.4363 27.6923 60.2522 29.1551 60.7314 31.3493C61.3619 34.1488 59.2182 36.8474 56.343 36.8474C49.3569 36.8474 42.3707 36.8474 35.3846 36.8474C34.4262 36.8474 33.6948 36.1412 33.6948 35.2081C33.6948 34.2749 34.4262 33.5687 35.4098 33.5687C42.2951 33.5687 49.1551 33.5687 56.0151 33.5687C56.2421 33.5687 56.4691 33.5687 56.6709 33.5435C57.2509 33.4174 57.6797 32.8373 57.6293 32.2572C57.5788 31.5763 57.0744 31.0719 56.4439 31.0467C56.2926 31.0467 56.1665 31.0467 56.0151 31.0467C49.7856 31.0467 43.5309 31.0467 37.3014 31.0467C35.1072 31.0467 33.2913 29.6091 32.7617 27.4905C32.0807 24.691 34.2749 21.8916 37.1501 21.8916C40.6305 21.8916 44.0858 21.8916 47.5662 21.8916" fill="url(#paint3_linear_835_6282)"/>
<path d="M80.4035 36.8222C77.2005 36.8222 73.9975 36.7718 70.8197 36.8222C68.4742 36.8726 66.8096 35.8134 65.6494 33.8966C63.7831 30.8701 63.8588 27.1122 66.0277 24.2623C67.2383 22.6734 68.802 21.7907 70.8953 21.7907C77.5032 21.8159 84.111 21.7907 90.7188 21.7907C91.5259 21.7907 92.232 22.3203 92.3581 23.0517C92.5095 23.9092 92.1059 24.691 91.3241 24.9685C91.0719 25.0441 90.8197 25.0694 90.5675 25.0694C84.2371 25.0694 77.9067 25.0694 71.6015 25.0694C70.744 25.0694 69.9117 25.1702 69.1803 25.6747C68.3228 26.28 67.8184 27.1122 67.6419 28.1463C67.4149 29.3569 67.4653 30.5422 68.0454 31.6267C68.6507 32.7869 69.6595 33.4678 70.9962 33.4678C77.5032 33.4931 84.0353 33.4678 90.5675 33.4931C90.8449 33.4931 91.1223 33.5183 91.3745 33.6192C92.1564 33.8966 92.5347 34.6532 92.3834 35.5107C92.2572 36.2169 91.5763 36.797 90.7944 36.797C89.0038 36.797 87.2131 36.797 85.4224 36.797H80.4287L80.4035 36.8222Z" fill="url(#paint4_linear_835_6282)"/>
<path d="M118.31 21.8411C111.375 21.8411 104.414 21.8411 97.4527 21.8411C96.5448 21.8411 95.8134 22.5473 95.8134 23.4552C95.8134 27.3897 95.8134 31.2989 95.8134 35.2333C95.8134 36.0908 96.4943 36.797 97.3518 36.8474C98.2093 36.8979 98.9912 36.2926 99.0668 35.4351C99.1425 34.8045 99.1173 34.1488 99.1173 33.4931C99.1173 32.686 99.1173 31.8537 99.1173 30.9962H99.6973C105.801 30.9962 111.904 30.9962 118.008 30.9962C120.631 30.9962 122.472 29.029 122.724 26.9357C123.026 24.3632 120.933 21.8411 118.31 21.8159M118.31 27.6671C117.629 27.6671 116.923 27.6671 116.242 27.6671H99.1677V25.1198C99.319 25.1198 99.4704 25.1198 99.5965 25.1198H117.982C118.789 25.1198 119.369 25.4981 119.521 26.1034C119.723 26.8852 119.117 27.6671 118.285 27.6671" fill="url(#paint5_linear_835_6282)"/>
<path d="M126.003 2.87516C126.003 4.43884 124.741 5.75032 123.127 5.75032C121.513 5.75032 120.277 4.46406 120.277 2.90038C120.277 1.3367 121.538 0 123.153 0C124.767 0 126.003 1.28625 126.003 2.87516ZM125.523 2.87516C125.523 1.5889 124.489 0.529634 123.153 0.529634C121.816 0.529634 120.782 1.61412 120.782 2.90038C120.782 4.18663 121.791 5.2459 123.153 5.2459C124.515 5.2459 125.549 4.16141 125.549 2.87516M123.783 3.27869L124.439 4.23707H123.884L123.354 3.37957H122.547V4.23707H122.068V1.36192H123.228C123.985 1.36192 124.388 1.71501 124.388 2.34552C124.388 2.7995 124.187 3.10214 123.783 3.25347M123.228 2.95082C123.657 2.95082 123.934 2.72383 123.934 2.34552C123.934 1.96721 123.682 1.76545 123.228 1.76545H122.547V2.95082H123.228Z" fill="url(#paint6_linear_835_6282)"/>
<defs>
<linearGradient id="paint0_linear_835_6282" x1="57.5901" y1="2.69886" x2="40.7987" y2="64.9334" gradientUnits="userSpaceOnUse">
<stop stop-color="#FCFCFC"/>
<stop offset="0.135417" stop-color="#E9E9E9"/>
<stop offset="0.296875" stop-color="#F5F5F5"/>
<stop offset="0.427083" stop-color="#EBE6E8"/>
<stop offset="0.552083" stop-color="#F4C7CC"/>
<stop offset="0.739583" stop-color="#E8F39E"/>
<stop offset="0.864583" stop-color="#C4BFBC"/>
<stop offset="0.973958" stop-color="#E1DCDC"/>
</linearGradient>
<linearGradient id="paint1_linear_835_6282" x1="57.5901" y1="2.69886" x2="40.7987" y2="64.9334" gradientUnits="userSpaceOnUse">
<stop stop-color="#FCFCFC"/>
<stop offset="0.135417" stop-color="#E9E9E9"/>
<stop offset="0.296875" stop-color="#F5F5F5"/>
<stop offset="0.427083" stop-color="#EBE6E8"/>
<stop offset="0.552083" stop-color="#F4C7CC"/>
<stop offset="0.739583" stop-color="#E8F39E"/>
<stop offset="0.864583" stop-color="#C4BFBC"/>
<stop offset="0.973958" stop-color="#E1DCDC"/>
</linearGradient>
<linearGradient id="paint2_linear_835_6282" x1="57.5901" y1="2.69886" x2="40.7987" y2="64.9334" gradientUnits="userSpaceOnUse">
<stop stop-color="#FCFCFC"/>
<stop offset="0.135417" stop-color="#E9E9E9"/>
<stop offset="0.296875" stop-color="#F5F5F5"/>
<stop offset="0.427083" stop-color="#EBE6E8"/>
<stop offset="0.552083" stop-color="#F4C7CC"/>
<stop offset="0.739583" stop-color="#E8F39E"/>
<stop offset="0.864583" stop-color="#C4BFBC"/>
<stop offset="0.973958" stop-color="#E1DCDC"/>
</linearGradient>
<linearGradient id="paint3_linear_835_6282" x1="57.5901" y1="2.69886" x2="40.7987" y2="64.9334" gradientUnits="userSpaceOnUse">
<stop stop-color="#FCFCFC"/>
<stop offset="0.135417" stop-color="#E9E9E9"/>
<stop offset="0.296875" stop-color="#F5F5F5"/>
<stop offset="0.427083" stop-color="#EBE6E8"/>
<stop offset="0.552083" stop-color="#F4C7CC"/>
<stop offset="0.739583" stop-color="#E8F39E"/>
<stop offset="0.864583" stop-color="#C4BFBC"/>
<stop offset="0.973958" stop-color="#E1DCDC"/>
</linearGradient>
<linearGradient id="paint4_linear_835_6282" x1="57.5901" y1="2.69886" x2="40.7987" y2="64.9334" gradientUnits="userSpaceOnUse">
<stop stop-color="#FCFCFC"/>
<stop offset="0.135417" stop-color="#E9E9E9"/>
<stop offset="0.296875" stop-color="#F5F5F5"/>
<stop offset="0.427083" stop-color="#EBE6E8"/>
<stop offset="0.552083" stop-color="#F4C7CC"/>
<stop offset="0.739583" stop-color="#E8F39E"/>
<stop offset="0.864583" stop-color="#C4BFBC"/>
<stop offset="0.973958" stop-color="#E1DCDC"/>
</linearGradient>
<linearGradient id="paint5_linear_835_6282" x1="57.5901" y1="2.69886" x2="40.7987" y2="64.9334" gradientUnits="userSpaceOnUse">
<stop stop-color="#FCFCFC"/>
<stop offset="0.135417" stop-color="#E9E9E9"/>
<stop offset="0.296875" stop-color="#F5F5F5"/>
<stop offset="0.427083" stop-color="#EBE6E8"/>
<stop offset="0.552083" stop-color="#F4C7CC"/>
<stop offset="0.739583" stop-color="#E8F39E"/>
<stop offset="0.864583" stop-color="#C4BFBC"/>
<stop offset="0.973958" stop-color="#E1DCDC"/>
</linearGradient>
<linearGradient id="paint6_linear_835_6282" x1="57.5901" y1="2.69886" x2="40.7987" y2="64.9334" gradientUnits="userSpaceOnUse">
<stop stop-color="#FCFCFC"/>
<stop offset="0.135417" stop-color="#E9E9E9"/>
<stop offset="0.296875" stop-color="#F5F5F5"/>
<stop offset="0.427083" stop-color="#EBE6E8"/>
<stop offset="0.552083" stop-color="#F4C7CC"/>
<stop offset="0.739583" stop-color="#E8F39E"/>
<stop offset="0.864583" stop-color="#C4BFBC"/>
<stop offset="0.973958" stop-color="#E1DCDC"/>
</linearGradient>
</defs>
</svg>
