<svg fill="none" height="138" viewBox="0 0 300 138" width="300" xmlns="http://www.w3.org/2000/svg" xmlns:xlink="http://www.w3.org/1999/xlink"><linearGradient id="a" gradientUnits="userSpaceOnUse" x1="172.745" x2="130.572" y1="22.8528" y2="-1.10539"><stop offset="0" stop-color="#fcfcfc"/><stop offset=".135417" stop-color="#e9e9e9"/><stop offset=".296875" stop-color="#f5f5f5"/><stop offset=".427083" stop-color="#ebe6e8"/><stop offset=".552083" stop-color="#f4c7cc"/><stop offset=".739583" stop-color="#e8f39e"/><stop offset=".864583" stop-color="#c4bfbc"/><stop offset=".973958" stop-color="#e1dcdc"/></linearGradient><path d="m13.0316 108v-11.2h1.312l5.024 8.464h-.704l4.96-8.464h1.312l.016 11.2h-1.536l-.016-8.784h.368l-4.416 7.424h-.736l-4.448-7.424h.4v8.784zm18.8332.096c-.9067 0-1.7067-.187-2.4-.56-.6827-.373-1.216-.885-1.6-1.536-.3733-.651-.56-1.397-.56-2.24s.1813-1.589.544-2.24c.3733-.651.88-1.157 1.52-1.52.6507-.3733 1.3813-.56 2.192-.56.8213 0 1.5467.1813 2.176.544.6293.363 1.12.875 1.472 1.536.3627.651.544 1.413.544 2.288 0 .064-.0053.139-.016.224 0 .085-.0053.165-.016.24h-7.216v-1.104h6.416l-.624.384c.0107-.544-.1013-1.029-.336-1.456s-.56-.757-.976-.992c-.4053-.245-.88-.368-1.424-.368-.5333 0-1.008.123-1.424.368-.416.235-.7413.571-.976 1.008-.2347.427-.352.917-.352 1.472v.256c0 .565.128 1.072.384 1.52.2667.437.6347.779 1.104 1.024s1.008.368 1.616.368c.5013 0 .9547-.085 1.36-.256.416-.171.7787-.427 1.088-.768l.848.992c-.384.448-.864.789-1.44 1.024-.5653.235-1.2.352-1.904.352zm6.0209-.096v-8.48h1.472v2.304l-.144-.576c.2347-.587.6293-1.035 1.184-1.344.5547-.3093 1.2373-.464 2.048-.464v1.488c-.064-.011-.128-.016-.192-.016-.0533 0-.1067 0-.16 0-.8213 0-1.472.245-1.952.736s-.72 1.2-.72 2.128v4.224zm10.071.096c-.864 0-1.6373-.187-2.32-.56-.672-.373-1.2-.885-1.584-1.536s-.576-1.397-.576-2.24.192-1.589.576-2.24.912-1.157 1.584-1.52c.6827-.3733 1.456-.56 2.32-.56.768 0 1.4507.1547 2.048.464.608.299 1.0773.747 1.408 1.344l-1.168.752c-.2773-.416-.6187-.72-1.024-.912-.3947-.203-.8213-.304-1.28-.304-.5547 0-1.0507.123-1.488.368s-.784.592-1.04 1.04c-.256.437-.384.96-.384 1.568s.128 1.136.384 1.584.6027.795 1.04 1.04.9333.368 1.488.368c.4587 0 .8853-.096 1.28-.288.4053-.203.7467-.512 1.024-.928l1.168.736c-.3307.587-.8 1.04-1.408 1.36-.5973.309-1.28.464-2.048.464zm5.3352-.096v-8.48h1.536v8.48zm.768-10.112c-.2986 0-.5493-.096-.752-.288-.192-.192-.288-.4267-.288-.704 0-.288.096-.528.288-.72.2027-.192.4534-.288.752-.288.2987 0 .544.096.736.288.2027.1813.304.4107.304.688 0 .288-.096.5333-.288.736-.192.192-.4426.288-.752.288zm11.5017 10.208c-.8214 0-1.5574-.181-2.208-.544-.64-.363-1.1467-.869-1.52-1.52-.3734-.651-.56-1.408-.56-2.272s.1866-1.616.56-2.256c.3733-.651.88-1.157 1.52-1.52.6506-.3627 1.3866-.544 2.208-.544.7146 0 1.36.16 1.936.48s1.0346.8 1.376 1.44c.352.64.528 1.44.528 2.4s-.1707 1.76-.512 2.4c-.3307.64-.784 1.125-1.36 1.456-.576.32-1.232.48-1.968.48zm.128-1.344c.5333 0 1.0133-.123 1.44-.368.4373-.245.7786-.592 1.024-1.04.256-.459.384-.987.384-1.584 0-.608-.128-1.131-.384-1.568-.2454-.448-.5867-.795-1.024-1.04-.4267-.245-.9067-.368-1.44-.368-.544 0-1.0294.123-1.456.368-.4267.245-.768.592-1.024 1.04-.256.437-.384.96-.384 1.568 0 .597.128 1.125.384 1.584.256.448.5973.795 1.024 1.04.4266.245.912.368 1.456.368zm2.896 1.248v-2.288l.096-1.968-.16-1.968v-5.648h1.536v11.872zm3.7702-7.504.8-3.248.208.928c-.3093 0-.5707-.096-.784-.288-.2027-.192-.304-.448-.304-.768 0-.3307.1013-.592.304-.784.2133-.2027.4693-.304.768-.304.3093 0 .56.1067.752.32.192.2027.288.4587.288.768 0 .096-.0053.1973-.016.304-.0107.096-.0373.208-.08.336-.032.128-.0853.2933-.16.496l-.768 2.24zm7.801 7.6c-.7253 0-1.3653-.133-1.92-.4-.544-.267-.9707-.672-1.28-1.216-.2987-.555-.448-1.248-.448-2.08v-4.88h1.536v4.704c0 .832.1973 1.456.592 1.872.4053.416.9707.624 1.696.624.5333 0 .9973-.107 1.392-.32.3947-.224.6987-.544.912-.96.2133-.427.32-.939.32-1.536v-4.384h1.536v8.48h-1.456v-2.288l.24.608c-.2773.565-.6933 1.003-1.248 1.312s-1.1787.464-1.872.464zm10.1721 0c-.8533 0-1.5146-.229-1.984-.688-.4693-.459-.704-1.115-.704-1.968v-7.776h1.536v7.712c0 .459.112.811.336 1.056.2347.245.5654.368.992.368.48 0 .88-.133 1.2-.4l.48 1.104c-.2346.203-.5173.352-.848.448-.32.096-.656.144-1.008.144zm-4.128-7.312v-1.264h5.408v1.264zm7.841 7.216v-8.48h1.536v8.48zm.768-10.112c-.2986 0-.5493-.096-.752-.288-.192-.192-.288-.4267-.288-.704 0-.288.096-.528.288-.72.2027-.192.4534-.288.752-.288.2987 0 .544.096.736.288.2027.1813.304.4107.304.688 0 .288-.096.5333-.288.736-.192.192-.4426.288-.752.288zm3.7008 10.112v-11.872h1.5363v11.872zm4.4683 0v-8.48h1.536v8.48zm.768-10.112c-.298 0-.549-.096-.752-.288-.192-.192-.288-.4267-.288-.704 0-.288.096-.528.288-.72.203-.192.454-.288.752-.288.299 0 .544.096.736.288.203.1813.304.4107.304.688 0 .288-.096.5333-.288.736-.192.192-.442.288-.752.288zm6.133 10.208c-.704 0-1.376-.096-2.016-.288-.629-.192-1.125-.427-1.488-.704l.64-1.216c.363.245.811.453 1.344.624.534.171 1.078.256 1.632.256.715 0 1.227-.101 1.536-.304.32-.203.48-.485.48-.848 0-.267-.096-.475-.288-.624s-.448-.261-.768-.336c-.309-.075-.656-.139-1.04-.192-.384-.064-.768-.139-1.152-.224-.384-.096-.736-.224-1.056-.384-.32-.171-.576-.4-.768-.688-.192-.299-.288-.693-.288-1.184 0-.512.144-.96.432-1.344s.694-.6773 1.216-.88c.534-.2133 1.163-.32 1.888-.32.555 0 1.115.0693 1.68.208.576.128 1.046.3147 1.408.56l-.656 1.216c-.384-.256-.784-.432-1.2-.528s-.832-.144-1.248-.144c-.672 0-1.173.112-1.504.336-.33.213-.496.491-.496.832 0 .288.096.512.288.672.203.149.459.267.768.352.32.085.672.16 1.056.224.384.053.768.128 1.152.224.384.085.731.208 1.04.368.32.16.576.384.768.672.203.288.304.672.304 1.152 0 .512-.149.955-.448 1.328-.298.373-.72.667-1.264.88-.544.203-1.194.304-1.952.304zm9.36 0c-.907 0-1.707-.187-2.4-.56-.683-.373-1.216-.885-1.6-1.536-.374-.651-.56-1.397-.56-2.24s.181-1.589.544-2.24c.373-.651.88-1.157 1.52-1.52.65-.3733 1.381-.56 2.192-.56.821 0 1.546.1813 2.176.544.629.363 1.12.875 1.472 1.536.362.651.544 1.413.544 2.288 0 .064-.006.139-.016.224 0 .085-.006.165-.016.24h-7.216v-1.104h6.416l-.624.384c.01-.544-.102-1.029-.336-1.456-.235-.427-.56-.757-.976-.992-.406-.245-.88-.368-1.424-.368-.534 0-1.008.123-1.424.368-.416.235-.742.571-.976 1.008-.235.427-.352.917-.352 1.472v.256c0 .565.128 1.072.384 1.52.266.437.634.779 1.104 1.024.469.245 1.008.368 1.616.368.501 0 .954-.085 1.36-.256.416-.171.778-.427 1.088-.768l.848.992c-.384.448-.864.789-1.44 1.024-.566.235-1.2.352-1.904.352zm6.021-.096v-8.48h1.472v2.304l-.144-.576c.234-.587.629-1.035 1.184-1.344.554-.3093 1.237-.464 2.048-.464v1.488c-.064-.011-.128-.016-.192-.016-.054 0-.107 0-.16 0-.822 0-1.472.245-1.952.736s-.72 1.2-.72 2.128v4.224zm13.083 0-3.712-8.48h1.6l3.296 7.68h-.768l3.36-7.68h1.504l-3.712 8.48zm10.111.096c-.853 0-1.61-.187-2.272-.56-.661-.373-1.184-.885-1.568-1.536-.384-.661-.576-1.408-.576-2.24 0-.843.192-1.589.576-2.24s.907-1.157 1.568-1.52c.662-.3733 1.419-.56 2.272-.56.843 0 1.595.1867 2.256.56.672.363 1.195.869 1.568 1.52.384.64.576 1.387.576 2.24 0 .843-.192 1.589-.576 2.24-.373.651-.896 1.163-1.568 1.536-.661.373-1.413.56-2.256.56zm0-1.344c.544 0 1.03-.123 1.456-.368.438-.245.779-.592 1.024-1.04.246-.459.368-.987.368-1.584 0-.608-.122-1.131-.368-1.568-.245-.448-.586-.795-1.024-1.04-.426-.245-.912-.368-1.456-.368s-1.029.123-1.456.368c-.426.245-.768.592-1.024 1.04-.256.437-.384.96-.384 1.568 0 .597.128 1.125.384 1.584.256.448.598.795 1.024 1.04.427.245.912.368 1.456.368zm9.436 1.344c-.853 0-1.514-.229-1.984-.688-.469-.459-.704-1.115-.704-1.968v-7.776h1.536v7.712c0 .459.112.811.336 1.056.235.245.566.368.992.368.48 0 .88-.133 1.2-.4l.48 1.104c-.234.203-.517.352-.848.448-.32.096-.656.144-1.008.144zm-4.128-7.312v-1.264h5.408v1.264zm7.841 7.216v-8.48h1.472v2.304l-.144-.576c.235-.587.63-1.035 1.184-1.344.555-.3093 1.238-.464 2.048-.464v1.488c-.064-.011-.128-.016-.192-.016-.053 0-.106 0-.16 0-.821 0-1.472.245-1.952.736s-.72 1.2-.72 2.128v4.224zm10.151.096c-.906 0-1.706-.187-2.4-.56-.682-.373-1.216-.885-1.6-1.536-.373-.651-.56-1.397-.56-2.24s.182-1.589.544-2.24c.374-.651.88-1.157 1.52-1.52.651-.3733 1.382-.56 2.192-.56.822 0 1.547.1813 2.176.544.63.363 1.12.875 1.472 1.536.363.651.544 1.413.544 2.288 0 .064-.005.139-.016.224 0 .085-.005.165-.016.24h-7.216v-1.104h6.416l-.624.384c.011-.544-.101-1.029-.336-1.456-.234-.427-.56-.757-.976-.992-.405-.245-.88-.368-1.424-.368-.533 0-1.008.123-1.424.368-.416.235-.741.571-.976 1.008-.234.427-.352.917-.352 1.472v.256c0 .565.128 1.072.384 1.52.267.437.635.779 1.104 1.024.47.245 1.008.368 1.616.368.502 0 .955-.085 1.36-.256.416-.171.779-.427 1.088-.768l.848.992c-.384.448-.864.789-1.44 1.024-.565.235-1.2.352-1.904.352zm13.23 0c-.853 0-1.514-.229-1.984-.688-.469-.459-.704-1.115-.704-1.968v-7.776h1.536v7.712c0 .459.112.811.336 1.056.235.245.566.368.992.368.48 0 .88-.133 1.2-.4l.48 1.104c-.234.203-.517.352-.848.448-.32.096-.656.144-1.008.144zm-4.128-7.312v-1.264h5.408v1.264zm11.336 7.312c-.907 0-1.707-.187-2.4-.56-.683-.373-1.216-.885-1.6-1.536-.373-.651-.56-1.397-.56-2.24s.181-1.589.544-2.24c.373-.651.88-1.157 1.52-1.52.651-.3733 1.381-.56 2.192-.56.821 0 1.547.1813 2.176.544.629.363 1.12.875 1.472 1.536.363.651.544 1.413.544 2.288 0 .064-.005.139-.016.224 0 .085-.005.165-.016.24h-7.216v-1.104h6.416l-.624.384c.011-.544-.101-1.029-.336-1.456s-.56-.757-.976-.992c-.405-.245-.88-.368-1.424-.368-.533 0-1.008.123-1.424.368-.416.235-.741.571-.976 1.008-.235.427-.352.917-.352 1.472v.256c0 .565.128 1.072.384 1.52.267.437.635.779 1.104 1.024s1.008.368 1.616.368c.501 0 .955-.085 1.36-.256.416-.171.779-.427 1.088-.768l.848.992c-.384.448-.864.789-1.44 1.024-.565.235-1.2.352-1.904.352zm-1.52-9.808 2.176-2.08h1.952l-2.688 2.08zm7.541 9.712v-11.872h1.536v11.872zm8.245.096c-.907 0-1.707-.187-2.4-.56-.683-.373-1.216-.885-1.6-1.536-.374-.651-.56-1.397-.56-2.24s.181-1.589.544-2.24c.373-.651.88-1.157 1.52-1.52.65-.3733 1.381-.56 2.192-.56.821 0 1.546.1813 2.176.544.629.363 1.12.875 1.472 1.536.362.651.544 1.413.544 2.288 0 .064-.006.139-.016.224 0 .085-.006.165-.016.24h-7.216v-1.104h6.416l-.624.384c.01-.544-.102-1.029-.336-1.456-.235-.427-.56-.757-.976-.992-.406-.245-.88-.368-1.424-.368-.534 0-1.008.123-1.424.368-.416.235-.742.571-.976 1.008-.235.427-.352.917-.352 1.472v.256c0 .565.128 1.072.384 1.52.266.437.634.779 1.104 1.024.469.245 1.008.368 1.616.368.501 0 .954-.085 1.36-.256.416-.171.778-.427 1.088-.768l.848.992c-.384.448-.864.789-1.44 1.024-.566.235-1.2.352-1.904.352zm-1.52-9.808 2.176-2.08h1.952l-2.688 2.08zm12.036 9.808c-.704 0-1.349-.16-1.936-.48-.576-.331-1.04-.816-1.392-1.456-.341-.64-.512-1.44-.512-2.4s.166-1.76.496-2.4c.342-.64.8-1.12 1.376-1.44.587-.32 1.243-.48 1.968-.48.832 0 1.568.1813 2.208.544.64.363 1.147.869 1.52 1.52.374.64.56 1.392.56 2.256s-.186 1.621-.56 2.272c-.373.651-.88 1.157-1.52 1.52s-1.376.544-2.208.544zm-4.496 3.008v-11.584h1.472v2.288l-.096 1.968.16 1.968v5.36zm4.368-4.352c.544 0 1.03-.123 1.456-.368.438-.245.779-.592 1.024-1.04.256-.459.384-.987.384-1.584 0-.608-.128-1.131-.384-1.568-.245-.448-.586-.795-1.024-1.04-.426-.245-.912-.368-1.456-.368-.533 0-1.018.123-1.456.368-.426.245-.768.592-1.024 1.04-.245.437-.368.96-.368 1.568 0 .597.123 1.125.368 1.584.256.448.598.795 1.024 1.04.438.245.923.368 1.456.368zm11.067-7.312c.693 0 1.301.1333 1.824.4.533.267.949.672 1.248 1.216.298.544.448 1.232.448 2.064v4.88h-1.536v-4.704c0-.821-.203-1.44-.608-1.856-.395-.416-.955-.624-1.68-.624-.544 0-1.019.107-1.424.32-.406.213-.72.528-.944.944-.214.416-.32.933-.32 1.552v4.368h-1.536v-11.872h1.536v5.68l-.304-.608c.277-.555.704-.987 1.28-1.296.576-.3093 1.248-.464 2.016-.464zm9.994 8.656c-.853 0-1.61-.187-2.272-.56-.661-.373-1.184-.885-1.568-1.536-.384-.661-.576-1.408-.576-2.24 0-.843.192-1.589.576-2.24s.907-1.157 1.568-1.52c.662-.3733 1.419-.56 2.272-.56.843 0 1.595.1867 2.256.56.672.363 1.195.869 1.568 1.52.384.64.576 1.387.576 2.24 0 .843-.192 1.589-.576 2.24-.373.651-.896 1.163-1.568 1.536-.661.373-1.413.56-2.256.56zm0-1.344c.544 0 1.03-.123 1.456-.368.438-.245.779-.592 1.024-1.04.246-.459.368-.987.368-1.584 0-.608-.122-1.131-.368-1.568-.245-.448-.586-.795-1.024-1.04-.426-.245-.912-.368-1.456-.368s-1.029.123-1.456.368c-.426.245-.768.592-1.024 1.04-.256.437-.384.96-.384 1.568 0 .597.128 1.125.384 1.584.256.448.598.795 1.024 1.04.427.245.912.368 1.456.368zm11.053-7.312c.693 0 1.301.1333 1.824.4.533.267.949.672 1.248 1.216.298.544.448 1.232.448 2.064v4.88h-1.536v-4.704c0-.821-.203-1.44-.608-1.856-.395-.416-.955-.624-1.68-.624-.544 0-1.019.107-1.424.32-.406.213-.72.528-.944.944-.214.416-.32.933-.32 1.552v4.368h-1.536v-8.48h1.472v2.288l-.24-.608c.277-.555.704-.987 1.28-1.296.576-.3093 1.248-.464 2.016-.464zm10.138 8.656c-.906 0-1.706-.187-2.4-.56-.682-.373-1.216-.885-1.6-1.536-.373-.651-.56-1.397-.56-2.24s.182-1.589.544-2.24c.374-.651.88-1.157 1.52-1.52.651-.3733 1.382-.56 2.192-.56.822 0 1.547.1813 2.176.544.63.363 1.12.875 1.472 1.536.363.651.544 1.413.544 2.288 0 .064-.005.139-.016.224 0 .085-.005.165-.016.24h-7.216v-1.104h6.416l-.624.384c.011-.544-.101-1.029-.336-1.456-.234-.427-.56-.757-.976-.992-.405-.245-.88-.368-1.424-.368-.533 0-1.008.123-1.424.368-.416.235-.741.571-.976 1.008-.234.427-.352.917-.352 1.472v.256c0 .565.128 1.072.384 1.52.267.437.635.779 1.104 1.024.47.245 1.008.368 1.616.368.502 0 .955-.085 1.36-.256.416-.171.779-.427 1.088-.768l.848.992c-.384.448-.864.789-1.44 1.024-.565.235-1.2.352-1.904.352zm14.094 0c-.907 0-1.707-.187-2.4-.56-.683-.373-1.216-.885-1.6-1.536-.373-.651-.56-1.397-.56-2.24s.181-1.589.544-2.24c.373-.651.88-1.157 1.52-1.52.651-.3733 1.381-.56 2.192-.56.821 0 1.547.1813 2.176.544.629.363 1.12.875 1.472 1.536.363.651.544 1.413.544 2.288 0 .064-.005.139-.016.224 0 .085-.005.165-.016.24h-7.216v-1.104h6.416l-.624.384c.011-.544-.101-1.029-.336-1.456s-.56-.757-.976-.992c-.405-.245-.88-.368-1.424-.368-.533 0-1.008.123-1.424.368-.416.235-.741.571-.976 1.008-.235.427-.352.917-.352 1.472v.256c0 .565.128 1.072.384 1.52.267.437.635.779 1.104 1.024s1.008.368 1.616.368c.501 0 .955-.085 1.36-.256.416-.171.779-.427 1.088-.768l.848.992c-.384.448-.864.789-1.44 1.024-.565.235-1.2.352-1.904.352zm10.549-8.656c.693 0 1.301.1333 1.824.4.533.267.949.672 1.248 1.216.298.544.448 1.232.448 2.064v4.88h-1.536v-4.704c0-.821-.203-1.44-.608-1.856-.395-.416-.955-.624-1.68-.624-.544 0-1.019.107-1.424.32-.406.213-.72.528-.944.944-.214.416-.32.933-.32 1.552v4.368h-1.536v-8.48h1.472v2.288l-.24-.608c.277-.555.704-.987 1.28-1.296.576-.3093 1.248-.464 2.016-.464zm-269.1077 24c.6827 0 1.2853.133 1.808.4s.928.672 1.216 1.216c.2987.544.448 1.232.448 2.064v4.88h-1.536v-4.704c0-.821-.192-1.44-.576-1.856s-.9227-.624-1.616-.624c-.512 0-.96.107-1.344.32s-.6827.528-.896.944c-.2027.416-.304.933-.304 1.552v4.368h-1.536v-4.704c0-.821-.192-1.44-.57599-1.856-.37333-.416-.912-.624-1.616-.624-.50133 0-.944.107-1.328.32s-.68267.528-.896.944-.32.933-.32 1.552v4.368h-1.536v-8.48h1.472v2.256l-.24-.576c.26667-.555.67733-.987 1.232-1.296s1.2-.464 1.936-.464c.81067 0 1.50933.203 2.09599.608.5867.395.9707.997 1.152 1.808l-.624-.256c.256-.651.704-1.173 1.344-1.568s1.3867-.592 2.24-.592zm9.9303 8.656c-.8534 0-1.6107-.187-2.272-.56-.6614-.373-1.184-.885-1.568-1.536-.384-.661-.576-1.408-.576-2.24 0-.843.192-1.589.576-2.24s.9066-1.157 1.568-1.52c.6613-.373 1.4186-.56 2.272-.56.8426 0 1.5946.187 2.256.56.672.363 1.1946.869 1.568 1.52.384.64.576 1.387.576 2.24 0 .843-.192 1.589-.576 2.24-.3734.651-.896 1.163-1.568 1.536-.6614.373-1.4134.56-2.256.56zm0-1.344c.544 0 1.0293-.123 1.456-.368.4373-.245.7786-.592 1.024-1.04.2453-.459.368-.987.368-1.584 0-.608-.1227-1.131-.368-1.568-.2454-.448-.5867-.795-1.024-1.04-.4267-.245-.912-.368-1.456-.368s-1.0294.123-1.456.368c-.4267.245-.768.592-1.024 1.04-.256.437-.384.96-.384 1.568 0 .597.128 1.125.384 1.584.256.448.5973.795 1.024 1.04.4266.245.912.368 1.456.368zm10.0282 1.344c-.8213 0-1.5573-.181-2.208-.544-.64-.363-1.1467-.869-1.52-1.52s-.56-1.408-.56-2.272.1867-1.616.56-2.256c.3733-.651.88-1.157 1.52-1.52.6507-.363 1.3867-.544 2.208-.544.7147 0 1.36.16 1.936.48s1.0347.8 1.376 1.44c.352.64.528 1.44.528 2.4s-.1707 1.76-.512 2.4c-.3307.64-.784 1.125-1.36 1.456-.576.32-1.232.48-1.968.48zm.128-1.344c.5333 0 1.0133-.123 1.44-.368.4373-.245.7787-.592 1.024-1.04.256-.459.384-.987.384-1.584 0-.608-.128-1.131-.384-1.568-.2453-.448-.5867-.795-1.024-1.04-.4267-.245-.9067-.368-1.44-.368-.544 0-1.0293.123-1.456.368s-.768.592-1.024 1.04c-.256.437-.384.96-.384 1.568 0 .597.128 1.125.384 1.584.256.448.5973.795 1.024 1.04s.912.368 1.456.368zm2.896 1.248v-2.288l.096-1.968-.16-1.968v-5.648h1.536v11.872zm8.1543.096c-.9067 0-1.7067-.187-2.4-.56-.6827-.373-1.216-.885-1.6-1.536-.3734-.651-.56-1.397-.56-2.24s.1813-1.589.544-2.24c.3733-.651.88-1.157 1.52-1.52.6506-.373 1.3813-.56 2.192-.56.8213 0 1.5466.181 2.176.544.6293.363 1.12.875 1.472 1.536.3626.651.544 1.413.544 2.288 0 .064-.0054.139-.016.224 0 .085-.0054.165-.016.24h-7.216v-1.104h6.416l-.624.384c.0106-.544-.1014-1.029-.336-1.456-.2347-.427-.56-.757-.976-.992-.4054-.245-.88-.368-1.424-.368-.5334 0-1.008.123-1.424.368-.416.235-.7414.571-.976 1.008-.2347.427-.352.917-.352 1.472v.256c0 .565.128 1.072.384 1.52.2666.437.6346.779 1.104 1.024.4693.245 1.008.368 1.616.368.5013 0 .9546-.085 1.36-.256.416-.171.7786-.427 1.088-.768l.848.992c-.384.448-.864.789-1.44 1.024-.5654.235-1.2.352-1.904.352zm14.8137 0c-.704 0-1.3493-.16-1.936-.48-.576-.331-1.04-.816-1.392-1.456-.3413-.64-.512-1.44-.512-2.4s.1653-1.76.496-2.4c.3413-.64.8-1.12 1.376-1.44.5867-.32 1.2427-.48 1.968-.48.832 0 1.568.181 2.208.544s1.1467.869 1.52 1.52c.3733.64.56 1.392.56 2.256s-.1867 1.621-.56 2.272-.88 1.157-1.52 1.52-1.376.544-2.208.544zm-4.496 3.008v-11.584h1.472v2.288l-.096 1.968.16 1.968v5.36zm4.368-4.352c.544 0 1.0293-.123 1.456-.368.4373-.245.7787-.592 1.024-1.04.256-.459.384-.987.384-1.584 0-.608-.128-1.131-.384-1.568-.2453-.448-.5867-.795-1.024-1.04-.4267-.245-.912-.368-1.456-.368-.5333 0-1.0187.123-1.456.368-.4267.245-.768.592-1.024 1.04-.2453.437-.368.96-.368 1.568 0 .597.1227 1.125.368 1.584.256.448.5973.795 1.024 1.04.4373.245.9227.368 1.456.368zm10.1703 1.344c-.8534 0-1.6107-.187-2.272-.56-.6614-.373-1.184-.885-1.568-1.536-.384-.661-.576-1.408-.576-2.24 0-.843.192-1.589.576-2.24s.9066-1.157 1.568-1.52c.6613-.373 1.4186-.56 2.272-.56.8426 0 1.5946.187 2.256.56.672.363 1.1946.869 1.568 1.52.384.64.576 1.387.576 2.24 0 .843-.192 1.589-.576 2.24-.3734.651-.896 1.163-1.568 1.536-.6614.373-1.4134.56-2.256.56zm0-1.344c.544 0 1.0293-.123 1.456-.368.4373-.245.7786-.592 1.024-1.04.2453-.459.368-.987.368-1.584 0-.608-.1227-1.131-.368-1.568-.2454-.448-.5867-.795-1.024-1.04-.4267-.245-.912-.368-1.456-.368s-1.0294.123-1.456.368c-.4267.245-.768.592-1.024 1.04-.256.437-.384.96-.384 1.568 0 .597.128 1.125.384 1.584.256.448.5973.795 1.024 1.04.4266.245.912.368 1.456.368zm6.5242 1.248v-8.48h1.472v2.304l-.144-.576c.2347-.587.6293-1.035 1.184-1.344s1.2373-.464 2.048-.464v1.488c-.064-.011-.128-.016-.192-.016-.0533 0-.1067 0-.16 0-.8213 0-1.472.245-1.952.736s-.72 1.2-.72 2.128v4.224zm9.7089.096c-.8533 0-1.5147-.229-1.984-.688s-.704-1.115-.704-1.968v-7.776h1.536v7.712c0 .459.112.811.336 1.056.2347.245.5653.368.992.368.48 0 .88-.133 1.2-.4l.48 1.104c-.2347.203-.5173.352-.848.448-.32.096-.656.144-1.008.144zm-4.128-7.312v-1.264h5.408v1.264zm7.841 7.216v-8.48h1.472v2.304l-.144-.576c.2347-.587.6293-1.035 1.184-1.344s1.2373-.464 2.048-.464v1.488c-.064-.011-.128-.016-.192-.016-.0533 0-.1067 0-.16 0-.8213 0-1.472.245-1.952.736s-.72 1.2-.72 2.128v4.224zm11.0918 0v-1.792l-.08-.336v-3.056c0-.651-.192-1.152-.576-1.504-.373-.363-.938-.544-1.6957-.544-.5013 0-.992.085-1.472.256-.48.16-.8853.379-1.216.656l-.64-1.152c.4373-.352.96-.619 1.568-.8.6187-.192 1.264-.288 1.936-.288 1.1627 0 2.0587.283 2.6877.848.63.565.944 1.429.944 2.592v5.12zm-2.7837.096c-.6293 0-1.184-.107-1.664-.32-.4693-.213-.832-.507-1.088-.88-.256-.384-.384-.816-.384-1.296 0-.459.1067-.875.32-1.248.224-.373.5813-.672 1.072-.896.5013-.224 1.1733-.336 2.016-.336h2.6877v1.104h-2.6237c-.768 0-1.2853.128-1.552.384s-.4.565-.4.928c0 .416.1653.752.496 1.008.3307.245.7893.368 1.376.368.576 0 1.0777-.128 1.5037-.384.438-.256.752-.629.944-1.12l.304 1.056c-.202.501-.56.901-1.072 1.2-.512.288-1.157.432-1.9357.432zm7.0827-.096v-8.48h1.536v8.48zm.768-10.112c-.299 0-.55-.096-.752-.288-.192-.192-.288-.427-.288-.704 0-.288.096-.528.288-.72.202-.192.453-.288.752-.288.298 0 .544.096.736.288.202.181.304.411.304.688 0 .288-.096.533-.288.736-.192.192-.443.288-.752.288zm6.613 10.208c-.854 0-1.515-.229-1.984-.688-.47-.459-.704-1.115-.704-1.968v-7.776h1.536v7.712c0 .459.112.811.336 1.056.234.245.565.368.992.368.48 0 .88-.133 1.2-.4l.48 1.104c-.235.203-.518.352-.848.448-.32.096-.656.144-1.008.144zm-4.128-7.312v-1.264h5.408v1.264zm16.633 7.312c-.704 0-1.349-.16-1.936-.48-.576-.331-1.04-.816-1.392-1.456-.341-.64-.512-1.44-.512-2.4s.166-1.76.496-2.4c.342-.64.8-1.12 1.376-1.44.587-.32 1.243-.48 1.968-.48.832 0 1.568.181 2.208.544s1.147.869 1.52 1.52c.374.64.56 1.392.56 2.256s-.186 1.621-.56 2.272c-.373.651-.88 1.157-1.52 1.52s-1.376.544-2.208.544zm-4.496 3.008v-11.584h1.472v2.288l-.096 1.968.16 1.968v5.36zm4.368-4.352c.544 0 1.03-.123 1.456-.368.438-.245.779-.592 1.024-1.04.256-.459.384-.987.384-1.584 0-.608-.128-1.131-.384-1.568-.245-.448-.586-.795-1.024-1.04-.426-.245-.912-.368-1.456-.368-.533 0-1.018.123-1.456.368-.426.245-.768.592-1.024 1.04-.245.437-.368.96-.368 1.568 0 .597.123 1.125.368 1.584.256.448.598.795 1.024 1.04.438.245.923.368 1.456.368zm10.171 1.344c-.854 0-1.611-.187-2.272-.56-.662-.373-1.184-.885-1.568-1.536-.384-.661-.576-1.408-.576-2.24 0-.843.192-1.589.576-2.24s.906-1.157 1.568-1.52c.661-.373 1.418-.56 2.272-.56.842 0 1.594.187 2.256.56.672.363 1.194.869 1.568 1.52.384.64.576 1.387.576 2.24 0 .843-.192 1.589-.576 2.24-.374.651-.896 1.163-1.568 1.536-.662.373-1.414.56-2.256.56zm0-1.344c.544 0 1.029-.123 1.456-.368.437-.245.778-.592 1.024-1.04.245-.459.368-.987.368-1.584 0-.608-.123-1.131-.368-1.568-.246-.448-.587-.795-1.024-1.04-.427-.245-.912-.368-1.456-.368s-1.03.123-1.456.368c-.427.245-.768.592-1.024 1.04-.256.437-.384.96-.384 1.568 0 .597.128 1.125.384 1.584.256.448.597.795 1.024 1.04.426.245.912.368 1.456.368zm10.092 1.344c-.725 0-1.365-.133-1.92-.4-.544-.267-.971-.672-1.28-1.216-.299-.555-.448-1.248-.448-2.08v-4.88h1.536v4.704c0 .832.197 1.456.592 1.872.405.416.971.624 1.696.624.533 0 .997-.107 1.392-.32.395-.224.699-.544.912-.96.213-.427.32-.939.32-1.536v-4.384h1.536v8.48h-1.456v-2.288l.24.608c-.277.565-.693 1.003-1.248 1.312s-1.179.464-1.872.464zm7.26-.096v-8.48h1.472v2.304l-.144-.576c.235-.587.629-1.035 1.184-1.344s1.237-.464 2.048-.464v1.488c-.064-.011-.128-.016-.192-.016-.053 0-.107 0-.16 0-.821 0-1.472.245-1.952.736s-.72 1.2-.72 2.128v4.224zm13.083 0-3.712-8.48h1.6l3.296 7.68h-.768l3.36-7.68h1.504l-3.712 8.48zm6.714 0v-8.48h1.536v8.48zm.768-10.112c-.299 0-.549-.096-.752-.288-.192-.192-.288-.427-.288-.704 0-.288.096-.528.288-.72.203-.192.453-.288.752-.288s.544.096.736.288c.203.181.304.411.304.688 0 .288-.096.533-.288.736-.192.192-.443.288-.752.288zm6.133 10.208c-.704 0-1.376-.096-2.016-.288-.63-.192-1.126-.427-1.488-.704l.64-1.216c.362.245.81.453 1.344.624.533.171 1.077.256 1.632.256.714 0 1.226-.101 1.536-.304.32-.203.48-.485.48-.848 0-.267-.096-.475-.288-.624s-.448-.261-.768-.336c-.31-.075-.656-.139-1.04-.192-.384-.064-.768-.139-1.152-.224-.384-.096-.736-.224-1.056-.384-.32-.171-.576-.4-.768-.688-.192-.299-.288-.693-.288-1.184 0-.512.144-.96.432-1.344s.693-.677 1.216-.88c.533-.213 1.162-.32 1.888-.32.554 0 1.114.069 1.68.208.576.128 1.045.315 1.408.56l-.656 1.216c-.384-.256-.784-.432-1.2-.528s-.832-.144-1.248-.144c-.672 0-1.174.112-1.504.336-.331.213-.496.491-.496.832 0 .288.096.512.288.672.202.149.458.267.768.352.32.085.672.16 1.056.224.384.053.768.128 1.152.224.384.085.73.208 1.04.368.32.16.576.384.768.672.202.288.304.672.304 1.152 0 .512-.15.955-.448 1.328-.299.373-.72.667-1.264.88-.544.203-1.195.304-1.952.304zm9.151 0c-.725 0-1.365-.133-1.92-.4-.544-.267-.97-.672-1.28-1.216-.298-.555-.448-1.248-.448-2.08v-4.88h1.536v4.704c0 .832.198 1.456.592 1.872.406.416.971.624 1.696.624.534 0 .998-.107 1.392-.32.395-.224.699-.544.912-.96.214-.427.32-.939.32-1.536v-4.384h1.536v8.48h-1.456v-2.288l.24.608c-.277.565-.693 1.003-1.248 1.312-.554.309-1.178.464-1.872.464zm12.524-.096v-1.792l-.08-.336v-3.056c0-.651-.192-1.152-.576-1.504-.373-.363-.938-.544-1.696-.544-.501 0-.992.085-1.472.256-.48.16-.885.379-1.216.656l-.64-1.152c.438-.352.96-.619 1.568-.8.619-.192 1.264-.288 1.936-.288 1.163 0 2.059.283 2.688.848.63.565.944 1.429.944 2.592v5.12zm-2.784.096c-.629 0-1.184-.107-1.664-.32-.469-.213-.832-.507-1.088-.88-.256-.384-.384-.816-.384-1.296 0-.459.107-.875.32-1.248.224-.373.582-.672 1.072-.896.502-.224 1.174-.336 2.016-.336h2.688v1.104h-2.624c-.768 0-1.285.128-1.552.384-.266.256-.4.565-.4.928 0 .416.166.752.496 1.008.331.245.79.368 1.376.368.576 0 1.078-.128 1.504-.384.438-.256.752-.629.944-1.12l.304 1.056c-.202.501-.56.901-1.072 1.2-.512.288-1.157.432-1.936.432zm7.083-.096v-11.872h1.536v11.872zm4.469 0v-8.48h1.536v8.48zm.768-10.112c-.299 0-.55-.096-.752-.288-.192-.192-.288-.427-.288-.704 0-.288.096-.528.288-.72.202-.192.453-.288.752-.288.298 0 .544.096.736.288.202.181.304.411.304.688 0 .288-.096.533-.288.736-.192.192-.443.288-.752.288zm6.132 10.208c-.704 0-1.376-.096-2.016-.288-.629-.192-1.125-.427-1.488-.704l.64-1.216c.363.245.811.453 1.344.624.534.171 1.078.256 1.632.256.715 0 1.227-.101 1.536-.304.32-.203.48-.485.48-.848 0-.267-.096-.475-.288-.624s-.448-.261-.768-.336c-.309-.075-.656-.139-1.04-.192-.384-.064-.768-.139-1.152-.224-.384-.096-.736-.224-1.056-.384-.32-.171-.576-.4-.768-.688-.192-.299-.288-.693-.288-1.184 0-.512.144-.96.432-1.344s.694-.677 1.216-.88c.534-.213 1.163-.32 1.888-.32.555 0 1.115.069 1.68.208.576.128 1.046.315 1.408.56l-.656 1.216c-.384-.256-.784-.432-1.2-.528s-.832-.144-1.248-.144c-.672 0-1.173.112-1.504.336-.33.213-.496.491-.496.832 0 .288.096.512.288.672.203.149.459.267.768.352.32.085.672.16 1.056.224.384.053.768.128 1.152.224.384.085.731.208 1.04.368.32.16.576.384.768.672.203.288.304.672.304 1.152 0 .512-.149.955-.448 1.328-.298.373-.72.667-1.264.88-.544.203-1.194.304-1.952.304zm9.36 0c-.907 0-1.707-.187-2.4-.56-.683-.373-1.216-.885-1.6-1.536-.373-.651-.56-1.397-.56-2.24s.181-1.589.544-2.24c.373-.651.88-1.157 1.52-1.52.651-.373 1.381-.56 2.192-.56.821 0 1.547.181 2.176.544s1.12.875 1.472 1.536c.363.651.544 1.413.544 2.288 0 .064-.005.139-.016.224 0 .085-.005.165-.016.24h-7.216v-1.104h6.416l-.624.384c.011-.544-.101-1.029-.336-1.456s-.56-.757-.976-.992c-.405-.245-.88-.368-1.424-.368-.533 0-1.008.123-1.424.368-.416.235-.741.571-.976 1.008-.235.427-.352.917-.352 1.472v.256c0 .565.128 1.072.384 1.52.267.437.635.779 1.104 1.024s1.008.368 1.616.368c.501 0 .955-.085 1.36-.256.416-.171.779-.427 1.088-.768l.848.992c-.384.448-.864.789-1.44 1.024-.565.235-1.2.352-1.904.352zm6.021-.096v-8.48h1.472v2.304l-.144-.576c.235-.587.629-1.035 1.184-1.344s1.237-.464 2.048-.464v1.488c-.064-.011-.128-.016-.192-.016-.053 0-.107 0-.16 0-.821 0-1.472.245-1.952.736s-.72 1.2-.72 2.128v4.224zm14.555.096c-.864 0-1.637-.187-2.32-.56-.672-.373-1.2-.885-1.584-1.536s-.576-1.397-.576-2.24.192-1.589.576-2.24.912-1.157 1.584-1.52c.683-.373 1.456-.56 2.32-.56.768 0 1.451.155 2.048.464.608.299 1.078.747 1.408 1.344l-1.168.752c-.277-.416-.618-.72-1.024-.912-.394-.203-.821-.304-1.28-.304-.554 0-1.05.123-1.488.368-.437.245-.784.592-1.04 1.04-.256.437-.384.96-.384 1.568s.128 1.136.384 1.584.603.795 1.04 1.04c.438.245.934.368 1.488.368.459 0 .886-.096 1.28-.288.406-.203.747-.512 1.024-.928l1.168.736c-.33.587-.8 1.04-1.408 1.36-.597.309-1.28.464-2.048.464zm9.096 0c-.907 0-1.707-.187-2.4-.56-.683-.373-1.216-.885-1.6-1.536-.373-.651-.56-1.397-.56-2.24s.181-1.589.544-2.24c.373-.651.88-1.157 1.52-1.52.651-.373 1.381-.56 2.192-.56.821 0 1.547.181 2.176.544s1.12.875 1.472 1.536c.363.651.544 1.413.544 2.288 0 .064-.005.139-.016.224 0 .085-.005.165-.016.24h-7.216v-1.104h6.416l-.624.384c.011-.544-.101-1.029-.336-1.456s-.56-.757-.976-.992c-.405-.245-.88-.368-1.424-.368-.533 0-1.008.123-1.424.368-.416.235-.741.571-.976 1.008-.235.427-.352.917-.352 1.472v.256c0 .565.128 1.072.384 1.52.267.437.635.779 1.104 1.024s1.008.368 1.616.368c.501 0 .955-.085 1.36-.256.416-.171.779-.427 1.088-.768l.848.992c-.384.448-.864.789-1.44 1.024-.565.235-1.2.352-1.904.352zm12.75 0c-.704 0-1.376-.096-2.016-.288-.63-.192-1.126-.427-1.488-.704l.64-1.216c.362.245.81.453 1.344.624.533.171 1.077.256 1.632.256.714 0 1.226-.101 1.536-.304.32-.203.48-.485.48-.848 0-.267-.096-.475-.288-.624s-.448-.261-.768-.336c-.31-.075-.656-.139-1.04-.192-.384-.064-.768-.139-1.152-.224-.384-.096-.736-.224-1.056-.384-.32-.171-.576-.4-.768-.688-.192-.299-.288-.693-.288-1.184 0-.512.144-.96.432-1.344s.693-.677 1.216-.88c.533-.213 1.162-.32 1.888-.32.554 0 1.114.069 1.68.208.576.128 1.045.315 1.408.56l-.656 1.216c-.384-.256-.784-.432-1.2-.528s-.832-.144-1.248-.144c-.672 0-1.174.112-1.504.336-.331.213-.496.491-.496.832 0 .288.096.512.288.672.202.149.458.267.768.352.32.085.672.16 1.056.224.384.053.768.128 1.152.224.384.085.73.208 1.04.368.32.16.576.384.768.672.202.288.304.672.304 1.152 0 .512-.15.955-.448 1.328-.299.373-.72.667-1.264.88-.544.203-1.195.304-1.952.304zm5.583-.096v-8.48h1.536v8.48zm.768-10.112c-.298 0-.549-.096-.752-.288-.192-.192-.288-.427-.288-.704 0-.288.096-.528.288-.72.203-.192.454-.288.752-.288.299 0 .544.096.736.288.203.181.304.411.304.688 0 .288-.096.533-.288.736-.192.192-.442.288-.752.288zm6.613 10.208c-.853 0-1.515-.229-1.984-.688s-.704-1.115-.704-1.968v-7.776h1.536v7.712c0 .459.112.811.336 1.056.235.245.565.368.992.368.48 0 .88-.133 1.2-.4l.48 1.104c-.235.203-.517.352-.848.448-.32.096-.656.144-1.008.144zm-4.128-7.312v-1.264h5.408v1.264zm11.336 7.312c-.907 0-1.707-.187-2.4-.56-.683-.373-1.216-.885-1.6-1.536-.374-.651-.56-1.397-.56-2.24s.181-1.589.544-2.24c.373-.651.88-1.157 1.52-1.52.65-.373 1.381-.56 2.192-.56.821 0 1.546.181 2.176.544.629.363 1.12.875 1.472 1.536.362.651.544 1.413.544 2.288 0 .064-.006.139-.016.224 0 .085-.006.165-.016.24h-7.216v-1.104h6.416l-.624.384c.01-.544-.102-1.029-.336-1.456-.235-.427-.56-.757-.976-.992-.406-.245-.88-.368-1.424-.368-.534 0-1.008.123-1.424.368-.416.235-.742.571-.976 1.008-.235.427-.352.917-.352 1.472v.256c0 .565.128 1.072.384 1.52.266.437.634.779 1.104 1.024.469.245 1.008.368 1.616.368.501 0 .954-.085 1.36-.256.416-.171.778-.427 1.088-.768l.848.992c-.384.448-.864.789-1.44 1.024-.566.235-1.2.352-1.904.352zm6.389 0c-.299 0-.555-.101-.768-.304-.214-.213-.32-.48-.32-.8s.106-.581.32-.784c.213-.203.469-.304.768-.304.288 0 .533.101.736.304.213.203.32.464.32.784s-.107.587-.32.8c-.203.203-.448.304-.736.304z" fill="#fff"/><g fill="url(#a)"><path d="m138.475 40.7437c-1.16 0-2.08.9196-2.08 2.0792 0 1.1595.92 2.0791 2.08 2.0791 1.159 0 2.079-.9196 2.079-2.0791 0-1.1596-.92-2.0792-2.079-2.0792z"/><path d="m134.406 5.008c-.41 0-.749.33986-.749.7497 0 .40983.339.7497.749.7497s.75-.33987.75-.7497c0-.40984-.34-.7497-.75-.7497z"/><path d="m142.193 5.008h-5.128c-.36 0-.66.29988-.66.65973 0 .35986.3.65974.66.65974h5.128c.36 0 .66-.29988.66-.65974 0-.35985-.3-.65973-.66-.65973z"/><path d="m175 42.513v-12.1951c0-4.1284-2.909-7.487-7.057-7.487h-12.465v1.8592h12.335c2.949 0 5.348 2.3991 5.348 5.3479v12.7649c0 2.9488-2.399 5.3478-5.348 5.3478h-18.053c1.43-1.2994 2.299-3.1787 2.299-5.3678v-35.72572c0-4.12835-3.358-7.05718115-7.487-7.05718133l-12.195-.00000053c-4.128-.00000018-7.487 2.90883186-7.487 7.05717186v35.73573c0 4.1283 3.619 7.2071 7.767 7.2071h35.286c4.128 0 7.057-3.3587 7.057-7.487zm-42.903 5.4778c-2.949 0-5.348-2.399-5.348-5.3479v-35.45578c0-2.94882 2.399-5.34786 5.348-5.34786h12.765c2.949 0 5.348 2.39904 5.348 5.34786v35.45578h-.02c0 2.9489-2.399 5.3479-5.348 5.3479z"/><path d="m170.292 32.3571c0-.4099-.34-.7497-.75-.7497s-.75.3398-.75.7497c0 .4098.34.7497.75.7497s.75-.3399.75-.7497z"/><path d="m170.292 40.1439v-5.1279c0-.3599-.3-.6597-.66-.6597s-.66.2998-.66.6597v5.1279c0 .3599.3.6598.66.6598s.66-.2999.66-.6598z"/><path clip-rule="evenodd" d="m169.032 13.7845c0 .3798.25.6297.63.6297s.63-.2499.63-.6297c0-5.00801-3.679-9.18634-8.557-9.94604l2.219-1.51939c.32-.18992.38-.56977.19-.88964s-.569-.37985-.889-.18993l-3.609 2.46902c-.13.12994-.25.31987-.25.50979 0 .12995.06.2499.13.37985l2.469 3.60856c.19.31987.57.37984.89.18992s.38-.56977.19-.88964l-1.71-2.46902c4.309.56978 7.667 4.24831 7.667 8.74652z" fill-rule="evenodd"/></g></svg>