<svg width="67" height="20" viewBox="0 0 67 20" fill="none" xmlns="http://www.w3.org/2000/svg">
<g opacity="1">
<path d="M33.903 6.21696H29.185V4.78616C29.185 4.11986 29.1244 3.69402 29.0041 3.51138C28.8828 3.32874 28.6814 3.23697 28.3997 3.23697C28.0929 3.23697 27.8607 3.35903 27.7031 3.60407C27.5455 3.84912 27.4671 4.2199 27.4671 4.71824C27.4671 5.35885 27.5557 5.83976 27.7339 6.16465C27.9036 6.48954 28.3811 6.88051 29.1673 7.33939C31.4232 8.66189 32.8436 9.74578 33.4311 10.592C34.0168 11.4381 34.3106 12.8019 34.3106 14.6852C34.3106 16.0536 34.1474 17.0622 33.8219 17.7102C33.4964 18.359 32.8678 18.9033 31.9343 19.342C31.0017 19.7807 29.9162 20 28.6786 20C27.3207 20 26.1606 19.7476 25.199 19.2419C24.2385 18.7362 23.6099 18.092 23.3114 17.3091C23.0139 16.5272 22.8647 15.4167 22.8647 13.9785V12.7221H27.5828V15.0633C27.5828 15.7847 27.6481 16.2472 27.7805 16.4537C27.9129 16.6593 28.1461 16.763 28.4809 16.763C28.8157 16.763 29.0656 16.6318 29.2298 16.3702C29.3939 16.1096 29.476 15.7204 29.476 15.2037C29.476 14.0694 29.3202 13.3269 29.0106 12.9782C28.6926 12.6294 27.9036 12.0503 26.6427 11.2399C25.3818 10.4213 24.5462 9.82654 24.1377 9.45484C23.7293 9.08407 23.3907 8.5692 23.1221 7.91299C22.8535 7.25679 22.7192 6.41795 22.7192 5.39739C22.7192 3.92713 22.9104 2.8515 23.2919 2.17144C23.6742 1.49046 24.2916 0.959067 25.144 0.57544C25.9964 0.191813 27.0251 0 28.2319 0C29.5506 0 30.6744 0.209251 31.6032 0.628671C32.5312 1.04809 33.1467 1.57581 33.4489 2.21274C33.7501 2.84967 33.9012 3.93172 33.9012 5.45797V6.21788L33.903 6.21696Z" fill="white"/>
<path d="M52.6633 0.146484H47.4631V4.13051H52.6633V0.146484Z" fill="white"/>
<path d="M46.2657 0.146484V4.0883H43.1582V19.8519H37.958V4.0883H34.8813V0.146484H46.2657Z" fill="white"/>
<path d="M52.6633 5.30176H47.4631V19.8511H52.6633V5.30176Z" fill="white"/>
<path d="M61.0147 7.6162C61.0147 7.02332 60.9615 6.62501 60.8571 6.42218C60.7517 6.21844 60.5437 6.11748 60.2313 6.11748C59.9189 6.11748 59.724 6.20926 59.6186 6.39189C59.5132 6.57453 59.4601 6.98294 59.4601 7.6162V15.5375C59.4601 16.1964 59.5104 16.6287 59.6121 16.8361C59.7128 17.0426 59.9068 17.1463 60.1931 17.1463C60.5223 17.1463 60.7414 17.0307 60.8506 16.7985C60.9597 16.5672 61.0147 16 61.0147 15.0988V7.6162ZM66.006 0.146484V19.85H61.0147V18.533C60.5344 19.0222 60.0289 19.3884 59.4992 19.6325C58.9695 19.8767 58.4146 19.9987 57.8355 19.9987C57.0567 19.9987 56.3815 19.7977 55.8108 19.3958C55.24 18.9947 54.8735 18.5303 54.7112 18.0026C54.549 17.4749 54.4688 16.6158 54.4688 15.4218V7.86399C54.4688 6.62317 54.549 5.74212 54.7112 5.22266C54.8726 4.7032 55.2437 4.24707 55.8229 3.85335C56.402 3.45963 57.094 3.26322 57.897 3.26322C58.5181 3.26322 59.0879 3.37336 59.6046 3.5927C60.1222 3.81205 60.5922 4.14245 61.0147 4.58206V0.146484H66.006Z" fill="white"/>
<path d="M0 0.149902V19.8535H20.0221V0.149902H0ZM10.0115 19.8535C4.4821 19.8535 0 15.4427 0 10.0021C0 4.56161 4.4821 0.149902 10.0115 0.149902C15.5409 0.149902 20.023 4.5607 20.023 10.0021C20.023 15.4436 15.5409 19.8544 10.0115 19.8544V19.8535Z" fill="white"/>
<path d="M6.58691 3.52197C3.0943 3.52197 0.245197 6.1991 0.0241699 9.58016C0.238669 7.50325 2.02088 5.88339 4.18732 5.88339C6.49831 5.88339 8.37191 7.72718 8.37191 10.0014C8.37191 12.2756 6.49831 14.1194 4.18732 14.1194C2.02088 14.1194 0.238669 12.4987 0.0241699 10.4227C0.24613 13.8037 3.09524 16.4809 6.58691 16.4809C10.0786 16.4809 13.1711 13.5798 13.1711 10.0014C13.1711 6.42304 10.2231 3.52197 6.58691 3.52197Z" fill="white"/>
</g>
</svg>
